<?xml version="1.0" standalone="no"?>
<svg viewBox="0 0 200 200" xmlns="http://www.w3.org/2000/svg">
  <path fill="#BED7DC" d="M17,-30.5C25.5,-24.6,38.2,-27,47.1,-23.3C56.1,-19.6,61.3,-9.8,65,2.1C68.6,14,70.5,27.9,65.3,38C60,48.2,47.6,54.5,35.5,62.6C23.4,70.7,11.7,80.7,1.1,78.8C-9.5,76.9,-19,63.2,-25.6,51.8C-32.1,40.5,-35.7,31.6,-38.7,23.3C-41.7,15.1,-44.2,7.5,-50.8,-3.8C-57.4,-15.1,-68,-30.2,-67.8,-43.4C-67.6,-56.6,-56.6,-67.9,-43.6,-71C-30.5,-74.2,-15.2,-69.3,-5.5,-59.8C4.3,-50.3,8.6,-36.3,17,-30.5Z" transform="translate(100 100)" />
</svg>
