<?xml version="1.0" standalone="no"?>
<svg viewBox="0 0 200 200" xmlns="http://www.w3.org/2000/svg">
  <path fill="#BED7DC" d="M22.7,-32.3C37,-31.1,61.5,-40.4,75.7,-36.7C89.9,-33.1,93.8,-16.6,86.8,-4.1C79.7,8.4,61.7,16.8,52.9,29.8C44.1,42.7,44.5,60.3,37.2,64.5C29.9,68.8,15,59.8,4.9,51.4C-5.2,42.9,-10.5,35.1,-24.4,34.7C-38.4,34.3,-61,41.3,-72.2,36.8C-83.4,32.2,-83,16.1,-74,5.2C-65,-5.7,-47.4,-11.4,-38.7,-20.3C-30.1,-29.2,-30.4,-41.3,-25.5,-47.9C-20.5,-54.6,-10.3,-55.8,-3,-50.6C4.2,-45.3,8.4,-33.5,22.7,-32.3Z" transform="translate(100 100)" />
</svg>
