<?xml version="1.0" standalone="no"?>
<svg viewBox="0 0 200 200" xmlns="http://www.w3.org/2000/svg">
  <path fill="#BED7DC" d="M40.5,-73.2C52.2,-63.4,61.3,-52,61.7,-39.6C62.1,-27.1,53.8,-13.5,55.8,1.2C57.9,15.9,70.4,31.9,67.3,39.6C64.2,47.4,45.5,47,31.7,46C17.9,45,9,43.5,-1.5,46.1C-12,48.7,-23.9,55.4,-34.2,54.4C-44.5,53.3,-53.2,44.5,-61.3,34.1C-69.4,23.8,-77.1,11.9,-79.6,-1.5C-82.2,-14.9,-79.7,-29.7,-70.6,-38.3C-61.4,-46.9,-45.6,-49.2,-32.7,-58.3C-19.8,-67.4,-9.9,-83.4,2.2,-87.2C14.4,-91.1,28.8,-82.9,40.5,-73.2Z" transform="translate(100 100)" />
</svg>
