<svg xmlns="http://www.w3.org/2000/svg" xmlns:xlink="http://www.w3.org/1999/xlink" width="1920" zoomAndPan="magnify" viewBox="0 0 1440 809.999993" height="1080" preserveAspectRatio="xMidYMid meet" version="1.0"><defs><g/></defs><g fill="#bed7dc" fill-opacity="0.4"><g transform="translate(10.06587, 505.065873)"><g><path d="M 13.671875 -9.34375 L 13.671875 -151.6875 C 13.671875 -156.695312 15.070312 -160.414062 17.875 -162.84375 C 20.6875 -165.28125 24.21875 -166.5 28.46875 -166.5 C 34.082031 -166.5 38.410156 -165.507812 41.453125 -163.53125 C 44.492188 -161.5625 47.832031 -157.3125 51.46875 -150.78125 L 79.484375 -99.765625 L 107.5 -150.78125 C 111.144531 -157.3125 114.523438 -161.5625 117.640625 -163.53125 C 120.753906 -165.507812 125.117188 -166.5 130.734375 -166.5 C 134.984375 -166.5 138.515625 -165.28125 141.328125 -162.84375 C 144.140625 -160.414062 145.546875 -156.695312 145.546875 -151.6875 L 145.546875 -9.34375 C 145.546875 -6.457031 144.0625 -4.175781 141.09375 -2.5 C 138.132812 -0.832031 134.679688 0 130.734375 0 C 126.640625 0 123.148438 -0.832031 120.265625 -2.5 C 117.378906 -4.175781 115.9375 -6.457031 115.9375 -9.34375 L 115.9375 -107.28125 L 89.28125 -59.90625 C 87.15625 -55.957031 83.816406 -53.984375 79.265625 -53.984375 C 74.859375 -53.984375 71.59375 -55.957031 69.46875 -59.90625 L 43.28125 -109.09375 L 43.28125 -9.34375 C 43.28125 -6.457031 41.796875 -4.175781 38.828125 -2.5 C 35.867188 -0.832031 32.414062 0 28.46875 0 C 24.375 0 20.882812 -0.832031 18 -2.5 C 15.113281 -4.175781 13.671875 -6.457031 13.671875 -9.34375 Z M 13.671875 -9.34375 "/></g></g></g><g fill="#bed7dc" fill-opacity="0.4"><g transform="translate(169.269854, 505.065873)"><g><path d="M 1.359375 37.8125 C 1.359375 29.613281 3.867188 25.515625 8.890625 25.515625 C 16.023438 25.515625 23.046875 22.929688 29.953125 17.765625 C 36.859375 12.597656 40.691406 4.019531 41.453125 -7.96875 L 2.28125 -91.796875 C 1.664062 -93.304688 1.359375 -94.59375 1.359375 -95.65625 C 1.359375 -99.300781 3.597656 -102.566406 8.078125 -105.453125 C 12.566406 -108.335938 16.859375 -109.78125 20.953125 -109.78125 C 25.503906 -109.78125 28.3125 -108.109375 29.375 -104.765625 L 56.71875 -36.671875 L 78.8125 -104.765625 C 79.875 -108.109375 82.453125 -109.78125 86.546875 -109.78125 C 90.492188 -109.78125 94.820312 -108.300781 99.53125 -105.34375 C 104.238281 -102.382812 106.59375 -99.003906 106.59375 -95.203125 C 106.59375 -93.992188 106.363281 -92.859375 105.90625 -91.796875 L 72.65625 -6.828125 L 68.78125 3.1875 C 66.957031 8.351562 65.628906 11.921875 64.796875 13.890625 C 63.960938 15.867188 62.519531 18.941406 60.46875 23.109375 C 58.414062 27.285156 56.59375 30.320312 55 32.21875 C 53.40625 34.125 51.164062 36.476562 48.28125 39.28125 C 45.394531 42.09375 42.472656 44.144531 39.515625 45.4375 C 36.554688 46.726562 32.953125 47.867188 28.703125 48.859375 C 24.453125 49.847656 19.820312 50.34375 14.8125 50.34375 C 10.40625 50.34375 7.0625 49.503906 4.78125 47.828125 C 2.5 46.160156 1.359375 42.820312 1.359375 37.8125 Z M 1.359375 37.8125 "/></g></g></g><g fill="#bed7dc" fill-opacity="0.4"><g transform="translate(277.683404, 505.065873)"><g/></g></g><g fill="#e86c44" fill-opacity="1"><g transform="translate(0.00000622222, 494.999995)"><g><path d="M 13.671875 -9.34375 L 13.671875 -151.6875 C 13.671875 -156.695312 15.070312 -160.414062 17.875 -162.84375 C 20.6875 -165.28125 24.21875 -166.5 28.46875 -166.5 C 34.082031 -166.5 38.410156 -165.507812 41.453125 -163.53125 C 44.492188 -161.5625 47.832031 -157.3125 51.46875 -150.78125 L 79.484375 -99.765625 L 107.5 -150.78125 C 111.144531 -157.3125 114.523438 -161.5625 117.640625 -163.53125 C 120.753906 -165.507812 125.117188 -166.5 130.734375 -166.5 C 134.984375 -166.5 138.515625 -165.28125 141.328125 -162.84375 C 144.140625 -160.414062 145.546875 -156.695312 145.546875 -151.6875 L 145.546875 -9.34375 C 145.546875 -6.457031 144.0625 -4.175781 141.09375 -2.5 C 138.132812 -0.832031 134.679688 0 130.734375 0 C 126.640625 0 123.148438 -0.832031 120.265625 -2.5 C 117.378906 -4.175781 115.9375 -6.457031 115.9375 -9.34375 L 115.9375 -107.28125 L 89.28125 -59.90625 C 87.15625 -55.957031 83.816406 -53.984375 79.265625 -53.984375 C 74.859375 -53.984375 71.59375 -55.957031 69.46875 -59.90625 L 43.28125 -109.09375 L 43.28125 -9.34375 C 43.28125 -6.457031 41.796875 -4.175781 38.828125 -2.5 C 35.867188 -0.832031 32.414062 0 28.46875 0 C 24.375 0 20.882812 -0.832031 18 -2.5 C 15.113281 -4.175781 13.671875 -6.457031 13.671875 -9.34375 Z M 13.671875 -9.34375 "/></g></g></g><g fill="#e86c44" fill-opacity="1"><g transform="translate(159.203991, 494.999995)"><g><path d="M 1.359375 37.8125 C 1.359375 29.613281 3.867188 25.515625 8.890625 25.515625 C 16.023438 25.515625 23.046875 22.929688 29.953125 17.765625 C 36.859375 12.597656 40.691406 4.019531 41.453125 -7.96875 L 2.28125 -91.796875 C 1.664062 -93.304688 1.359375 -94.59375 1.359375 -95.65625 C 1.359375 -99.300781 3.597656 -102.566406 8.078125 -105.453125 C 12.566406 -108.335938 16.859375 -109.78125 20.953125 -109.78125 C 25.503906 -109.78125 28.3125 -108.109375 29.375 -104.765625 L 56.71875 -36.671875 L 78.8125 -104.765625 C 79.875 -108.109375 82.453125 -109.78125 86.546875 -109.78125 C 90.492188 -109.78125 94.820312 -108.300781 99.53125 -105.34375 C 104.238281 -102.382812 106.59375 -99.003906 106.59375 -95.203125 C 106.59375 -93.992188 106.363281 -92.859375 105.90625 -91.796875 L 72.65625 -6.828125 L 68.78125 3.1875 C 66.957031 8.351562 65.628906 11.921875 64.796875 13.890625 C 63.960938 15.867188 62.519531 18.941406 60.46875 23.109375 C 58.414062 27.285156 56.59375 30.320312 55 32.21875 C 53.40625 34.125 51.164062 36.476562 48.28125 39.28125 C 45.394531 42.09375 42.472656 44.144531 39.515625 45.4375 C 36.554688 46.726562 32.953125 47.867188 28.703125 48.859375 C 24.453125 49.847656 19.820312 50.34375 14.8125 50.34375 C 10.40625 50.34375 7.0625 49.503906 4.78125 47.828125 C 2.5 46.160156 1.359375 42.820312 1.359375 37.8125 Z M 1.359375 37.8125 "/></g></g></g><g fill="#bed7dc" fill-opacity="0.4"><g transform="translate(323.237729, 505.065873)"><g><path d="M 5.46875 -26.1875 C 5.46875 -29.6875 6.796875 -33.21875 9.453125 -36.78125 C 12.109375 -40.351562 15.109375 -42.140625 18.453125 -42.140625 C 20.421875 -42.140625 22.65625 -41.226562 25.15625 -39.40625 C 27.664062 -37.582031 30.097656 -35.566406 32.453125 -33.359375 C 34.804688 -31.160156 38.1875 -29.148438 42.59375 -27.328125 C 47 -25.503906 51.859375 -24.59375 57.171875 -24.59375 C 64.460938 -24.59375 70.535156 -26.265625 75.390625 -29.609375 C 80.242188 -32.953125 82.671875 -37.890625 82.671875 -44.421875 C 82.671875 -48.972656 81.34375 -53.03125 78.6875 -56.59375 C 76.03125 -60.164062 72.535156 -63.128906 68.203125 -65.484375 C 63.878906 -67.835938 59.132812 -70.113281 53.96875 -72.3125 C 48.8125 -74.519531 43.613281 -76.988281 38.375 -79.71875 C 33.132812 -82.445312 28.347656 -85.519531 24.015625 -88.9375 C 19.691406 -92.351562 16.203125 -96.910156 13.546875 -102.609375 C 10.890625 -108.304688 9.5625 -114.796875 9.5625 -122.078125 C 9.5625 -130.128906 11.191406 -137.226562 14.453125 -143.375 C 17.722656 -149.53125 22.09375 -154.316406 27.5625 -157.734375 C 33.03125 -161.148438 38.875 -163.65625 45.09375 -165.25 C 51.320312 -166.84375 57.925781 -167.640625 64.90625 -167.640625 C 68.851562 -167.640625 73.03125 -167.375 77.4375 -166.84375 C 81.84375 -166.3125 86.507812 -165.4375 91.4375 -164.21875 C 96.375 -163 100.398438 -161.097656 103.515625 -158.515625 C 106.628906 -155.941406 108.1875 -152.910156 108.1875 -149.421875 C 108.1875 -146.078125 107.125 -142.617188 105 -139.046875 C 102.875 -135.484375 99.988281 -133.703125 96.34375 -133.703125 C 94.976562 -133.703125 91.257812 -135.144531 85.1875 -138.03125 C 79.113281 -140.914062 72.351562 -142.359375 64.90625 -142.359375 C 56.707031 -142.359375 50.367188 -140.800781 45.890625 -137.6875 C 41.410156 -134.570312 39.171875 -130.28125 39.171875 -124.8125 C 39.171875 -120.40625 40.992188 -116.570312 44.640625 -113.3125 C 48.285156 -110.050781 52.800781 -107.394531 58.1875 -105.34375 C 63.582031 -103.289062 69.429688 -100.707031 75.734375 -97.59375 C 82.035156 -94.476562 87.878906 -91.097656 93.265625 -87.453125 C 98.660156 -83.816406 103.175781 -78.539062 106.8125 -71.625 C 110.457031 -64.71875 112.28125 -56.632812 112.28125 -47.375 C 112.28125 -31.582031 107.304688 -19.394531 97.359375 -10.8125 C 87.421875 -2.238281 74.328125 2.046875 58.078125 2.046875 C 43.648438 2.046875 31.273438 -0.910156 20.953125 -6.828125 C 10.628906 -12.753906 5.46875 -19.207031 5.46875 -26.1875 Z M 5.46875 -26.1875 "/></g></g></g><g fill="#bed7dc" fill-opacity="0.4"><g transform="translate(442.128241, 505.065873)"><g><path d="M 7.75 -44.640625 L 7.75 -62.859375 C 7.75 -76.828125 11.847656 -88.101562 20.046875 -96.6875 C 28.242188 -105.269531 40.539062 -109.5625 56.9375 -109.5625 C 67.257812 -109.5625 75.914062 -107.738281 82.90625 -104.09375 C 89.894531 -100.445312 93.390625 -96.347656 93.390625 -91.796875 C 93.390625 -88.597656 92.25 -85.40625 89.96875 -82.21875 C 87.6875 -79.03125 84.953125 -77.4375 81.765625 -77.4375 C 80.859375 -77.4375 78.164062 -78.5 73.6875 -80.625 C 69.207031 -82.75 64.382812 -83.8125 59.21875 -83.8125 C 44.488281 -83.8125 37.125 -76.828125 37.125 -62.859375 L 37.125 -44.640625 C 37.125 -30.671875 44.566406 -23.6875 59.453125 -23.6875 C 64.609375 -23.6875 69.390625 -24.820312 73.796875 -27.09375 C 78.203125 -29.375 81.007812 -30.515625 82.21875 -30.515625 C 85.863281 -30.515625 88.863281 -28.992188 91.21875 -25.953125 C 93.570312 -22.921875 94.75 -19.8125 94.75 -16.625 C 94.75 -11.914062 91.066406 -7.625 83.703125 -3.75 C 76.335938 0.113281 67.492188 2.046875 57.171875 2.046875 C 40.617188 2.046875 28.242188 -2.203125 20.046875 -10.703125 C 11.847656 -19.203125 7.75 -30.515625 7.75 -44.640625 Z M 7.75 -44.640625 "/></g></g></g><g fill="#bed7dc" fill-opacity="0.4"><g transform="translate(540.975916, 505.065873)"><g><path d="M 11.609375 -9.34375 L 11.609375 -162.171875 C 11.609375 -164.898438 12.9375 -167.097656 15.59375 -168.765625 C 18.257812 -170.441406 21.789062 -171.28125 26.1875 -171.28125 C 30.289062 -171.28125 33.785156 -170.441406 36.671875 -168.765625 C 39.554688 -167.097656 41 -164.898438 41 -162.171875 L 41 -92.25 C 43.28125 -97.101562 46.925781 -101.203125 51.9375 -104.546875 C 56.945312 -107.890625 62.867188 -109.5625 69.703125 -109.5625 C 80.171875 -109.5625 89.316406 -105.003906 97.140625 -95.890625 C 104.960938 -86.773438 108.875 -75.914062 108.875 -63.3125 L 108.875 -9.34375 C 108.875 -6.457031 107.390625 -4.175781 104.421875 -2.5 C 101.460938 -0.832031 98.007812 0 94.0625 0 C 90.269531 0 86.890625 -0.832031 83.921875 -2.5 C 80.960938 -4.175781 79.484375 -6.457031 79.484375 -9.34375 L 79.484375 -63.3125 C 79.484375 -68.476562 77.507812 -73.1875 73.5625 -77.4375 C 69.613281 -81.6875 64.984375 -83.8125 59.671875 -83.8125 C 54.660156 -83.8125 50.296875 -81.910156 46.578125 -78.109375 C 42.859375 -74.316406 41 -69.382812 41 -63.3125 L 41 -9.34375 C 41 -7.0625 39.515625 -4.929688 36.546875 -2.953125 C 33.585938 -0.984375 30.132812 0 26.1875 0 C 22.09375 0 18.640625 -0.945312 15.828125 -2.84375 C 13.015625 -4.738281 11.609375 -6.90625 11.609375 -9.34375 Z M 11.609375 -9.34375 "/></g></g></g><g fill="#bed7dc" fill-opacity="0.4"><g transform="translate(660.321971, 505.065873)"><g><path d="M 7.28125 -44.640625 L 7.28125 -63.3125 C 7.28125 -75.769531 12.140625 -86.59375 21.859375 -95.78125 C 31.578125 -104.96875 43.195312 -109.5625 56.71875 -109.5625 C 69.925781 -109.5625 81.460938 -105.003906 91.328125 -95.890625 C 101.203125 -86.773438 106.140625 -75.914062 106.140625 -63.3125 L 106.140625 -44.640625 C 106.140625 -32.335938 101.203125 -21.476562 91.328125 -12.0625 C 81.460938 -2.65625 69.921875 2.046875 56.703125 2.046875 C 43.492188 2.046875 31.953125 -2.65625 22.078125 -12.0625 C 12.210938 -21.476562 7.28125 -32.335938 7.28125 -44.640625 Z M 36.671875 -44.640625 C 36.671875 -39.171875 38.644531 -34.3125 42.59375 -30.0625 C 46.539062 -25.8125 51.25 -23.6875 56.71875 -23.6875 C 62.03125 -23.6875 66.695312 -25.8125 70.71875 -30.0625 C 74.738281 -34.3125 76.75 -39.171875 76.75 -44.640625 L 76.75 -63.3125 C 76.75 -68.476562 74.738281 -73.1875 70.71875 -77.4375 C 66.695312 -81.6875 62.03125 -83.8125 56.71875 -83.8125 C 51.25 -83.8125 46.539062 -81.722656 42.59375 -77.546875 C 38.644531 -73.378906 36.671875 -68.632812 36.671875 -63.3125 Z M 36.671875 -44.640625 "/></g></g></g><g fill="#bed7dc" fill-opacity="0.4"><g transform="translate(773.746282, 505.065873)"><g><path d="M 7.28125 -44.640625 L 7.28125 -63.3125 C 7.28125 -75.769531 12.140625 -86.59375 21.859375 -95.78125 C 31.578125 -104.96875 43.195312 -109.5625 56.71875 -109.5625 C 69.925781 -109.5625 81.460938 -105.003906 91.328125 -95.890625 C 101.203125 -86.773438 106.140625 -75.914062 106.140625 -63.3125 L 106.140625 -44.640625 C 106.140625 -32.335938 101.203125 -21.476562 91.328125 -12.0625 C 81.460938 -2.65625 69.921875 2.046875 56.703125 2.046875 C 43.492188 2.046875 31.953125 -2.65625 22.078125 -12.0625 C 12.210938 -21.476562 7.28125 -32.335938 7.28125 -44.640625 Z M 36.671875 -44.640625 C 36.671875 -39.171875 38.644531 -34.3125 42.59375 -30.0625 C 46.539062 -25.8125 51.25 -23.6875 56.71875 -23.6875 C 62.03125 -23.6875 66.695312 -25.8125 70.71875 -30.0625 C 74.738281 -34.3125 76.75 -39.171875 76.75 -44.640625 L 76.75 -63.3125 C 76.75 -68.476562 74.738281 -73.1875 70.71875 -77.4375 C 66.695312 -81.6875 62.03125 -83.8125 56.71875 -83.8125 C 51.25 -83.8125 46.539062 -81.722656 42.59375 -77.546875 C 38.644531 -73.378906 36.671875 -68.632812 36.671875 -63.3125 Z M 36.671875 -44.640625 "/></g></g></g><g fill="#bed7dc" fill-opacity="0.4"><g transform="translate(887.170593, 505.065873)"><g><path d="M 13.4375 -9.34375 L 13.4375 -162.171875 C 13.4375 -164.898438 14.765625 -167.097656 17.421875 -168.765625 C 20.078125 -170.441406 23.609375 -171.28125 28.015625 -171.28125 C 32.117188 -171.28125 35.609375 -170.441406 38.484375 -168.765625 C 41.367188 -167.097656 42.8125 -164.898438 42.8125 -162.171875 L 42.8125 -9.34375 C 42.8125 -7.0625 41.332031 -4.929688 38.375 -2.953125 C 35.414062 -0.984375 31.960938 0 28.015625 0 C 23.910156 0 20.453125 -0.945312 17.640625 -2.84375 C 14.835938 -4.738281 13.4375 -6.90625 13.4375 -9.34375 Z M 13.4375 -9.34375 "/></g></g></g><g fill="#bed7dc" fill-opacity="0.4"><g transform="translate(943.427182, 505.065873)"><g/></g></g><g fill="#f9d767" fill-opacity="1"><g transform="translate(313.171865, 494.999995)"><g><path d="M 5.46875 -26.1875 C 5.46875 -29.6875 6.796875 -33.21875 9.453125 -36.78125 C 12.109375 -40.351562 15.109375 -42.140625 18.453125 -42.140625 C 20.421875 -42.140625 22.65625 -41.226562 25.15625 -39.40625 C 27.664062 -37.582031 30.097656 -35.566406 32.453125 -33.359375 C 34.804688 -31.160156 38.1875 -29.148438 42.59375 -27.328125 C 47 -25.503906 51.859375 -24.59375 57.171875 -24.59375 C 64.460938 -24.59375 70.535156 -26.265625 75.390625 -29.609375 C 80.242188 -32.953125 82.671875 -37.890625 82.671875 -44.421875 C 82.671875 -48.972656 81.34375 -53.03125 78.6875 -56.59375 C 76.03125 -60.164062 72.535156 -63.128906 68.203125 -65.484375 C 63.878906 -67.835938 59.132812 -70.113281 53.96875 -72.3125 C 48.8125 -74.519531 43.613281 -76.988281 38.375 -79.71875 C 33.132812 -82.445312 28.347656 -85.519531 24.015625 -88.9375 C 19.691406 -92.351562 16.203125 -96.910156 13.546875 -102.609375 C 10.890625 -108.304688 9.5625 -114.796875 9.5625 -122.078125 C 9.5625 -130.128906 11.191406 -137.226562 14.453125 -143.375 C 17.722656 -149.53125 22.09375 -154.316406 27.5625 -157.734375 C 33.03125 -161.148438 38.875 -163.65625 45.09375 -165.25 C 51.320312 -166.84375 57.925781 -167.640625 64.90625 -167.640625 C 68.851562 -167.640625 73.03125 -167.375 77.4375 -166.84375 C 81.84375 -166.3125 86.507812 -165.4375 91.4375 -164.21875 C 96.375 -163 100.398438 -161.097656 103.515625 -158.515625 C 106.628906 -155.941406 108.1875 -152.910156 108.1875 -149.421875 C 108.1875 -146.078125 107.125 -142.617188 105 -139.046875 C 102.875 -135.484375 99.988281 -133.703125 96.34375 -133.703125 C 94.976562 -133.703125 91.257812 -135.144531 85.1875 -138.03125 C 79.113281 -140.914062 72.351562 -142.359375 64.90625 -142.359375 C 56.707031 -142.359375 50.367188 -140.800781 45.890625 -137.6875 C 41.410156 -134.570312 39.171875 -130.28125 39.171875 -124.8125 C 39.171875 -120.40625 40.992188 -116.570312 44.640625 -113.3125 C 48.285156 -110.050781 52.800781 -107.394531 58.1875 -105.34375 C 63.582031 -103.289062 69.429688 -100.707031 75.734375 -97.59375 C 82.035156 -94.476562 87.878906 -91.097656 93.265625 -87.453125 C 98.660156 -83.816406 103.175781 -78.539062 106.8125 -71.625 C 110.457031 -64.71875 112.28125 -56.632812 112.28125 -47.375 C 112.28125 -31.582031 107.304688 -19.394531 97.359375 -10.8125 C 87.421875 -2.238281 74.328125 2.046875 58.078125 2.046875 C 43.648438 2.046875 31.273438 -0.910156 20.953125 -6.828125 C 10.628906 -12.753906 5.46875 -19.207031 5.46875 -26.1875 Z M 5.46875 -26.1875 "/></g></g></g><g fill="#f9d767" fill-opacity="1"><g transform="translate(432.062378, 494.999995)"><g><path d="M 7.75 -44.640625 L 7.75 -62.859375 C 7.75 -76.828125 11.847656 -88.101562 20.046875 -96.6875 C 28.242188 -105.269531 40.539062 -109.5625 56.9375 -109.5625 C 67.257812 -109.5625 75.914062 -107.738281 82.90625 -104.09375 C 89.894531 -100.445312 93.390625 -96.347656 93.390625 -91.796875 C 93.390625 -88.597656 92.25 -85.40625 89.96875 -82.21875 C 87.6875 -79.03125 84.953125 -77.4375 81.765625 -77.4375 C 80.859375 -77.4375 78.164062 -78.5 73.6875 -80.625 C 69.207031 -82.75 64.382812 -83.8125 59.21875 -83.8125 C 44.488281 -83.8125 37.125 -76.828125 37.125 -62.859375 L 37.125 -44.640625 C 37.125 -30.671875 44.566406 -23.6875 59.453125 -23.6875 C 64.609375 -23.6875 69.390625 -24.820312 73.796875 -27.09375 C 78.203125 -29.375 81.007812 -30.515625 82.21875 -30.515625 C 85.863281 -30.515625 88.863281 -28.992188 91.21875 -25.953125 C 93.570312 -22.921875 94.75 -19.8125 94.75 -16.625 C 94.75 -11.914062 91.066406 -7.625 83.703125 -3.75 C 76.335938 0.113281 67.492188 2.046875 57.171875 2.046875 C 40.617188 2.046875 28.242188 -2.203125 20.046875 -10.703125 C 11.847656 -19.203125 7.75 -30.515625 7.75 -44.640625 Z M 7.75 -44.640625 "/></g></g></g><g fill="#f9d767" fill-opacity="1"><g transform="translate(530.910052, 494.999995)"><g><path d="M 11.609375 -9.34375 L 11.609375 -162.171875 C 11.609375 -164.898438 12.9375 -167.097656 15.59375 -168.765625 C 18.257812 -170.441406 21.789062 -171.28125 26.1875 -171.28125 C 30.289062 -171.28125 33.785156 -170.441406 36.671875 -168.765625 C 39.554688 -167.097656 41 -164.898438 41 -162.171875 L 41 -92.25 C 43.28125 -97.101562 46.925781 -101.203125 51.9375 -104.546875 C 56.945312 -107.890625 62.867188 -109.5625 69.703125 -109.5625 C 80.171875 -109.5625 89.316406 -105.003906 97.140625 -95.890625 C 104.960938 -86.773438 108.875 -75.914062 108.875 -63.3125 L 108.875 -9.34375 C 108.875 -6.457031 107.390625 -4.175781 104.421875 -2.5 C 101.460938 -0.832031 98.007812 0 94.0625 0 C 90.269531 0 86.890625 -0.832031 83.921875 -2.5 C 80.960938 -4.175781 79.484375 -6.457031 79.484375 -9.34375 L 79.484375 -63.3125 C 79.484375 -68.476562 77.507812 -73.1875 73.5625 -77.4375 C 69.613281 -81.6875 64.984375 -83.8125 59.671875 -83.8125 C 54.660156 -83.8125 50.296875 -81.910156 46.578125 -78.109375 C 42.859375 -74.316406 41 -69.382812 41 -63.3125 L 41 -9.34375 C 41 -7.0625 39.515625 -4.929688 36.546875 -2.953125 C 33.585938 -0.984375 30.132812 0 26.1875 0 C 22.09375 0 18.640625 -0.945312 15.828125 -2.84375 C 13.015625 -4.738281 11.609375 -6.90625 11.609375 -9.34375 Z M 11.609375 -9.34375 "/></g></g></g><g fill="#f9d767" fill-opacity="1"><g transform="translate(650.256108, 494.999995)"><g><path d="M 7.28125 -44.640625 L 7.28125 -63.3125 C 7.28125 -75.769531 12.140625 -86.59375 21.859375 -95.78125 C 31.578125 -104.96875 43.195312 -109.5625 56.71875 -109.5625 C 69.925781 -109.5625 81.460938 -105.003906 91.328125 -95.890625 C 101.203125 -86.773438 106.140625 -75.914062 106.140625 -63.3125 L 106.140625 -44.640625 C 106.140625 -32.335938 101.203125 -21.476562 91.328125 -12.0625 C 81.460938 -2.65625 69.921875 2.046875 56.703125 2.046875 C 43.492188 2.046875 31.953125 -2.65625 22.078125 -12.0625 C 12.210938 -21.476562 7.28125 -32.335938 7.28125 -44.640625 Z M 36.671875 -44.640625 C 36.671875 -39.171875 38.644531 -34.3125 42.59375 -30.0625 C 46.539062 -25.8125 51.25 -23.6875 56.71875 -23.6875 C 62.03125 -23.6875 66.695312 -25.8125 70.71875 -30.0625 C 74.738281 -34.3125 76.75 -39.171875 76.75 -44.640625 L 76.75 -63.3125 C 76.75 -68.476562 74.738281 -73.1875 70.71875 -77.4375 C 66.695312 -81.6875 62.03125 -83.8125 56.71875 -83.8125 C 51.25 -83.8125 46.539062 -81.722656 42.59375 -77.546875 C 38.644531 -73.378906 36.671875 -68.632812 36.671875 -63.3125 Z M 36.671875 -44.640625 "/></g></g></g><g fill="#f9d767" fill-opacity="1"><g transform="translate(763.680419, 494.999995)"><g><path d="M 7.28125 -44.640625 L 7.28125 -63.3125 C 7.28125 -75.769531 12.140625 -86.59375 21.859375 -95.78125 C 31.578125 -104.96875 43.195312 -109.5625 56.71875 -109.5625 C 69.925781 -109.5625 81.460938 -105.003906 91.328125 -95.890625 C 101.203125 -86.773438 106.140625 -75.914062 106.140625 -63.3125 L 106.140625 -44.640625 C 106.140625 -32.335938 101.203125 -21.476562 91.328125 -12.0625 C 81.460938 -2.65625 69.921875 2.046875 56.703125 2.046875 C 43.492188 2.046875 31.953125 -2.65625 22.078125 -12.0625 C 12.210938 -21.476562 7.28125 -32.335938 7.28125 -44.640625 Z M 36.671875 -44.640625 C 36.671875 -39.171875 38.644531 -34.3125 42.59375 -30.0625 C 46.539062 -25.8125 51.25 -23.6875 56.71875 -23.6875 C 62.03125 -23.6875 66.695312 -25.8125 70.71875 -30.0625 C 74.738281 -34.3125 76.75 -39.171875 76.75 -44.640625 L 76.75 -63.3125 C 76.75 -68.476562 74.738281 -73.1875 70.71875 -77.4375 C 66.695312 -81.6875 62.03125 -83.8125 56.71875 -83.8125 C 51.25 -83.8125 46.539062 -81.722656 42.59375 -77.546875 C 38.644531 -73.378906 36.671875 -68.632812 36.671875 -63.3125 Z M 36.671875 -44.640625 "/></g></g></g><g fill="#f9d767" fill-opacity="1"><g transform="translate(877.104729, 494.999995)"><g><path d="M 13.4375 -9.34375 L 13.4375 -162.171875 C 13.4375 -164.898438 14.765625 -167.097656 17.421875 -168.765625 C 20.078125 -170.441406 23.609375 -171.28125 28.015625 -171.28125 C 32.117188 -171.28125 35.609375 -170.441406 38.484375 -168.765625 C 41.367188 -167.097656 42.8125 -164.898438 42.8125 -162.171875 L 42.8125 -9.34375 C 42.8125 -7.0625 41.332031 -4.929688 38.375 -2.953125 C 35.414062 -0.984375 31.960938 0 28.015625 0 C 23.910156 0 20.453125 -0.945312 17.640625 -2.84375 C 14.835938 -4.738281 13.4375 -6.90625 13.4375 -9.34375 Z M 13.4375 -9.34375 "/></g></g></g><g fill="#bed7dc" fill-opacity="0.4"><g transform="translate(988.979883, 505.065873)"><g><path d="M 13.671875 -9.34375 L 13.671875 -151.6875 C 13.671875 -156.695312 15.070312 -160.414062 17.875 -162.84375 C 20.6875 -165.28125 24.21875 -166.5 28.46875 -166.5 C 34.082031 -166.5 38.410156 -165.507812 41.453125 -163.53125 C 44.492188 -161.5625 47.832031 -157.3125 51.46875 -150.78125 L 79.484375 -99.765625 L 107.5 -150.78125 C 111.144531 -157.3125 114.523438 -161.5625 117.640625 -163.53125 C 120.753906 -165.507812 125.117188 -166.5 130.734375 -166.5 C 134.984375 -166.5 138.515625 -165.28125 141.328125 -162.84375 C 144.140625 -160.414062 145.546875 -156.695312 145.546875 -151.6875 L 145.546875 -9.34375 C 145.546875 -6.457031 144.0625 -4.175781 141.09375 -2.5 C 138.132812 -0.832031 134.679688 0 130.734375 0 C 126.640625 0 123.148438 -0.832031 120.265625 -2.5 C 117.378906 -4.175781 115.9375 -6.457031 115.9375 -9.34375 L 115.9375 -107.28125 L 89.28125 -59.90625 C 87.15625 -55.957031 83.816406 -53.984375 79.265625 -53.984375 C 74.859375 -53.984375 71.59375 -55.957031 69.46875 -59.90625 L 43.28125 -109.09375 L 43.28125 -9.34375 C 43.28125 -6.457031 41.796875 -4.175781 38.828125 -2.5 C 35.867188 -0.832031 32.414062 0 28.46875 0 C 24.375 0 20.882812 -0.832031 18 -2.5 C 15.113281 -4.175781 13.671875 -6.457031 13.671875 -9.34375 Z M 13.671875 -9.34375 "/></g></g></g><g fill="#bed7dc" fill-opacity="0.4"><g transform="translate(1148.183868, 505.065873)"><g><path d="M 5.015625 -28.25 C 5.015625 -40.539062 9.566406 -49.191406 18.671875 -54.203125 C 27.785156 -59.210938 40.921875 -61.71875 58.078125 -61.71875 L 67.421875 -61.71875 L 67.421875 -64.6875 C 67.421875 -70.300781 65.785156 -75.195312 62.515625 -79.375 C 59.253906 -83.550781 54.207031 -85.640625 47.375 -85.640625 C 40.539062 -85.640625 34.691406 -84.460938 29.828125 -82.109375 C 24.972656 -79.753906 22.164062 -78.578125 21.40625 -78.578125 C 18.375 -78.578125 15.945312 -80.09375 14.125 -83.125 C 12.300781 -86.164062 11.390625 -89.507812 11.390625 -93.15625 C 11.390625 -97.5625 15.296875 -101.394531 23.109375 -104.65625 C 30.929688 -107.925781 39.171875 -109.5625 47.828125 -109.5625 C 64.378906 -109.5625 76.675781 -105.34375 84.71875 -96.90625 C 92.769531 -88.476562 96.796875 -77.890625 96.796875 -65.140625 L 96.796875 -9.34375 C 96.796875 -6.757812 95.425781 -4.554688 92.6875 -2.734375 C 89.957031 -0.910156 86.546875 0 82.453125 0 C 78.648438 0 75.492188 -0.910156 72.984375 -2.734375 C 70.484375 -4.554688 69.234375 -6.757812 69.234375 -9.34375 L 69.234375 -15.9375 C 58.765625 -3.945312 47.226562 2.046875 34.625 2.046875 C 25.96875 2.046875 18.867188 -0.53125 13.328125 -5.6875 C 7.785156 -10.851562 5.015625 -18.375 5.015625 -28.25 Z M 34.390625 -32.109375 C 34.390625 -28.015625 35.488281 -24.941406 37.6875 -22.890625 C 39.894531 -20.835938 42.820312 -19.8125 46.46875 -19.8125 C 51.320312 -19.8125 56.023438 -22.085938 60.578125 -26.640625 C 65.140625 -31.203125 67.421875 -36.21875 67.421875 -41.6875 L 67.421875 -46.46875 L 64 -46.46875 C 54.738281 -46.46875 47.488281 -45.515625 42.25 -43.609375 C 37.007812 -41.710938 34.390625 -37.878906 34.390625 -32.109375 Z M 34.390625 -32.109375 "/></g></g></g><g fill="#bed7dc" fill-opacity="0.4"><g transform="translate(1255.458662, 505.065873)"><g><path d="M 11.15625 -36.890625 L 11.15625 -147.359375 C 11.15625 -149.941406 12.671875 -152.101562 15.703125 -153.84375 C 18.742188 -155.59375 22.085938 -156.46875 25.734375 -156.46875 C 29.679688 -156.46875 33.132812 -155.59375 36.09375 -153.84375 C 39.0625 -152.101562 40.546875 -149.941406 40.546875 -147.359375 L 40.546875 -108.1875 L 67.421875 -108.1875 C 69.691406 -108.1875 71.507812 -107.125 72.875 -105 C 74.25 -102.875 74.9375 -100.367188 74.9375 -97.484375 C 74.9375 -94.597656 74.25 -92.09375 72.875 -89.96875 C 71.507812 -87.84375 69.691406 -86.78125 67.421875 -86.78125 L 40.546875 -86.78125 L 40.546875 -36.890625 C 40.546875 -32.492188 41.492188 -29.382812 43.390625 -27.5625 C 45.285156 -25.738281 48.585938 -24.828125 53.296875 -24.828125 L 62.1875 -24.828125 C 66.132812 -24.828125 69.207031 -23.609375 71.40625 -21.171875 C 73.601562 -18.742188 74.703125 -15.863281 74.703125 -12.53125 C 74.703125 -9.03125 73.601562 -6.066406 71.40625 -3.640625 C 69.207031 -1.210938 66.132812 0 62.1875 0 L 53.296875 0 C 25.203125 0 11.15625 -12.296875 11.15625 -36.890625 Z M 11.15625 -36.890625 "/></g></g></g><g fill="#bed7dc" fill-opacity="0.4"><g transform="translate(1334.491235, 505.065873)"><g><path d="M 7.28125 -44.640625 L 7.28125 -64 C 7.28125 -76.445312 12.140625 -87.148438 21.859375 -96.109375 C 31.578125 -105.078125 43.347656 -109.5625 57.171875 -109.5625 C 70.078125 -109.5625 81.125 -105.5 90.3125 -97.375 C 99.5 -89.25 104.09375 -79.035156 104.09375 -66.734375 C 104.09375 -62.179688 103.519531 -58.421875 102.375 -55.453125 C 101.238281 -52.492188 99.492188 -50.40625 97.140625 -49.1875 C 94.785156 -47.976562 92.617188 -47.222656 90.640625 -46.921875 C 88.671875 -46.617188 86.09375 -46.46875 82.90625 -46.46875 L 36.671875 -46.46875 L 36.671875 -43.046875 C 36.671875 -36.515625 39.097656 -31.238281 43.953125 -27.21875 C 48.816406 -23.195312 55.269531 -21.1875 63.3125 -21.1875 C 69.082031 -21.1875 74.773438 -22.628906 80.390625 -25.515625 C 86.015625 -28.398438 89.660156 -29.84375 91.328125 -29.84375 C 94.515625 -29.84375 97.171875 -28.359375 99.296875 -25.390625 C 101.429688 -22.429688 102.5 -19.585938 102.5 -16.859375 C 102.5 -12.609375 98.660156 -8.394531 90.984375 -4.21875 C 83.316406 -0.0390625 73.789062 2.046875 62.40625 2.046875 C 46.15625 2.046875 32.90625 -2.238281 22.65625 -10.8125 C 12.40625 -19.394531 7.28125 -30.671875 7.28125 -44.640625 Z M 36.671875 -63.78125 L 69.921875 -63.78125 C 72.347656 -63.78125 74.054688 -64.195312 75.046875 -65.03125 C 76.035156 -65.863281 76.53125 -67.492188 76.53125 -69.921875 C 76.53125 -75.234375 74.59375 -79.5625 70.71875 -82.90625 C 66.84375 -86.25 62.097656 -87.921875 56.484375 -87.921875 C 51.171875 -87.921875 46.539062 -86.285156 42.59375 -83.015625 C 38.644531 -79.753906 36.671875 -75.46875 36.671875 -70.15625 Z M 36.671875 -63.78125 "/></g></g></g><g fill="#058f84" fill-opacity="1"><g transform="translate(978.914019, 494.999995)"><g><path d="M 13.671875 -9.34375 L 13.671875 -151.6875 C 13.671875 -156.695312 15.070312 -160.414062 17.875 -162.84375 C 20.6875 -165.28125 24.21875 -166.5 28.46875 -166.5 C 34.082031 -166.5 38.410156 -165.507812 41.453125 -163.53125 C 44.492188 -161.5625 47.832031 -157.3125 51.46875 -150.78125 L 79.484375 -99.765625 L 107.5 -150.78125 C 111.144531 -157.3125 114.523438 -161.5625 117.640625 -163.53125 C 120.753906 -165.507812 125.117188 -166.5 130.734375 -166.5 C 134.984375 -166.5 138.515625 -165.28125 141.328125 -162.84375 C 144.140625 -160.414062 145.546875 -156.695312 145.546875 -151.6875 L 145.546875 -9.34375 C 145.546875 -6.457031 144.0625 -4.175781 141.09375 -2.5 C 138.132812 -0.832031 134.679688 0 130.734375 0 C 126.640625 0 123.148438 -0.832031 120.265625 -2.5 C 117.378906 -4.175781 115.9375 -6.457031 115.9375 -9.34375 L 115.9375 -107.28125 L 89.28125 -59.90625 C 87.15625 -55.957031 83.816406 -53.984375 79.265625 -53.984375 C 74.859375 -53.984375 71.59375 -55.957031 69.46875 -59.90625 L 43.28125 -109.09375 L 43.28125 -9.34375 C 43.28125 -6.457031 41.796875 -4.175781 38.828125 -2.5 C 35.867188 -0.832031 32.414062 0 28.46875 0 C 24.375 0 20.882812 -0.832031 18 -2.5 C 15.113281 -4.175781 13.671875 -6.457031 13.671875 -9.34375 Z M 13.671875 -9.34375 "/></g></g></g><g fill="#058f84" fill-opacity="1"><g transform="translate(1138.118004, 494.999995)"><g><path d="M 5.015625 -28.25 C 5.015625 -40.539062 9.566406 -49.191406 18.671875 -54.203125 C 27.785156 -59.210938 40.921875 -61.71875 58.078125 -61.71875 L 67.421875 -61.71875 L 67.421875 -64.6875 C 67.421875 -70.300781 65.785156 -75.195312 62.515625 -79.375 C 59.253906 -83.550781 54.207031 -85.640625 47.375 -85.640625 C 40.539062 -85.640625 34.691406 -84.460938 29.828125 -82.109375 C 24.972656 -79.753906 22.164062 -78.578125 21.40625 -78.578125 C 18.375 -78.578125 15.945312 -80.09375 14.125 -83.125 C 12.300781 -86.164062 11.390625 -89.507812 11.390625 -93.15625 C 11.390625 -97.5625 15.296875 -101.394531 23.109375 -104.65625 C 30.929688 -107.925781 39.171875 -109.5625 47.828125 -109.5625 C 64.378906 -109.5625 76.675781 -105.34375 84.71875 -96.90625 C 92.769531 -88.476562 96.796875 -77.890625 96.796875 -65.140625 L 96.796875 -9.34375 C 96.796875 -6.757812 95.425781 -4.554688 92.6875 -2.734375 C 89.957031 -0.910156 86.546875 0 82.453125 0 C 78.648438 0 75.492188 -0.910156 72.984375 -2.734375 C 70.484375 -4.554688 69.234375 -6.757812 69.234375 -9.34375 L 69.234375 -15.9375 C 58.765625 -3.945312 47.226562 2.046875 34.625 2.046875 C 25.96875 2.046875 18.867188 -0.53125 13.328125 -5.6875 C 7.785156 -10.851562 5.015625 -18.375 5.015625 -28.25 Z M 34.390625 -32.109375 C 34.390625 -28.015625 35.488281 -24.941406 37.6875 -22.890625 C 39.894531 -20.835938 42.820312 -19.8125 46.46875 -19.8125 C 51.320312 -19.8125 56.023438 -22.085938 60.578125 -26.640625 C 65.140625 -31.203125 67.421875 -36.21875 67.421875 -41.6875 L 67.421875 -46.46875 L 64 -46.46875 C 54.738281 -46.46875 47.488281 -45.515625 42.25 -43.609375 C 37.007812 -41.710938 34.390625 -37.878906 34.390625 -32.109375 Z M 34.390625 -32.109375 "/></g></g></g><g fill="#058f84" fill-opacity="1"><g transform="translate(1245.392798, 494.999995)"><g><path d="M 11.15625 -36.890625 L 11.15625 -147.359375 C 11.15625 -149.941406 12.671875 -152.101562 15.703125 -153.84375 C 18.742188 -155.59375 22.085938 -156.46875 25.734375 -156.46875 C 29.679688 -156.46875 33.132812 -155.59375 36.09375 -153.84375 C 39.0625 -152.101562 40.546875 -149.941406 40.546875 -147.359375 L 40.546875 -108.1875 L 67.421875 -108.1875 C 69.691406 -108.1875 71.507812 -107.125 72.875 -105 C 74.25 -102.875 74.9375 -100.367188 74.9375 -97.484375 C 74.9375 -94.597656 74.25 -92.09375 72.875 -89.96875 C 71.507812 -87.84375 69.691406 -86.78125 67.421875 -86.78125 L 40.546875 -86.78125 L 40.546875 -36.890625 C 40.546875 -32.492188 41.492188 -29.382812 43.390625 -27.5625 C 45.285156 -25.738281 48.585938 -24.828125 53.296875 -24.828125 L 62.1875 -24.828125 C 66.132812 -24.828125 69.207031 -23.609375 71.40625 -21.171875 C 73.601562 -18.742188 74.703125 -15.863281 74.703125 -12.53125 C 74.703125 -9.03125 73.601562 -6.066406 71.40625 -3.640625 C 69.207031 -1.210938 66.132812 0 62.1875 0 L 53.296875 0 C 25.203125 0 11.15625 -12.296875 11.15625 -36.890625 Z M 11.15625 -36.890625 "/></g></g></g><g fill="#058f84" fill-opacity="1"><g transform="translate(1324.425372, 494.999995)"><g><path d="M 7.28125 -44.640625 L 7.28125 -64 C 7.28125 -76.445312 12.140625 -87.148438 21.859375 -96.109375 C 31.578125 -105.078125 43.347656 -109.5625 57.171875 -109.5625 C 70.078125 -109.5625 81.125 -105.5 90.3125 -97.375 C 99.5 -89.25 104.09375 -79.035156 104.09375 -66.734375 C 104.09375 -62.179688 103.519531 -58.421875 102.375 -55.453125 C 101.238281 -52.492188 99.492188 -50.40625 97.140625 -49.1875 C 94.785156 -47.976562 92.617188 -47.222656 90.640625 -46.921875 C 88.671875 -46.617188 86.09375 -46.46875 82.90625 -46.46875 L 36.671875 -46.46875 L 36.671875 -43.046875 C 36.671875 -36.515625 39.097656 -31.238281 43.953125 -27.21875 C 48.816406 -23.195312 55.269531 -21.1875 63.3125 -21.1875 C 69.082031 -21.1875 74.773438 -22.628906 80.390625 -25.515625 C 86.015625 -28.398438 89.660156 -29.84375 91.328125 -29.84375 C 94.515625 -29.84375 97.171875 -28.359375 99.296875 -25.390625 C 101.429688 -22.429688 102.5 -19.585938 102.5 -16.859375 C 102.5 -12.609375 98.660156 -8.394531 90.984375 -4.21875 C 83.316406 -0.0390625 73.789062 2.046875 62.40625 2.046875 C 46.15625 2.046875 32.90625 -2.238281 22.65625 -10.8125 C 12.40625 -19.394531 7.28125 -30.671875 7.28125 -44.640625 Z M 36.671875 -63.78125 L 69.921875 -63.78125 C 72.347656 -63.78125 74.054688 -64.195312 75.046875 -65.03125 C 76.035156 -65.863281 76.53125 -67.492188 76.53125 -69.921875 C 76.53125 -75.234375 74.59375 -79.5625 70.71875 -82.90625 C 66.84375 -86.25 62.097656 -87.921875 56.484375 -87.921875 C 51.171875 -87.921875 46.539062 -86.285156 42.59375 -83.015625 C 38.644531 -79.753906 36.671875 -75.46875 36.671875 -70.15625 Z M 36.671875 -63.78125 "/></g></g></g></svg>