<svg xmlns="http://www.w3.org/2000/svg" xmlns:xlink="http://www.w3.org/1999/xlink" width="500" zoomAndPan="magnify" viewBox="0 0 375 374.999991" height="500" preserveAspectRatio="xMidYMid meet" version="1.0"><defs><filter x="0%" y="0%" width="100%" height="100%" id="7332a790bc"><feColorMatrix values="0 0 0 0 1 0 0 0 0 1 0 0 0 0 1 0 0 0 1 0" color-interpolation-filters="sRGB"/></filter><g/><mask id="2482bccff1"><g filter="url(#7332a790bc)"><rect x="-37.5" width="450" fill="#000000" y="-37.499999" height="449.999989" fill-opacity="0.4"/></g></mask><clipPath id="af768a5ab2"><path d="M 26 41 L 281 41 L 281 280 L 26 280 Z M 26 41 " clip-rule="nonzero"/></clipPath><clipPath id="4deb6c7551"><path d="M 61.886719 -0.144531 L 306.921875 61.835938 L 244.757812 307.59375 L -0.273438 245.617188 Z M 61.886719 -0.144531 " clip-rule="nonzero"/></clipPath><clipPath id="8c5206f056"><path d="M 307.179688 61.902344 L 62.148438 -0.078125 L -0.015625 245.683594 L 245.019531 307.660156 Z M 307.179688 61.902344 " clip-rule="nonzero"/></clipPath><clipPath id="79148ac03f"><path d="M 83 255 L 109 255 L 109 271 L 83 271 Z M 83 255 " clip-rule="nonzero"/></clipPath><clipPath id="4a078168d7"><path d="M 61.886719 -0.144531 L 306.921875 61.835938 L 244.757812 307.59375 L -0.273438 245.617188 Z M 61.886719 -0.144531 " clip-rule="nonzero"/></clipPath><clipPath id="536ab19593"><path d="M 307.179688 61.902344 L 62.148438 -0.078125 L -0.015625 245.683594 L 245.019531 307.660156 Z M 307.179688 61.902344 " clip-rule="nonzero"/></clipPath><clipPath id="b278f5b906"><path d="M 129 276 L 154 276 L 154 283 L 129 283 Z M 129 276 " clip-rule="nonzero"/></clipPath><clipPath id="2282450d23"><path d="M 61.886719 -0.144531 L 306.921875 61.835938 L 244.757812 307.59375 L -0.273438 245.617188 Z M 61.886719 -0.144531 " clip-rule="nonzero"/></clipPath><clipPath id="a4ebab5a3e"><path d="M 307.179688 61.902344 L 62.148438 -0.078125 L -0.015625 245.683594 L 245.019531 307.660156 Z M 307.179688 61.902344 " clip-rule="nonzero"/></clipPath><clipPath id="9f888b76a9"><path d="M 158 280 L 161 280 L 161 283 L 158 283 Z M 158 280 " clip-rule="nonzero"/></clipPath><clipPath id="6a24874c17"><path d="M 61.886719 -0.144531 L 306.921875 61.835938 L 244.757812 307.59375 L -0.273438 245.617188 Z M 61.886719 -0.144531 " clip-rule="nonzero"/></clipPath><clipPath id="6e974944fb"><path d="M 307.179688 61.902344 L 62.148438 -0.078125 L -0.015625 245.683594 L 245.019531 307.660156 Z M 307.179688 61.902344 " clip-rule="nonzero"/></clipPath><clipPath id="1f82c290c5"><path d="M 179 31 L 189 31 L 189 34 L 179 34 Z M 179 31 " clip-rule="nonzero"/></clipPath><clipPath id="7472b60442"><path d="M 61.886719 -0.144531 L 306.921875 61.835938 L 244.757812 307.59375 L -0.273438 245.617188 Z M 61.886719 -0.144531 " clip-rule="nonzero"/></clipPath><clipPath id="66280a72f9"><path d="M 307.179688 61.902344 L 62.148438 -0.078125 L -0.015625 245.683594 L 245.019531 307.660156 Z M 307.179688 61.902344 " clip-rule="nonzero"/></clipPath><clipPath id="1d284d5863"><path d="M 193 35 L 205 35 L 205 41 L 193 41 Z M 193 35 " clip-rule="nonzero"/></clipPath><clipPath id="735a50449e"><path d="M 61.886719 -0.144531 L 306.921875 61.835938 L 244.757812 307.59375 L -0.273438 245.617188 Z M 61.886719 -0.144531 " clip-rule="nonzero"/></clipPath><clipPath id="0a7cfa4fb2"><path d="M 307.179688 61.902344 L 62.148438 -0.078125 L -0.015625 245.683594 L 245.019531 307.660156 Z M 307.179688 61.902344 " clip-rule="nonzero"/></clipPath><clipPath id="74a04c5ce0"><path d="M 266 102 L 269 102 L 269 105 L 266 105 Z M 266 102 " clip-rule="nonzero"/></clipPath><clipPath id="0995e3180a"><path d="M 61.886719 -0.144531 L 306.921875 61.835938 L 244.757812 307.59375 L -0.273438 245.617188 Z M 61.886719 -0.144531 " clip-rule="nonzero"/></clipPath><clipPath id="58f2f4e07e"><path d="M 307.179688 61.902344 L 62.148438 -0.078125 L -0.015625 245.683594 L 245.019531 307.660156 Z M 307.179688 61.902344 " clip-rule="nonzero"/></clipPath><clipPath id="fdde2775ea"><path d="M 186 238 L 230 238 L 230 260 L 186 260 Z M 186 238 " clip-rule="nonzero"/></clipPath><clipPath id="5643519a30"><path d="M 61.886719 -0.144531 L 306.921875 61.835938 L 244.757812 307.59375 L -0.273438 245.617188 Z M 61.886719 -0.144531 " clip-rule="nonzero"/></clipPath><clipPath id="580088b7e8"><path d="M 307.179688 61.902344 L 62.148438 -0.078125 L -0.015625 245.683594 L 245.019531 307.660156 Z M 307.179688 61.902344 " clip-rule="nonzero"/></clipPath><clipPath id="189c55d2e3"><rect x="0" width="308" y="0" height="308"/></clipPath><mask id="e68e48e4d9"><g filter="url(#7332a790bc)"><rect x="-37.5" width="450" fill="#000000" y="-37.499999" height="449.999989" fill-opacity="0.4"/></g></mask><clipPath id="2d6d8a1302"><path d="M 16 19 L 237 19 L 237 240 L 16 240 Z M 16 19 " clip-rule="nonzero"/></clipPath><clipPath id="138ac3586c"><path d="M -0.0703125 222.007812 L 32.613281 -0.605469 L 255.226562 32.082031 L 222.539062 254.695312 Z M -0.0703125 222.007812 " clip-rule="nonzero"/></clipPath><clipPath id="66a0287bd9"><path d="M -0.0703125 222.007812 L 32.613281 -0.605469 L 255.226562 32.082031 L 222.539062 254.695312 Z M -0.0703125 222.007812 " clip-rule="nonzero"/></clipPath><clipPath id="c3ea6cc68b"><path d="M 235 104 L 239 104 L 239 130 L 235 130 Z M 235 104 " clip-rule="nonzero"/></clipPath><clipPath id="9e6ebb85a6"><path d="M -0.0703125 222.007812 L 32.613281 -0.605469 L 255.226562 32.082031 L 222.539062 254.695312 Z M -0.0703125 222.007812 " clip-rule="nonzero"/></clipPath><clipPath id="fce2083fb5"><path d="M -0.0703125 222.007812 L 32.613281 -0.605469 L 255.226562 32.082031 L 222.539062 254.695312 Z M -0.0703125 222.007812 " clip-rule="nonzero"/></clipPath><clipPath id="5f9eb598ab"><path d="M 232 149 L 237 149 L 237 172 L 232 172 Z M 232 149 " clip-rule="nonzero"/></clipPath><clipPath id="44646a8aef"><path d="M -0.0703125 222.007812 L 32.613281 -0.605469 L 255.226562 32.082031 L 222.539062 254.695312 Z M -0.0703125 222.007812 " clip-rule="nonzero"/></clipPath><clipPath id="2215b894e1"><path d="M -0.0703125 222.007812 L 32.613281 -0.605469 L 255.226562 32.082031 L 222.539062 254.695312 Z M -0.0703125 222.007812 " clip-rule="nonzero"/></clipPath><clipPath id="533d7eceaf"><path d="M 230 174 L 231 174 L 231 177 L 230 177 Z M 230 174 " clip-rule="nonzero"/></clipPath><clipPath id="97206213d2"><path d="M -0.0703125 222.007812 L 32.613281 -0.605469 L 255.226562 32.082031 L 222.539062 254.695312 Z M -0.0703125 222.007812 " clip-rule="nonzero"/></clipPath><clipPath id="d6432cbb7a"><path d="M -0.0703125 222.007812 L 32.613281 -0.605469 L 255.226562 32.082031 L 222.539062 254.695312 Z M -0.0703125 222.007812 " clip-rule="nonzero"/></clipPath><clipPath id="57a5b85ef1"><path d="M 16 106 L 19 106 L 19 116 L 16 116 Z M 16 106 " clip-rule="nonzero"/></clipPath><clipPath id="6a3896d18e"><path d="M -0.0703125 222.007812 L 32.613281 -0.605469 L 255.226562 32.082031 L 222.539062 254.695312 Z M -0.0703125 222.007812 " clip-rule="nonzero"/></clipPath><clipPath id="9215a7a93c"><path d="M -0.0703125 222.007812 L 32.613281 -0.605469 L 255.226562 32.082031 L 222.539062 254.695312 Z M -0.0703125 222.007812 " clip-rule="nonzero"/></clipPath><clipPath id="f45fb2972c"><path d="M 16 119 L 18 119 L 18 131 L 16 131 Z M 16 119 " clip-rule="nonzero"/></clipPath><clipPath id="a282df2037"><path d="M -0.0703125 222.007812 L 32.613281 -0.605469 L 255.226562 32.082031 L 222.539062 254.695312 Z M -0.0703125 222.007812 " clip-rule="nonzero"/></clipPath><clipPath id="cad62156fb"><path d="M -0.0703125 222.007812 L 32.613281 -0.605469 L 255.226562 32.082031 L 222.539062 254.695312 Z M -0.0703125 222.007812 " clip-rule="nonzero"/></clipPath><clipPath id="38913631d2"><path d="M 46 202 L 49 202 L 49 205 L 46 205 Z M 46 202 " clip-rule="nonzero"/></clipPath><clipPath id="2fa4e1ba04"><path d="M -0.0703125 222.007812 L 32.613281 -0.605469 L 255.226562 32.082031 L 222.539062 254.695312 Z M -0.0703125 222.007812 " clip-rule="nonzero"/></clipPath><clipPath id="418e2995d8"><path d="M -0.0703125 222.007812 L 32.613281 -0.605469 L 255.226562 32.082031 L 222.539062 254.695312 Z M -0.0703125 222.007812 " clip-rule="nonzero"/></clipPath><clipPath id="ba185d215b"><path d="M 171 190 L 203 190 L 203 219 L 171 219 Z M 171 190 " clip-rule="nonzero"/></clipPath><clipPath id="799d00e016"><path d="M -0.0703125 222.007812 L 32.613281 -0.605469 L 255.226562 32.082031 L 222.539062 254.695312 Z M -0.0703125 222.007812 " clip-rule="nonzero"/></clipPath><clipPath id="da1582102c"><path d="M -0.0703125 222.007812 L 32.613281 -0.605469 L 255.226562 32.082031 L 222.539062 254.695312 Z M -0.0703125 222.007812 " clip-rule="nonzero"/></clipPath><clipPath id="bf467ee37a"><rect x="0" width="256" y="0" height="255"/></clipPath><mask id="a8c7e2aad3"><g filter="url(#7332a790bc)"><rect x="-37.5" width="450" fill="#000000" y="-37.499999" height="449.999989" fill-opacity="0.4"/></g></mask><clipPath id="697266fc61"><path d="M 23 25 L 331 25 L 331 317 L 23 317 Z M 23 25 " clip-rule="nonzero"/></clipPath><clipPath id="2133182cd4"><path d="M 301.207031 352.5 L 0.277344 301.308594 L 51.472656 0.382812 L 352.398438 51.574219 Z M 301.207031 352.5 " clip-rule="nonzero"/></clipPath><clipPath id="930abf7127"><path d="M 0.535156 301.351562 L 301.460938 352.542969 L 352.652344 51.617188 L 51.726562 0.425781 Z M 0.535156 301.351562 " clip-rule="nonzero"/></clipPath><clipPath id="e2adeb5ae9"><path d="M 219 32 L 251 32 L 251 47 L 219 47 Z M 219 32 " clip-rule="nonzero"/></clipPath><clipPath id="e9dcb29f8e"><path d="M 301.207031 352.5 L 0.277344 301.308594 L 51.472656 0.382812 L 352.398438 51.574219 Z M 301.207031 352.5 " clip-rule="nonzero"/></clipPath><clipPath id="122c1e35c0"><path d="M 0.535156 301.351562 L 301.460938 352.542969 L 352.652344 51.617188 L 51.726562 0.425781 Z M 0.535156 301.351562 " clip-rule="nonzero"/></clipPath><clipPath id="040b5d318c"><path d="M 164 20 L 195 20 L 195 28 L 164 28 Z M 164 20 " clip-rule="nonzero"/></clipPath><clipPath id="8b78db646a"><path d="M 301.207031 352.5 L 0.277344 301.308594 L 51.472656 0.382812 L 352.398438 51.574219 Z M 301.207031 352.5 " clip-rule="nonzero"/></clipPath><clipPath id="5428146bab"><path d="M 0.535156 301.351562 L 301.460938 352.542969 L 352.652344 51.617188 L 51.726562 0.425781 Z M 0.535156 301.351562 " clip-rule="nonzero"/></clipPath><clipPath id="b4a40dac92"><path d="M 155 22 L 159 22 L 159 24 L 155 24 Z M 155 22 " clip-rule="nonzero"/></clipPath><clipPath id="536766ba03"><path d="M 301.207031 352.5 L 0.277344 301.308594 L 51.472656 0.382812 L 352.398438 51.574219 Z M 301.207031 352.5 " clip-rule="nonzero"/></clipPath><clipPath id="5d86d68483"><path d="M 0.535156 301.351562 L 301.460938 352.542969 L 352.652344 51.617188 L 51.726562 0.425781 Z M 0.535156 301.351562 " clip-rule="nonzero"/></clipPath><clipPath id="2cf68b6d09"><path d="M 145 323 L 158 323 L 158 327 L 145 327 Z M 145 323 " clip-rule="nonzero"/></clipPath><clipPath id="a6656fb978"><path d="M 301.207031 352.5 L 0.277344 301.308594 L 51.472656 0.382812 L 352.398438 51.574219 Z M 301.207031 352.5 " clip-rule="nonzero"/></clipPath><clipPath id="dc23c76310"><path d="M 0.535156 301.351562 L 301.460938 352.542969 L 352.652344 51.617188 L 51.726562 0.425781 Z M 0.535156 301.351562 " clip-rule="nonzero"/></clipPath><clipPath id="55e7a9c835"><path d="M 126 317 L 141 317 L 141 322 L 126 322 Z M 126 317 " clip-rule="nonzero"/></clipPath><clipPath id="b2c128dca5"><path d="M 301.207031 352.5 L 0.277344 301.308594 L 51.472656 0.382812 L 352.398438 51.574219 Z M 301.207031 352.5 " clip-rule="nonzero"/></clipPath><clipPath id="76de13ebaf"><path d="M 0.535156 301.351562 L 301.460938 352.542969 L 352.652344 51.617188 L 51.726562 0.425781 Z M 0.535156 301.351562 " clip-rule="nonzero"/></clipPath><clipPath id="4d9bc14215"><path d="M 43 246 L 46 246 L 46 250 L 43 250 Z M 43 246 " clip-rule="nonzero"/></clipPath><clipPath id="13b542ac15"><path d="M 301.207031 352.5 L 0.277344 301.308594 L 51.472656 0.382812 L 352.398438 51.574219 Z M 301.207031 352.5 " clip-rule="nonzero"/></clipPath><clipPath id="4bbcaca3d4"><path d="M 0.535156 301.351562 L 301.460938 352.542969 L 352.652344 51.617188 L 51.726562 0.425781 Z M 0.535156 301.351562 " clip-rule="nonzero"/></clipPath><clipPath id="9f862fbecd"><path d="M 76 52 L 127 52 L 127 82 L 76 82 Z M 76 52 " clip-rule="nonzero"/></clipPath><clipPath id="de01c30d08"><path d="M 301.207031 352.5 L 0.277344 301.308594 L 51.472656 0.382812 L 352.398438 51.574219 Z M 301.207031 352.5 " clip-rule="nonzero"/></clipPath><clipPath id="47beec4f04"><path d="M 0.535156 301.351562 L 301.460938 352.542969 L 352.652344 51.617188 L 51.726562 0.425781 Z M 0.535156 301.351562 " clip-rule="nonzero"/></clipPath><clipPath id="668f0025e2"><rect x="0" width="348" y="0" height="352"/></clipPath></defs><g mask="url(#2482bccff1)"><g transform="matrix(1, 0, 0, 1, 50, 50)"><g clip-path="url(#189c55d2e3)"><g clip-path="url(#af768a5ab2)"><g clip-path="url(#4deb6c7551)"><g clip-path="url(#8c5206f056)"><path fill="#e86c44" d="M 28.3125 161.992188 C 28.070312 158.863281 26.71875 154.246094 26.324219 149.878906 C 26 145.53125 26.074219 141.429688 27.492188 139.722656 C 29.277344 137.59375 30.238281 141.445312 31.359375 141.589844 C 32.394531 141.746094 35.503906 141.0625 38.667969 140.769531 C 41.835938 140.476562 45.0625 140.535156 46.394531 141.785156 C 47.28125 142.621094 47.773438 145.027344 48.003906 148.292969 C 48.167969 149.933594 48.070312 151.78125 48.277344 153.796875 C 48.480469 155.816406 48.679688 157.960938 48.835938 160.191406 L 49.0625 163.570312 C 49.191406 164.703125 49.425781 165.835938 49.597656 166.972656 C 49.960938 169.234375 50.316406 171.492188 50.664062 173.667969 C 51.632812 177.964844 52.820312 181.871094 53.726562 184.816406 C 57.566406 194.496094 62.253906 203.75 67.78125 212.578125 C 73.398438 220.796875 79.714844 228.6875 88.320312 236.28125 C 100.277344 246.402344 113.132812 252.34375 126.726562 256.410156 C 140.445312 260.359375 155.023438 262.730469 173.207031 262.894531 C 184.070312 262.527344 194.554688 260.339844 204.65625 256.328125 C 215.878906 251.902344 226.972656 244.722656 236.429688 235.914062 C 245.886719 227.105469 253.609375 216.605469 259.175781 206.210938 C 260.496094 203.566406 261.785156 200.984375 263.035156 198.480469 C 264.046875 195.859375 265.023438 193.328125 265.96875 190.886719 C 267.039062 188.46875 267.691406 186.035156 268.359375 183.71875 C 269.070312 181.398438 269.738281 179.195312 270.371094 177.121094 C 269.933594 178.339844 272.144531 178.105469 270.371094 177.121094 C 271.972656 166.988281 272.910156 154.953125 271.519531 142.175781 C 270.128906 129.394531 266.292969 116.136719 260.5625 103.855469 C 254.832031 91.574219 247.144531 80.34375 238.96875 70.984375 L 232.742188 64.339844 C 230.675781 62.210938 228.46875 60.398438 226.457031 58.472656 L 223.457031 55.667969 C 222.441406 54.800781 221.398438 54.027344 220.40625 53.21875 C 218.402344 51.621094 216.503906 50.0625 214.714844 48.542969 C 218.90625 52.132812 216.714844 50.121094 213.519531 47.328125 C 210.183594 44.820312 205.707031 41.46875 206.386719 41.5 C 208.125 41.578125 209.945312 42.132812 211.769531 42.964844 C 213.707031 43.8125 215.480469 44.921875 217.09375 46.285156 L 226.308594 54.113281 L 232.648438 59.371094 L 234.203125 60.683594 L 235.636719 62.140625 L 238.484375 65.03125 C 242.402344 68.726562 245.644531 72.984375 249.023438 76.980469 C 255.378906 85.328125 261.179688 93.726562 266.363281 102.457031 C 263.652344 103.609375 267.585938 106.324219 267.640625 108.121094 C 264.386719 110.976562 271.164062 113.085938 267.640625 108.121094 C 268.777344 109.171875 269.957031 111.335938 271.234375 113.96875 C 271.867188 115.285156 272.5 116.738281 273.125 118.234375 C 273.75 119.730469 274.109375 121.375 274.582031 122.941406 C 275.402344 126.128906 276.378906 129.179688 276.695312 131.722656 L 277.4375 136.878906 C 277.65625 138.410156 278.332031 140.402344 278.828125 142.75 C 279.257812 145.101562 279.757812 147.769531 280.160156 150.527344 C 280.671875 153.28125 280.640625 156.144531 280.371094 158.835938 C 280.105469 161.527344 279.632812 164.039062 278.679688 166.082031 C 278.847656 165.804688 278.976562 163.042969 279.125 158.898438 C 279.121094 156.824219 279.429688 154.394531 279.113281 151.78125 C 278.90625 149.160156 278.65625 146.335938 278.414062 143.441406 C 276.859375 131.925781 273.105469 119.667969 270.457031 115.453125 C 269.5625 113.847656 269.746094 114.921875 270.519531 117.492188 L 271.207031 119.691406 C 271.402344 120.53125 271.613281 121.445312 271.84375 122.421875 C 272.316406 124.359375 272.851562 126.546875 273.402344 128.828125 C 274.074219 131.070312 274.269531 133.53125 274.675781 135.875 C 275.027344 138.230469 275.425781 140.523438 275.695312 142.617188 L 276.257812 151.605469 C 276.433594 153.203125 275.832031 156.125 275.296875 158.917969 C 274.765625 161.710938 274.378906 164.425781 274.660156 165.789062 C 274.691406 166.019531 277.066406 168.195312 277.066406 168.195312 C 276.800781 169.59375 275.800781 170.921875 274.820312 172.664062 C 274.277344 173.625 273.828125 174.625 273.480469 175.671875 C 273.089844 176.996094 272.769531 178.34375 272.519531 179.703125 C 271.933594 183.605469 272.867188 183.261719 273.949219 181.605469 C 275.03125 179.945312 276.277344 176.988281 276.027344 175.894531 C 276.398438 177.847656 276.199219 179.867188 275.992188 182.027344 C 275.789062 184.183594 275.414062 186.445312 274.949219 188.785156 C 274.484375 191.125 273.507812 193.429688 272.671875 195.84375 C 272.214844 197.035156 271.75 198.246094 271.28125 199.472656 L 270.527344 201.308594 L 269.589844 203.097656 C 264.929688 212.824219 257.808594 221.921875 251.1875 230.351562 C 243.78125 239.085938 235.421875 246.785156 226.109375 253.453125 C 216.785156 259.886719 206.964844 264.777344 197.824219 268.535156 C 178.984375 275.777344 159.648438 276.542969 142.003906 273.339844 C 139.765625 273.09375 137.632812 272.316406 135.441406 271.832031 L 128.976562 270.195312 L 122.71875 267.945312 C 120.652344 267.15625 118.507812 266.589844 116.539062 265.566406 C 112.582031 263.609375 108.402344 262.117188 104.632812 259.746094 L 98.796875 256.515625 C 96.886719 255.363281 95.085938 254.042969 93.175781 252.828125 C 92.40625 252.28125 90.445312 251.320312 88.144531 249.863281 L 80.476562 244.585938 C 77.875 242.652344 75.59375 240.457031 73.800781 238.847656 C 72.011719 237.238281 70.921875 235.960938 71.054688 235.507812 C 70.871094 236.152344 72.011719 237.746094 73.820312 239.921875 C 75.679688 242.042969 77.992188 244.972656 80.996094 247.355469 C 86.589844 252.613281 93.636719 256.832031 95.992188 258.296875 C 97.664062 259.261719 99.683594 260.097656 101.746094 261.179688 C 103.859375 262.152344 105.976562 263.472656 108.394531 264.375 L 115.75 267.320312 L 117.609375 268.082031 L 119.539062 268.65625 L 123.367188 269.804688 C 133.460938 273.019531 143.199219 274.203125 147.570312 274.746094 C 147.960938 274.804688 149.511719 275.144531 151.550781 275.621094 C 153.59375 276.003906 156.140625 276.273438 158.472656 276.671875 C 160.804688 277.070312 162.917969 277.445312 164.082031 277.730469 C 165.238281 277.941406 165.441406 278.1875 163.929688 278.476562 C 146.074219 280.929688 125.921875 276.628906 108.46875 268.003906 C 107.371094 267.472656 106.238281 267.011719 105.171875 266.425781 L 102.023438 264.582031 L 95.746094 260.929688 C 93.742188 259.589844 91.816406 258.167969 89.847656 256.816406 C 87.875 255.464844 85.859375 254.191406 84.09375 252.617188 C 80.46875 249.597656 76.660156 246.871094 73.382812 243.65625 C 71.671875 242.125 69.953125 240.621094 68.230469 239.140625 C 66.640625 237.546875 65.058594 235.964844 63.441406 234.433594 C 63.230469 233.125 62.273438 231.636719 60.949219 230.089844 C 59.640625 228.339844 58.238281 226.667969 56.742188 225.074219 C 55.261719 223.417969 53.707031 221.90625 52.734375 220.589844 C 51.761719 219.273438 51.230469 218.242188 51.417969 217.792969 C 50.953125 218.902344 51.203125 220.246094 51.871094 221.714844 C 52.65625 223.121094 53.914062 224.613281 55.300781 226.121094 L 59.605469 230.585938 C 61.097656 231.957031 62.5 233.222656 63.433594 234.445312 C 64.941406 236.390625 66.351562 238.425781 67.957031 240.300781 L 72.960938 245.765625 L 75.488281 248.488281 L 78.242188 250.976562 L 83.769531 255.953125 C 76.390625 250.464844 69.605469 244.328125 63.410156 237.53125 C 57.21875 230.734375 51.730469 223.410156 46.949219 215.558594 C 44.242188 211.59375 42.390625 207.171875 40.132812 202.921875 C 38.953125 200.8125 38.234375 198.527344 37.300781 196.316406 L 34.640625 189.617188 C 33.335938 185.035156 31.789062 180.476562 30.738281 175.863281 L 29.382812 168.917969 C 28.921875 166.609375 28.457031 164.304688 28.3125 161.992188 Z M 36.097656 146.996094 C 35.53125 146.375 34.109375 148.789062 34.4375 149.152344 C 35.007812 149.753906 36.425781 147.339844 36.097656 146.996094 Z M 37.664062 187.304688 C 35.582031 186.441406 40.8125 202.644531 38.75 191.824219 C 38.613281 191.179688 38.105469 187.632812 37.664062 187.304688 Z M 41.578125 197.046875 C 40.714844 196.632812 41.394531 200.496094 42.542969 202.941406 C 43.566406 205.433594 44.433594 206.664062 42.945312 201.449219 C 42.671875 200.847656 42.132812 197.300781 41.582031 197.042969 Z M 37.738281 164.214844 Z M 45.84375 205.253906 C 45.0625 204.90625 46.738281 210.742188 48.792969 214.226562 C 50.660156 217.808594 51.847656 219.425781 48.390625 211.617188 C 47.457031 209.570312 46.792969 205.550781 45.84375 205.253906 Z M 39.613281 171.988281 C 38.933594 171.507812 38.023438 174.097656 38.429688 174.378906 C 39.089844 174.84375 40.007812 172.25 39.609375 171.996094 Z M 40.140625 177.566406 C 38.496094 177.128906 40.089844 185.425781 40.132812 185.597656 C 41.5625 192.390625 45.703125 200.542969 49.175781 206.355469 C 50.34375 208.789062 52.835938 212.398438 54.347656 214.378906 C 55.863281 216.355469 56.5625 216.644531 54.785156 212.304688 C 53.179688 208.902344 50.941406 204.140625 48.066406 198.949219 C 46.71875 196.320312 45.566406 193.457031 44.222656 190.628906 C 42.800781 187.816406 41.871094 184.84375 40.898438 181.996094 C 40.71875 181.515625 40.566406 177.683594 40.136719 177.578125 Z M 59.414062 218.472656 C 58.578125 218.34375 58.898438 220.945312 59.378906 221.015625 C 60.203125 221.117188 59.890625 218.53125 59.414062 218.472656 Z M 62.25 223.085938 C 61.34375 222.964844 62.28125 227.433594 63.410156 227.5625 C 64.285156 227.628906 63.375 223.203125 62.25 223.085938 Z M 156.402344 270.0625 Z M 199.441406 263.566406 C 199.230469 264.257812 199.773438 262.492188 199.441406 263.566406 Z M 203.378906 262.085938 C 203.125 262.886719 206.675781 263.074219 206.878906 262.175781 C 207.101562 261.398438 203.605469 261.269531 203.378906 262.085938 Z M 209.15625 259.546875 C 208.980469 260.347656 211.570312 260.296875 211.664062 259.824219 C 211.816406 259.035156 209.246094 259.082031 209.15625 259.546875 Z M 211.996094 258.152344 C 212.148438 257.292969 214.347656 257.171875 216.542969 256.820312 C 218.679688 256.375 220.878906 255.820312 221.007812 254.667969 C 219.578125 254.699219 218.164062 254.855469 216.761719 255.136719 C 214.671875 255.675781 212.328125 256.203125 211.996094 258.152344 Z M 222.992188 251.863281 C 223.050781 254.058594 235.03125 244.210938 226.503906 249.503906 L 224.617188 250.632812 C 223.785156 251.078125 223.019531 251.566406 222.992188 251.863281 Z M 229.886719 246.957031 C 229.886719 246.957031 231.152344 246.664062 232.4375 246.238281 C 233.722656 245.808594 235.042969 245.28125 234.984375 244.761719 C 234.726562 244.683594 234.464844 244.640625 234.199219 244.636719 C 233.609375 244.558594 233.019531 244.550781 232.429688 244.601562 C 231.148438 244.726562 229.898438 245.261719 229.890625 246.953125 Z M 236.453125 241.578125 C 236.613281 243.523438 247.609375 232.527344 239.589844 238.710938 C 239.113281 239.074219 236.402344 240.960938 236.457031 241.574219 Z M 244.082031 234.179688 C 244.023438 233.820312 245.117188 232.839844 246.808594 231.472656 L 249.707031 229.160156 C 250.714844 228.257812 251.726562 227.25 252.765625 226.226562 C 254.808594 224.15625 257 222.050781 258.339844 220.042969 C 259.625 218.003906 260.355469 216.269531 259.972656 215.273438 C 260.328125 216.257812 256.535156 220.371094 252.183594 224.082031 C 248.214844 228.097656 243.585938 231.554688 244.082031 234.171875 Z M 259.941406 212.757812 C 260.289062 213.757812 262.265625 211.128906 263.007812 209.03125 C 263.820312 206.964844 263.90625 205.75 261.605469 210 C 261.351562 210.34375 259.773438 212.363281 259.941406 212.757812 Z M 263.433594 206.121094 C 263.433594 206.121094 264.417969 205.269531 265.359375 204.296875 C 266.300781 203.320312 267.195312 202.210938 266.976562 201.789062 C 266.703125 201.835938 266.4375 201.914062 266.183594 202.027344 C 265.628906 202.234375 265.097656 202.496094 264.601562 202.816406 C 263.515625 203.519531 262.660156 204.578125 263.425781 206.117188 Z M 268.042969 195.242188 Z M 269.125 192.191406 C 269.570312 192.957031 272.5625 189.449219 271.800781 188.46875 C 271.347656 187.765625 268.507812 191.257812 269.113281 192.1875 Z M 260.304688 99.34375 C 261.199219 99.492188 260.628906 95.953125 259.730469 95.824219 C 258.832031 95.695312 259.414062 99.214844 260.304688 99.34375 Z M 256.253906 92.753906 C 257.320312 92.921875 255.820312 89.894531 254.296875 88.1875 C 252.773438 86.480469 251.757812 85.769531 254.507812 89.929688 C 254.71875 90.316406 255.824219 92.710938 256.253906 92.753906 Z M 273.550781 151.730469 Z M 272.292969 138.875 C 272.292969 138.875 272.613281 137.605469 272.824219 136.257812 C 273.039062 134.910156 273.140625 133.484375 272.71875 133.257812 C 272.515625 133.449219 272.339844 133.664062 272.199219 133.902344 C 271.859375 134.390625 271.574219 134.910156 271.347656 135.460938 C 270.882812 136.667969 270.785156 138.039062 272.292969 138.875 Z M 270.453125 129.316406 C 272.535156 130.242188 267.542969 116.546875 269.605469 126.183594 C 269.691406 126.609375 270.054688 129.148438 270.453125 129.316406 Z M 267.058594 117.898438 C 269.207031 118.609375 262.914062 105.425781 265.90625 114.851562 C 266.03125 115.261719 266.644531 117.765625 267.054688 117.90625 Z M 264.429688 197.308594 C 264.859375 198.015625 266.65625 196.203125 266.40625 195.78125 C 265.957031 195.105469 264.164062 196.90625 264.429688 197.308594 Z M 264.429688 197.308594 " fill-opacity="1" fill-rule="evenodd"/></g></g></g><g clip-path="url(#79148ac03f)"><g clip-path="url(#4a078168d7)"><g clip-path="url(#536ab19593)"><path fill="#e86c44" d="M 83.78125 255.941406 C 84.257812 257.484375 86.066406 258.96875 88.394531 260.492188 C 90.761719 261.960938 93.558594 263.597656 96.585938 264.605469 C 99.539062 265.726562 102.386719 266.75 104.535156 267.71875 C 106.742188 268.566406 108.308594 269.265625 108.519531 270.136719 C 108.21875 268.835938 106.4375 267.800781 104.160156 266.429688 C 101.882812 265.058594 98.910156 263.726562 95.90625 262.46875 C 92.925781 261.167969 90.136719 259.582031 87.855469 258.460938 C 85.605469 257.285156 83.960938 256.441406 83.78125 255.941406 Z M 83.78125 255.941406 " fill-opacity="1" fill-rule="evenodd"/></g></g></g><g clip-path="url(#b278f5b906)"><g clip-path="url(#2282450d23)"><g clip-path="url(#a4ebab5a3e)"><path fill="#e86c44" d="M 129.121094 276.609375 C 129.644531 276.191406 134.699219 278.75 140.335938 280.761719 C 146.011719 282.328125 152.167969 283.976562 153.628906 282.191406 C 152.96875 283.066406 147.601562 280.914062 142.183594 279.136719 C 139.445312 278.371094 136.773438 277.078125 134.457031 276.523438 C 132.15625 275.921875 130.238281 275.8125 129.121094 276.609375 Z M 129.121094 276.609375 " fill-opacity="1" fill-rule="evenodd"/></g></g></g><g clip-path="url(#9f888b76a9)"><g clip-path="url(#6a24874c17)"><g clip-path="url(#6e974944fb)"><path fill="#e86c44" d="M 158.265625 280.988281 C 157.703125 281.609375 160.21875 282.78125 160.542969 282.417969 C 161.082031 281.792969 158.582031 280.621094 158.265625 280.988281 Z M 158.265625 280.988281 " fill-opacity="1" fill-rule="evenodd"/></g></g></g><g clip-path="url(#1f82c290c5)"><g clip-path="url(#7472b60442)"><g clip-path="url(#66280a72f9)"><path fill="#e86c44" d="M 188.800781 33.890625 C 190.804688 32.507812 169.902344 28.84375 184.113281 32.765625 C 184.804688 32.957031 188.246094 34.277344 188.800781 33.890625 Z M 188.800781 33.890625 " fill-opacity="1" fill-rule="evenodd"/></g></g></g><g clip-path="url(#1d284d5863)"><g clip-path="url(#735a50449e)"><g clip-path="url(#0a7cfa4fb2)"><path fill="#e86c44" d="M 204.242188 40.5 C 206.417969 39.25 186.574219 32.867188 195.296875 37.265625 C 195.21875 37.226562 197.15625 38.191406 199.253906 39.078125 C 201.351562 39.964844 203.632812 40.726562 204.242188 40.5 Z M 204.242188 40.5 " fill-opacity="1" fill-rule="evenodd"/></g></g></g><g clip-path="url(#74a04c5ce0)"><g clip-path="url(#0995e3180a)"><g clip-path="url(#58f2f4e07e)"><path fill="#e86c44" d="M 266.382812 102.449219 C 267.3125 107.28125 270.125 100.855469 266.382812 102.449219 Z M 266.382812 102.449219 " fill-opacity="1" fill-rule="evenodd"/></g></g></g><g clip-path="url(#fdde2775ea)"><g clip-path="url(#5643519a30)"><g clip-path="url(#580088b7e8)"><path fill="#e86c44" d="M 186.339844 259.054688 C 186.269531 259.238281 187.535156 259.070312 189.523438 258.703125 L 192.972656 258.03125 C 194.230469 257.707031 195.542969 257.234375 196.90625 256.800781 L 200.96875 255.480469 C 202.21875 255.121094 203.433594 254.65625 204.605469 254.085938 L 208.859375 252.140625 C 212.21875 250.761719 217.269531 248.363281 221.894531 246.132812 C 226.15625 243.425781 229.863281 240.769531 229.675781 238.574219 C 229.773438 239.066406 225.511719 241.695312 221.019531 244.597656 C 216.179688 247.042969 211.117188 249.773438 209.113281 250.507812 C 206.972656 251.527344 201.75 253.320312 196.703125 254.488281 C 195.460938 254.835938 194.257812 255.203125 193.128906 255.609375 C 192 256.015625 190.894531 256.199219 189.957031 256.570312 C 188.082031 257.222656 186.730469 258.042969 186.339844 259.054688 Z M 186.339844 259.054688 " fill-opacity="1" fill-rule="evenodd"/></g></g></g></g></g></g><g mask="url(#e68e48e4d9)"><g transform="matrix(1, 0, 0, 1, 12, 115)"><g clip-path="url(#bf467ee37a)"><g clip-path="url(#2d6d8a1302)"><g clip-path="url(#138ac3586c)"><g clip-path="url(#66a0287bd9)"><path fill="#f9d767" d="M 176.957031 27.402344 C 174.472656 26.136719 171.144531 23.453125 167.699219 21.644531 C 164.242188 19.898438 160.855469 18.5625 158.972656 19.144531 C 156.617188 19.886719 159.449219 21.984375 159.1875 22.953125 C 158.960938 23.855469 157.34375 26.171875 156.027344 28.667969 C 154.707031 31.164062 153.65625 33.832031 154.226562 35.347656 C 154.609375 36.359375 156.414062 37.582031 159.015625 38.886719 C 160.304688 39.578125 161.851562 40.125 163.4375 40.980469 C 165.023438 41.835938 166.714844 42.726562 168.492188 43.617188 L 171.183594 44.953125 C 172.070312 45.445312 172.917969 46.023438 173.792969 46.550781 C 175.523438 47.617188 177.253906 48.679688 178.921875 49.707031 C 182.113281 51.960938 184.914062 54.265625 187.019531 56.011719 C 193.648438 62.457031 199.644531 69.449219 205 76.988281 C 209.828125 84.394531 214.144531 92.261719 217.445312 101.902344 C 221.675781 115.152344 222.167969 127.71875 220.871094 140.253906 C 219.445312 152.84375 216.421875 165.605469 210.363281 180.574219 C 206.367188 189.359375 201.003906 197.210938 194.273438 204.128906 C 186.824219 211.824219 177.15625 218.476562 166.714844 223.234375 C 156.269531 227.992188 145.03125 230.75 134.613281 231.773438 C 131.996094 231.957031 129.4375 232.132812 126.957031 232.304688 C 124.464844 232.242188 122.058594 232.183594 119.734375 232.125 C 117.386719 232.179688 115.167969 231.886719 113.042969 231.648438 C 110.898438 231.4375 108.863281 231.238281 106.945312 231.050781 C 108.09375 231.105469 107.148438 232.839844 106.945312 231.050781 C 98.089844 228.914062 87.902344 225.585938 77.898438 220.09375 C 67.890625 214.601562 58.324219 206.941406 50.203125 198.0625 C 42.085938 189.179688 35.492188 179.054688 30.601562 169.160156 L 27.273438 161.792969 C 26.230469 159.375 25.496094 156.949219 24.601562 154.640625 L 23.320312 151.226562 C 22.957031 150.097656 22.675781 148.976562 22.351562 147.890625 C 21.726562 145.703125 21.09375 143.617188 20.457031 141.632812 C 21.972656 146.292969 21.070312 143.808594 19.867188 140.234375 C 18.945312 136.648438 17.722656 131.835938 17.515625 132.40625 C 16.988281 133.859375 16.824219 135.535156 16.886719 137.316406 C 16.921875 139.195312 17.222656 141.027344 17.792969 142.816406 L 21.074219 153.035156 L 23.230469 160.023438 L 23.777344 161.75 L 24.480469 163.417969 L 25.882812 166.738281 C 27.582031 171.210938 29.96875 175.316406 32.09375 179.449219 C 36.777344 187.5 41.6875 195.121094 47.082031 202.34375 C 48.949219 200.511719 49.839844 204.660156 51.292969 205.316406 C 54.742188 203.621094 54.167969 209.898438 51.292969 205.316406 C 51.769531 206.609375 53.140625 208.3125 54.867188 210.257812 C 55.730469 211.222656 56.703125 212.234375 57.71875 213.257812 C 58.734375 214.28125 59.960938 215.132812 61.082031 216.054688 C 63.417969 217.8125 65.585938 219.65625 67.566406 220.78125 L 71.542969 223.144531 C 72.71875 223.84375 74.125 225.078125 75.882812 226.28125 C 77.664062 227.433594 79.679688 228.753906 81.808594 230.023438 C 83.890625 231.378906 86.25 232.328125 88.546875 233.027344 C 90.84375 233.722656 93.0625 234.191406 95.0625 234.105469 C 94.777344 234.148438 92.472656 233.3125 89.023438 232.023438 C 87.324219 231.3125 85.222656 230.742188 83.1875 229.589844 C 81.113281 228.53125 78.878906 227.363281 76.589844 226.179688 C 67.675781 220.984375 58.902344 213.730469 56.347656 210.121094 C 55.335938 208.84375 56.152344 209.359375 58 210.867188 L 59.566406 212.183594 C 60.1875 212.628906 60.867188 213.113281 61.589844 213.632812 C 63.019531 214.683594 64.628906 215.863281 66.308594 217.09375 C 67.921875 218.40625 69.875 219.40625 71.65625 220.539062 C 73.46875 221.628906 75.210938 222.734375 76.839844 223.667969 L 84.019531 227.191406 C 85.265625 227.875 87.871094 228.378906 90.34375 228.894531 C 92.8125 229.40625 95.167969 230.015625 96.195312 230.707031 C 96.371094 230.8125 97.347656 233.503906 97.347656 233.503906 C 98.582031 233.757812 100.015625 233.390625 101.777344 233.183594 C 102.75 233.0625 103.722656 233.035156 104.699219 233.105469 C 105.921875 233.238281 107.132812 233.429688 108.332031 233.691406 C 111.730469 234.539062 111.132812 235.191406 109.40625 235.511719 C 107.675781 235.835938 104.828125 235.847656 104.015625 235.269531 C 105.488281 236.242188 107.214844 236.761719 109.054688 237.332031 C 110.894531 237.898438 112.875 238.359375 114.953125 238.773438 C 117.03125 239.191406 119.25 239.175781 121.515625 239.3125 C 122.648438 239.339844 123.800781 239.375 124.96875 239.40625 L 126.726562 239.414062 L 128.511719 239.253906 C 138.078125 238.742188 147.960938 236.003906 157.128906 233.441406 C 166.8125 230.34375 175.972656 226.109375 184.609375 220.742188 C 193.0625 215.289062 200.417969 208.898438 206.609375 202.683594 C 218.964844 189.699219 226.175781 174.101562 229.554688 158.542969 C 230.117188 156.625 230.203125 154.609375 230.550781 152.648438 L 231.410156 146.789062 L 231.695312 140.890625 C 231.753906 138.929688 232.019531 136.976562 231.851562 135.015625 C 231.59375 131.101562 231.792969 127.164062 231.132812 123.269531 L 230.46875 117.382812 C 230.175781 115.425781 229.707031 113.496094 229.359375 111.519531 C 229.171875 110.703125 229.050781 108.765625 228.640625 106.382812 L 226.925781 98.296875 C 226.226562 95.507812 225.203125 92.886719 224.492188 90.871094 C 223.78125 88.855469 223.105469 87.527344 222.691406 87.480469 C 223.277344 87.550781 224.195312 89.027344 225.367188 91.25 C 226.472656 93.5 228.085938 96.390625 229.019531 99.664062 C 231.425781 106.042969 232.488281 113.257812 232.886719 115.691406 C 233.109375 117.390625 233.105469 119.332031 233.289062 121.390625 C 233.367188 123.453125 233.730469 125.636719 233.648438 127.929688 L 233.558594 134.964844 L 233.546875 136.75 L 233.363281 138.527344 L 233.003906 142.058594 C 232.203125 151.429688 229.855469 159.816406 228.816406 163.585938 C 228.730469 163.925781 228.480469 165.3125 228.175781 167.148438 C 227.796875 168.957031 227.148438 171.136719 226.679688 173.183594 C 226.214844 175.230469 225.800781 177.089844 225.636719 178.140625 C 225.417969 179.160156 225.550781 179.414062 226.300781 178.273438 C 234.394531 164.464844 237.730469 146.472656 236.597656 129.226562 C 236.535156 128.144531 236.542969 127.058594 236.425781 125.984375 L 235.984375 122.777344 L 235.128906 116.386719 C 234.710938 114.285156 234.199219 112.222656 233.761719 110.144531 C 233.324219 108.066406 232.96875 105.984375 232.28125 104 C 231.035156 100 230.097656 95.945312 228.578125 92.164062 C 227.902344 90.242188 227.253906 88.320312 226.628906 86.402344 C 225.863281 84.554688 225.105469 82.71875 224.398438 80.871094 C 223.398438 80.253906 222.503906 78.964844 221.6875 77.351562 C 220.695312 75.679688 219.804688 73.960938 219.003906 72.191406 C 218.152344 70.414062 217.441406 68.621094 216.691406 67.378906 C 215.941406 66.132812 215.277344 65.34375 214.847656 65.347656 C 215.914062 65.34375 216.933594 66.003906 217.910156 67.054688 C 218.792969 68.175781 219.589844 69.714844 220.355469 71.367188 L 222.550781 76.417969 C 223.164062 78.105469 223.726562 79.6875 224.414062 80.871094 C 225.492188 82.769531 226.683594 84.621094 227.675781 86.570312 L 230.449219 92.539062 L 231.824219 95.535156 L 232.925781 98.640625 L 235.125 104.871094 C 233.136719 96.949219 230.414062 89.296875 226.949219 81.902344 C 223.484375 74.507812 219.347656 67.515625 214.535156 60.921875 C 212.207031 57.351562 209.210938 54.328125 206.496094 51.03125 C 205.167969 49.34375 203.535156 47.976562 202.042969 46.457031 L 197.453125 41.996094 C 194.140625 39.363281 190.929688 36.546875 187.503906 34.113281 L 182.269531 30.636719 C 180.53125 29.46875 178.800781 28.304688 176.957031 27.402344 Z M 162.007812 28.679688 C 161.691406 28.003906 164.152344 27.65625 164.339844 28.050781 C 164.640625 28.722656 162.179688 29.066406 162.007812 28.679688 Z M 194.53125 43.6875 C 194.527344 41.6875 206.035156 51.492188 197.867188 46.117188 C 197.382812 45.785156 194.644531 44.160156 194.527344 43.6875 Z M 201.183594 50.214844 C 201.140625 49.367188 204.078125 51.238281 205.691406 53.011719 C 207.386719 54.699219 208.097656 55.828125 204.328125 52.832031 C 203.929688 52.40625 201.203125 50.753906 201.179688 50.214844 Z M 175.570312 35.886719 Z M 206.460938 56.503906 C 206.445312 55.75 210.660156 59.105469 212.816406 61.980469 C 215.117188 64.730469 216.042969 66.257812 210.8125 60.761719 C 209.453125 59.300781 206.382812 57.386719 206.460938 56.503906 Z M 181.304688 40.070312 C 181.140625 39.351562 183.578125 39.488281 183.667969 39.914062 C 183.824219 40.613281 181.386719 40.484375 181.3125 40.070312 Z M 185.699219 42.402344 C 185.898438 40.90625 192.160156 45.039062 192.289062 45.132812 C 197.371094 48.617188 202.648438 54.789062 206.230469 59.613281 C 207.828125 61.398438 209.941406 64.671875 211.046875 66.585938 C 212.15625 68.503906 212.152344 69.175781 209.199219 66.242188 C 206.957031 63.765625 203.816406 60.308594 200.535156 56.179688 C 198.839844 54.183594 196.882812 52.261719 195.019531 50.199219 C 193.199219 48.074219 191.078125 46.296875 189.074219 44.53125 C 188.742188 44.222656 185.648438 42.792969 185.710938 42.40625 Z M 212.683594 72.132812 C 212.863281 71.40625 214.882812 72.554688 214.777344 72.972656 C 214.582031 73.679688 212.570312 72.546875 212.683594 72.132812 Z M 215.5 76.03125 C 215.710938 75.246094 219.050781 77.539062 218.773438 78.507812 C 218.53125 79.246094 215.210938 76.996094 215.5 76.03125 Z M 221.964844 169.238281 Z M 201.984375 202.316406 C 202.625 202.378906 200.992188 202.226562 201.984375 202.316406 Z M 199.429688 205.042969 C 200.175781 205.105469 199.117188 208.082031 198.3125 207.945312 C 197.597656 207.863281 198.683594 204.949219 199.429688 205.042969 Z M 195.382812 208.914062 C 196.097656 209.042969 195.171875 211.148438 194.753906 211.066406 C 194.058594 210.921875 194.96875 208.832031 195.382812 208.914062 Z M 193.273438 210.769531 C 192.515625 210.601562 191.667969 212.363281 190.628906 214.046875 C 189.535156 215.644531 188.332031 217.257812 187.347656 216.972656 C 187.855469 215.8125 188.464844 214.703125 189.175781 213.648438 C 190.328125 212.117188 191.558594 210.378906 193.273438 210.769531 Z M 184.371094 217.644531 C 186.148438 218.441406 173.992188 224.910156 181.238281 219.722656 L 182.808594 218.558594 C 183.457031 218.03125 184.117188 217.566406 184.371094 217.644531 Z M 178 221.628906 C 178 221.628906 177.328125 222.566406 176.539062 223.476562 C 175.753906 224.382812 174.871094 225.285156 174.460938 225.058594 C 174.488281 224.824219 174.542969 224.597656 174.625 224.375 C 174.765625 223.867188 174.957031 223.378906 175.199219 222.910156 C 175.738281 221.902344 176.601562 221.0625 177.992188 221.628906 Z M 171.351562 225.183594 C 172.894531 225.976562 160.128906 231.25 167.933594 226.777344 C 168.390625 226.511719 170.863281 224.929688 171.347656 225.183594 Z M 162.6875 228.917969 C 162.414062 228.75 161.238281 229.3125 159.539062 230.234375 L 156.65625 231.824219 C 155.574219 232.34375 154.402344 232.828125 153.210938 233.332031 C 150.816406 234.304688 148.34375 235.382812 146.238281 235.796875 C 144.128906 236.15625 142.460938 236.167969 141.773438 235.515625 C 142.460938 236.140625 147.125 234.429688 151.648438 232.125 C 156.292969 230.238281 160.703125 227.621094 162.679688 228.917969 Z M 139.722656 234.632812 C 140.421875 235.253906 137.59375 235.980469 135.621094 235.875 C 133.652344 235.839844 132.625 235.496094 136.890625 235.054688 C 137.261719 234.964844 139.453125 234.359375 139.722656 234.632812 Z M 133.089844 235.234375 C 133.089844 235.234375 132.054688 235.753906 130.9375 236.191406 C 129.816406 236.632812 128.601562 236.988281 128.332031 236.664062 C 128.460938 236.457031 128.617188 236.265625 128.796875 236.09375 C 129.15625 235.710938 129.550781 235.367188 129.984375 235.066406 C 130.925781 234.417969 132.089844 234.074219 133.089844 235.226562 Z M 122.597656 235.3125 Z M 119.730469 235.160156 C 120.203125 235.785156 116.308594 237.042969 115.765625 236.085938 C 115.34375 235.476562 119.175781 234.335938 119.730469 235.148438 Z M 46.589844 196.3125 C 46.410156 197.097656 43.703125 195.425781 43.902344 194.644531 C 44.101562 193.863281 46.789062 195.539062 46.589844 196.3125 Z M 42.566406 190.746094 C 42.34375 191.679688 40.371094 189.417969 39.488281 187.585938 C 38.609375 185.757812 38.371094 184.683594 40.84375 188.355469 C 41.09375 188.660156 42.679688 190.382812 42.566406 190.746094 Z M 85.042969 225.011719 Z M 74.925781 219.601562 C 74.925781 219.601562 73.78125 219.433594 72.601562 219.148438 C 71.421875 218.867188 70.21875 218.460938 70.175781 218.039062 C 70.402344 217.9375 70.640625 217.871094 70.882812 217.832031 C 71.402344 217.722656 71.921875 217.664062 72.449219 217.667969 C 73.597656 217.695312 74.753906 218.082031 74.925781 219.601562 Z M 67.714844 214.839844 C 67.769531 216.863281 58.238281 208.109375 65.433594 213.078125 C 65.753906 213.296875 67.714844 214.457031 67.714844 214.839844 Z M 59.507812 208.167969 C 59.363281 210.171875 50.691406 200.523438 57.402344 206.1875 C 57.699219 206.429688 59.542969 207.785156 59.515625 208.167969 Z M 125.523438 233.050781 C 125.957031 233.644531 123.859375 234.5 123.601562 234.152344 C 123.195312 233.554688 125.285156 232.695312 125.523438 233.050781 Z M 125.523438 233.050781 " fill-opacity="1" fill-rule="evenodd"/></g></g></g><g clip-path="url(#c3ea6cc68b)"><g clip-path="url(#9e6ebb85a6)"><g clip-path="url(#fce2083fb5)"><path fill="#f9d767" d="M 235.109375 104.871094 C 236.214844 105.789062 236.816406 107.777344 237.273438 110.207031 C 237.671875 112.648438 238.058594 115.5 237.855469 118.324219 C 237.773438 121.128906 237.640625 123.8125 237.703125 125.902344 C 237.644531 128.003906 237.6875 129.523438 238.328125 129.996094 C 237.363281 129.304688 237.125 127.492188 236.773438 125.15625 C 236.425781 122.824219 236.34375 119.933594 236.335938 117.039062 C 236.28125 114.152344 235.933594 111.324219 235.789062 109.070312 C 235.589844 106.828125 235.460938 105.191406 235.109375 104.871094 Z M 235.109375 104.871094 " fill-opacity="1" fill-rule="evenodd"/></g></g></g><g clip-path="url(#5f9eb598ab)"><g clip-path="url(#44646a8aef)"><g clip-path="url(#2215b894e1)"><path fill="#f9d767" d="M 236.621094 149.09375 C 236.101562 149.378906 236.476562 154.394531 236.210938 159.703125 C 235.5625 164.890625 234.816406 170.5 232.855469 171.089844 C 233.800781 170.847656 233.863281 165.714844 234.246094 160.664062 C 234.550781 158.160156 234.402344 155.527344 234.734375 153.441406 C 235.027344 151.347656 235.589844 149.734375 236.621094 149.09375 Z M 236.621094 149.09375 " fill-opacity="1" fill-rule="evenodd"/></g></g></g><g clip-path="url(#533d7eceaf)"><g clip-path="url(#97206213d2)"><g clip-path="url(#d6432cbb7a)"><path fill="#f9d767" d="M 230.292969 174.484375 C 230.992188 174.234375 231.097656 176.695312 230.6875 176.839844 C 229.992188 177.066406 229.882812 174.617188 230.292969 174.484375 Z M 230.292969 174.484375 " fill-opacity="1" fill-rule="evenodd"/></g></g></g><g clip-path="url(#57a5b85ef1)"><g clip-path="url(#6a3896d18e)"><g clip-path="url(#9215a7a93c)"><path fill="#f9d767" d="M 17.261719 115.394531 C 15.449219 116.5625 19.5625 98.175781 17.9375 111.167969 C 17.859375 111.796875 17.769531 115.066406 17.261719 115.394531 Z M 17.261719 115.394531 " fill-opacity="1" fill-rule="evenodd"/></g></g></g><g clip-path="url(#f45fb2972c)"><g clip-path="url(#a282df2037)"><g clip-path="url(#cad62156fb)"><path fill="#f9d767" d="M 17.425781 130.304688 C 15.660156 131.664062 17.183594 113.21875 17.820312 121.867188 C 17.816406 121.789062 17.945312 123.707031 17.957031 125.730469 C 17.96875 127.753906 17.820312 129.882812 17.425781 130.304688 Z M 17.425781 130.304688 " fill-opacity="1" fill-rule="evenodd"/></g></g></g><g clip-path="url(#38913631d2)"><g clip-path="url(#2fa4e1ba04)"><g clip-path="url(#418e2995d8)"><path fill="#f9d767" d="M 47.070312 202.355469 C 50.714844 204.761719 44.488281 204.882812 47.070312 202.355469 Z M 47.070312 202.355469 " fill-opacity="1" fill-rule="evenodd"/></g></g></g><g clip-path="url(#ba185d215b)"><g clip-path="url(#799d00e016)"><g clip-path="url(#da1582102c)"><path fill="#f9d767" d="M 202.746094 190.039062 C 202.921875 190.042969 202.351562 191.019531 201.375 192.527344 L 199.648438 195.128906 C 198.953125 196.046875 198.121094 196.964844 197.300781 197.933594 L 194.832031 200.816406 C 194.113281 201.71875 193.320312 202.554688 192.453125 203.324219 L 189.410156 206.148438 C 187.136719 208.4375 183.449219 211.761719 180.042969 214.792969 C 176.371094 217.367188 172.933594 219.503906 171.195312 218.597656 C 171.566406 218.851562 175.171875 216.25 179.082031 213.554688 C 182.734375 210.417969 186.699219 207.195312 187.984375 205.804688 C 189.546875 204.390625 192.796875 200.722656 195.472656 196.980469 C 196.179688 196.078125 196.890625 195.21875 197.609375 194.429688 C 198.324219 193.644531 198.855469 192.800781 199.476562 192.160156 C 200.652344 190.84375 201.78125 190.015625 202.746094 190.039062 Z M 202.746094 190.039062 " fill-opacity="1" fill-rule="evenodd"/></g></g></g></g></g></g><g mask="url(#a8c7e2aad3)"><g transform="matrix(1, 0, 0, 1, 27, 5)"><g clip-path="url(#668f0025e2)"><g clip-path="url(#697266fc61)"><g clip-path="url(#2133182cd4)"><g clip-path="url(#930abf7127)"><path fill="#058f84" d="M 326.078125 154.472656 C 326.667969 158.210938 328.734375 163.632812 329.625 168.839844 C 330.429688 174.035156 330.734375 178.972656 329.1875 181.15625 C 327.246094 183.882812 325.726562 179.351562 324.367188 179.28125 C 323.105469 179.191406 319.433594 180.308594 315.660156 180.964844 C 311.882812 181.617188 308 181.859375 306.277344 180.480469 C 305.132812 179.5625 304.3125 176.71875 303.722656 172.816406 C 303.371094 170.859375 303.308594 168.632812 302.871094 166.226562 C 302.433594 163.820312 301.992188 161.261719 301.589844 158.597656 L 300.992188 154.558594 C 300.734375 153.207031 300.339844 151.871094 300.027344 150.519531 C 299.375 147.839844 298.730469 145.15625 298.105469 142.574219 C 296.53125 137.507812 294.734375 132.925781 293.363281 129.476562 C 287.824219 118.207031 281.3125 107.535156 273.824219 97.457031 C 266.292969 88.113281 257.949219 79.238281 246.882812 70.929688 C 231.550781 59.910156 215.535156 53.996094 198.8125 50.410156 C 181.953125 46.972656 164.207031 45.515625 142.339844 47.054688 C 129.320312 48.53125 116.933594 52.160156 105.175781 57.945312 C 92.113281 64.332031 79.472656 74.019531 68.945312 85.507812 C 58.421875 96.996094 50.144531 110.347656 44.445312 123.367188 C 43.113281 126.671875 41.8125 129.898438 40.550781 133.027344 C 39.585938 136.273438 38.648438 139.40625 37.746094 142.433594 C 36.695312 145.4375 36.140625 148.425781 35.558594 151.269531 C 34.929688 154.125 34.332031 156.839844 33.769531 159.394531 C 34.183594 157.886719 31.542969 158.378906 33.769531 159.394531 C 32.8125 171.71875 32.832031 186.269531 35.726562 201.492188 C 38.617188 216.71875 44.488281 232.285156 52.546875 246.492188 C 60.609375 260.703125 70.914062 273.464844 81.632812 283.933594 L 89.746094 291.324219 C 92.433594 293.683594 95.257812 295.648438 97.859375 297.773438 L 101.734375 300.859375 C 103.035156 301.800781 104.367188 302.632812 105.632812 303.511719 C 108.191406 305.238281 110.621094 306.929688 112.917969 308.582031 C 107.535156 304.671875 110.363281 306.875 114.472656 309.929688 C 118.71875 312.628906 124.417969 316.222656 123.597656 316.25 C 121.5 316.324219 119.261719 315.828125 116.988281 315.003906 C 114.582031 314.171875 112.339844 313.011719 110.273438 311.523438 L 98.453125 303 L 90.335938 297.285156 L 88.339844 295.855469 L 86.476562 294.242188 L 82.78125 291.039062 C 77.722656 286.972656 73.417969 282.167969 68.976562 277.6875 C 60.546875 268.261719 52.769531 258.726562 45.710938 248.726562 C 48.859375 247.085938 43.875 244.195312 43.636719 242.042969 C 47.273438 238.300781 38.929688 236.410156 43.636719 242.042969 C 42.167969 240.886719 40.542969 238.402344 38.757812 235.359375 C 37.875 233.835938 36.976562 232.152344 36.082031 230.414062 C 35.1875 228.675781 34.597656 226.734375 33.882812 224.898438 C 32.589844 221.144531 31.125 217.570312 30.5 214.546875 L 29.121094 208.421875 C 28.707031 206.605469 27.707031 204.273438 26.890625 201.5 C 26.148438 198.714844 25.292969 195.558594 24.546875 192.28125 C 23.667969 189.019531 23.433594 185.578125 23.5 182.316406 C 23.5625 179.058594 23.886719 175.996094 24.839844 173.449219 C 24.664062 173.800781 24.773438 177.128906 24.992188 182.125 C 25.195312 184.613281 25.054688 187.566406 25.6875 190.675781 C 26.183594 193.800781 26.75 197.175781 27.320312 200.628906 C 30.285156 214.316406 35.96875 228.6875 39.554688 233.5 C 40.78125 235.34375 40.457031 234.074219 39.285156 231.054688 L 38.246094 228.480469 C 37.929688 227.492188 37.589844 226.414062 37.222656 225.261719 C 36.464844 222.976562 35.617188 220.402344 34.734375 217.714844 C 33.714844 215.082031 33.246094 212.140625 32.53125 209.363281 C 31.886719 206.566406 31.191406 203.851562 30.664062 201.359375 L 29.132812 190.613281 C 28.769531 188.710938 29.214844 185.140625 29.585938 181.734375 C 29.960938 178.328125 30.164062 175.03125 29.699219 173.414062 C 29.640625 173.144531 26.574219 170.753906 26.574219 170.753906 C 26.761719 169.050781 27.839844 167.355469 28.847656 165.171875 C 29.414062 163.96875 29.851562 162.722656 30.171875 161.433594 C 30.515625 159.800781 30.773438 158.152344 30.941406 156.492188 C 31.273438 151.75 30.183594 152.25 29.042969 154.34375 C 27.898438 156.441406 26.6875 160.117188 27.09375 161.40625 C 26.457031 159.097656 26.507812 156.648438 26.546875 154.035156 C 26.585938 151.421875 26.820312 148.671875 27.15625 145.8125 C 27.492188 142.957031 28.445312 140.09375 29.21875 137.113281 C 29.65625 135.636719 30.097656 134.140625 30.542969 132.617188 L 31.273438 130.34375 L 32.230469 128.105469 C 36.902344 115.972656 44.589844 104.359375 51.742188 93.601562 C 59.808594 82.398438 69.121094 72.347656 79.675781 63.449219 C 90.261719 54.828125 101.601562 48.011719 112.222656 42.625 C 134.171875 32.125 157.332031 29.359375 178.839844 31.523438 C 181.554688 31.605469 184.1875 32.339844 186.867188 32.710938 L 194.792969 34.0625 L 202.53125 36.167969 C 205.085938 36.917969 207.71875 37.394531 210.179688 38.4375 C 215.125 40.410156 220.289062 41.804688 225.042969 44.289062 L 232.363281 47.617188 C 234.765625 48.820312 237.058594 50.234375 239.46875 51.515625 C 240.445312 52.097656 242.894531 53.066406 245.800781 54.597656 L 255.515625 60.207031 C 258.828125 62.28125 261.78125 64.699219 264.085938 66.464844 C 266.390625 68.226562 267.820312 69.660156 267.703125 70.210938 C 267.863281 69.421875 266.339844 67.617188 263.960938 65.171875 C 261.523438 62.804688 258.46875 59.503906 254.628906 56.929688 C 247.40625 51.144531 238.535156 46.742188 235.5625 45.210938 C 233.464844 44.207031 230.957031 43.398438 228.375 42.296875 C 225.742188 41.328125 223.074219 39.945312 220.078125 39.089844 L 210.964844 36.253906 L 208.652344 35.515625 L 206.28125 35.007812 L 201.570312 33.992188 C 189.136719 31.09375 177.320312 30.601562 172.015625 30.363281 C 171.542969 30.332031 169.648438 30.070312 167.148438 29.695312 C 164.660156 29.429688 161.574219 29.347656 158.734375 29.09375 C 155.894531 28.835938 153.316406 28.589844 151.890625 28.355469 C 150.484375 28.214844 150.214844 27.933594 152.003906 27.445312 C 173.226562 22.792969 197.851562 26.039062 219.644531 34.738281 C 221.015625 35.269531 222.417969 35.714844 223.757812 36.320312 L 227.714844 38.234375 L 235.609375 42.023438 C 238.144531 43.441406 240.59375 44.96875 243.089844 46.40625 C 245.589844 47.839844 248.132812 49.175781 250.402344 50.898438 C 255.046875 54.183594 259.882812 57.09375 264.128906 60.644531 C 266.328125 62.324219 268.539062 63.96875 270.753906 65.578125 C 272.8125 67.34375 274.867188 69.09375 276.953125 70.777344 C 277.332031 72.328125 278.625 74.027344 280.363281 75.757812 C 282.101562 77.738281 283.949219 79.613281 285.898438 81.386719 C 287.835938 83.234375 289.847656 84.90625 291.140625 86.394531 C 292.433594 87.882812 293.175781 89.070312 292.992188 89.628906 C 293.441406 88.25 293.015625 86.65625 292.070312 84.957031 C 290.996094 83.34375 289.339844 81.667969 287.53125 79.988281 L 281.929688 75.035156 C 280.007812 73.53125 278.199219 72.144531 276.964844 70.761719 C 274.964844 68.570312 273.074219 66.257812 270.96875 64.15625 L 264.433594 58.070312 L 261.140625 55.039062 L 257.59375 52.3125 L 250.472656 46.863281 C 259.863281 52.75 268.605469 59.480469 276.695312 67.054688 C 284.785156 74.628906 292.078125 82.90625 298.570312 91.886719 C 302.203125 96.394531 304.851562 101.527344 307.96875 106.417969 C 309.589844 108.839844 310.671875 111.519531 312.003906 114.089844 L 315.839844 121.882812 C 317.84375 127.261719 320.136719 132.59375 321.839844 138.039062 L 324.132812 146.257812 C 324.90625 148.988281 325.683594 151.710938 326.078125 154.472656 Z M 318.15625 173.234375 C 318.894531 173.929688 320.375 170.894531 319.945312 170.488281 C 319.203125 169.820312 317.726562 172.855469 318.15625 173.234375 Z M 312.425781 124.949219 C 315.011719 125.789062 307.175781 106.820312 310.691406 119.621094 C 310.917969 120.386719 311.863281 124.601562 312.425781 124.953125 Z M 306.792969 113.621094 C 307.871094 114.035156 306.683594 109.453125 305.070312 106.625 C 303.601562 103.730469 302.445312 102.335938 304.730469 108.460938 C 305.117188 109.152344 306.105469 113.367188 306.792969 113.625 Z M 314.542969 152.703125 Z M 300.886719 104.164062 C 301.855469 104.503906 299.289062 97.652344 296.484375 93.664062 C 293.898438 89.535156 292.316406 87.703125 297.21875 96.757812 C 298.53125 99.128906 299.714844 103.898438 300.886719 104.164062 Z M 311.546875 143.542969 C 312.40625 144.054688 313.253906 140.855469 312.742188 140.558594 C 311.902344 140.0625 311.046875 143.261719 311.550781 143.53125 Z M 310.378906 136.886719 C 312.398438 137.257812 309.691406 127.4375 309.621094 127.234375 C 307.257812 119.210938 301.503906 109.808594 296.773438 103.15625 C 295.140625 100.34375 291.804688 96.246094 289.792969 94.011719 C 287.785156 91.777344 286.917969 91.5 289.464844 96.542969 C 291.722656 100.476562 294.863281 105.984375 298.816406 111.953125 C 300.683594 114.980469 302.34375 118.3125 304.226562 121.582031 C 306.207031 124.828125 307.609375 128.308594 309.046875 131.636719 C 309.308594 132.199219 309.855469 136.789062 310.382812 136.875 Z M 283.320312 89.574219 C 284.335938 89.648438 283.699219 86.554688 283.117188 86.515625 C 282.117188 86.46875 282.738281 89.546875 283.320312 89.574219 Z M 279.46875 84.300781 C 280.570312 84.359375 279.015625 79.082031 277.648438 79.035156 C 276.59375 79.035156 278.105469 84.269531 279.46875 84.300781 Z M 161.847656 36.835938 Z M 110.75 48.75 C 110.941406 47.898438 110.457031 50.070312 110.75 48.75 Z M 106.160156 50.90625 C 106.390625 49.914062 102.105469 50.03125 101.949219 51.128906 C 101.753906 52.085938 105.96875 51.90625 106.160156 50.90625 Z M 99.464844 54.507812 C 99.597656 53.527344 96.492188 53.835938 96.425781 54.410156 C 96.316406 55.375 99.398438 55.074219 99.464844 54.507812 Z M 96.183594 56.449219 C 96.085938 57.5 93.453125 57.855469 90.847656 58.488281 C 88.320312 59.226562 85.734375 60.105469 85.6875 61.5 C 87.402344 61.328125 89.089844 61.003906 90.746094 60.53125 C 93.207031 59.683594 95.972656 58.824219 96.183594 56.449219 Z M 83.570312 65.058594 C 83.292969 62.425781 69.835938 75.40625 79.574219 68.230469 L 81.738281 66.691406 C 82.691406 66.078125 83.566406 65.417969 83.570312 65.058594 Z M 75.753906 71.613281 C 75.753906 71.613281 74.261719 72.085938 72.757812 72.71875 C 71.253906 73.355469 69.71875 74.117188 69.839844 74.738281 C 70.15625 74.804688 70.472656 74.832031 70.792969 74.8125 C 71.507812 74.847656 72.21875 74.804688 72.921875 74.6875 C 74.449219 74.414062 75.902344 73.652344 75.75 71.617188 Z M 68.375 78.703125 C 68 76.378906 55.832031 90.644531 64.878906 82.445312 C 65.417969 81.964844 68.5 79.4375 68.371094 78.707031 Z M 59.917969 88.324219 C 60.019531 88.746094 58.796875 90.027344 56.898438 91.832031 L 53.632812 94.886719 C 52.511719 96.070312 51.394531 97.375 50.242188 98.703125 C 47.984375 101.386719 45.546875 104.128906 44.132812 106.671875 C 42.78125 109.242188 42.070312 111.394531 42.625 112.554688 C 42.101562 111.40625 46.273438 106.101562 51.144531 101.226562 C 55.527344 96.023438 60.761719 91.429688 59.917969 88.328125 Z M 42.902344 115.574219 C 42.390625 114.40625 40.265625 117.753906 39.574219 120.34375 C 38.796875 122.902344 38.808594 124.375 41.164062 119.050781 C 41.441406 118.609375 43.144531 116.03125 42.902344 115.574219 Z M 39.339844 123.882812 C 39.339844 123.882812 38.238281 125 37.199219 126.257812 C 36.164062 127.519531 35.195312 128.941406 35.496094 129.425781 C 35.820312 129.34375 36.132812 129.226562 36.425781 129.066406 C 37.074219 128.765625 37.683594 128.398438 38.253906 127.964844 C 39.488281 127.019531 40.417969 125.660156 39.351562 123.886719 Z M 34.839844 137.394531 Z M 33.832031 141.164062 C 33.222656 140.289062 29.960938 144.789062 30.96875 145.894531 C 31.582031 146.691406 34.660156 142.226562 33.84375 141.167969 Z M 53.289062 251.894531 C 52.199219 251.800781 53.222656 255.996094 54.3125 256.0625 C 55.40625 256.132812 54.371094 251.960938 53.289062 251.894531 Z M 58.785156 259.421875 C 57.488281 259.324219 59.578125 262.820312 61.574219 264.726562 C 63.566406 266.632812 64.855469 267.386719 61.152344 262.652344 C 60.859375 262.203125 59.304688 259.433594 58.785156 259.421875 Z M 32.375 190.203125 Z M 35.113281 205.535156 C 35.113281 205.535156 34.847656 207.085938 34.722656 208.726562 C 34.59375 210.371094 34.609375 212.09375 35.136719 212.324219 C 35.363281 212.074219 35.550781 211.796875 35.699219 211.496094 C 36.0625 210.878906 36.351562 210.226562 36.570312 209.542969 C 37.015625 208.050781 37.003906 206.394531 35.113281 205.535156 Z M 38.234375 216.84375 C 35.644531 215.925781 42.949219 231.910156 39.554688 220.527344 C 39.40625 220.023438 38.730469 217.007812 38.234375 216.84375 Z M 43.402344 230.242188 C 40.753906 229.585938 49.574219 244.832031 45.074219 233.792969 C 44.886719 233.308594 43.914062 230.359375 43.40625 230.230469 Z M 38.984375 134.570312 C 38.398438 133.757812 36.414062 136.109375 36.757812 136.589844 C 37.359375 137.359375 39.34375 135.027344 38.984375 134.570312 Z M 38.984375 134.570312 " fill-opacity="1" fill-rule="evenodd"/></g></g></g><g clip-path="url(#e2adeb5ae9)"><g clip-path="url(#e9dcb29f8e)"><g clip-path="url(#122c1e35c0)"><path fill="#058f84" d="M 250.464844 46.878906 C 249.742188 45.066406 247.429688 43.457031 244.484375 41.84375 C 241.5 40.308594 237.980469 38.609375 234.25 37.6875 C 230.59375 36.621094 227.074219 35.660156 224.402344 34.707031 C 221.664062 33.898438 219.71875 33.207031 219.378906 32.179688 C 219.867188 33.714844 222.109375 34.785156 224.972656 36.214844 C 227.839844 37.644531 231.539062 38.964844 235.269531 40.1875 C 238.972656 41.46875 242.480469 43.109375 245.328125 44.238281 C 248.140625 45.4375 250.199219 46.292969 250.464844 46.878906 Z M 250.464844 46.878906 " fill-opacity="1" fill-rule="evenodd"/></g></g></g><g clip-path="url(#040b5d318c)"><g clip-path="url(#8b78db646a)"><g clip-path="url(#5428146bab)"><path fill="#058f84" d="M 194.007812 26.367188 C 193.421875 26.917969 187.101562 24.328125 180.136719 22.449219 C 173.164062 21.105469 165.613281 19.714844 164.027344 21.996094 C 164.738281 20.878906 171.390625 22.957031 178.070312 24.578125 C 181.433594 25.238281 184.769531 26.535156 187.601562 26.976562 C 190.425781 27.484375 192.742188 27.429688 194.007812 26.367188 Z M 194.007812 26.367188 " fill-opacity="1" fill-rule="evenodd"/></g></g></g><g clip-path="url(#b4a40dac92)"><g clip-path="url(#536766ba03)"><g clip-path="url(#5d86d68483)"><path fill="#058f84" d="M 158.570312 23.882812 C 159.1875 23.085938 156.050781 21.917969 155.695312 22.386719 C 155.109375 23.1875 158.226562 24.355469 158.570312 23.882812 Z M 158.570312 23.882812 " fill-opacity="1" fill-rule="evenodd"/></g></g></g><g clip-path="url(#2cf68b6d09)"><g clip-path="url(#a6656fb978)"><g clip-path="url(#dc23c76310)"><path fill="#058f84" d="M 145.453125 323.71875 C 143.179688 325.570312 168.644531 327.976562 151.191406 324.621094 C 150.347656 324.460938 146.085938 323.199219 145.453125 323.71875 Z M 145.453125 323.71875 " fill-opacity="1" fill-rule="evenodd"/></g></g></g><g clip-path="url(#55e7a9c835)"><g clip-path="url(#b2c128dca5)"><g clip-path="url(#76de13ebaf)"><path fill="#058f84" d="M 126.269531 317.25 C 123.773438 318.960938 148.226562 324.734375 137.328125 320.28125 C 137.425781 320.320312 135.003906 319.347656 132.398438 318.484375 C 129.792969 317.617188 126.980469 316.917969 126.269531 317.25 Z M 126.269531 317.25 " fill-opacity="1" fill-rule="evenodd"/></g></g></g><g clip-path="url(#4d9bc14215)"><g clip-path="url(#13b542ac15)"><g clip-path="url(#4bbcaca3d4)"><path fill="#058f84" d="M 45.691406 248.738281 C 44.113281 243.023438 41.34375 251.011719 45.691406 248.738281 Z M 45.691406 248.738281 " fill-opacity="1" fill-rule="evenodd"/></g></g></g><g clip-path="url(#9f862fbecd)"><g clip-path="url(#de01c30d08)"><g clip-path="url(#47beec4f04)"><path fill="#058f84" d="M 126.925781 52.917969 C 126.992188 52.691406 125.492188 53.015625 123.136719 53.644531 L 119.054688 54.785156 C 117.574219 55.292969 116.042969 55.984375 114.445312 56.636719 L 109.691406 58.613281 C 108.21875 59.164062 106.808594 59.835938 105.453125 60.632812 L 100.527344 63.378906 C 96.621094 65.351562 90.78125 68.71875 85.4375 71.839844 C 80.574219 75.5 76.371094 79.042969 76.808594 81.664062 C 76.640625 81.085938 81.511719 77.519531 86.632812 73.601562 C 92.214844 70.203125 98.042969 66.433594 100.375 65.363281 C 102.855469 63.933594 108.957031 61.28125 114.910156 59.398438 C 116.371094 58.859375 117.78125 58.304688 119.097656 57.710938 C 120.417969 57.113281 121.726562 56.785156 122.816406 56.25 C 125.007812 55.285156 126.550781 54.175781 126.925781 52.917969 Z M 126.925781 52.917969 " fill-opacity="1" fill-rule="evenodd"/></g></g></g></g></g></g><g fill="#bed7dc" fill-opacity="0.4"><g transform="translate(2.681416, 250.283629)"><g><path d="M 9.640625 -6.59375 L 9.640625 -107 C 9.640625 -110.539062 10.628906 -113.164062 12.609375 -114.875 C 14.585938 -116.59375 17.078125 -117.453125 20.078125 -117.453125 C 24.046875 -117.453125 27.097656 -116.753906 29.234375 -115.359375 C 31.378906 -113.972656 33.738281 -110.972656 36.3125 -106.359375 L 56.078125 -70.375 L 75.84375 -106.359375 C 78.40625 -110.972656 80.785156 -113.972656 82.984375 -115.359375 C 85.179688 -116.753906 88.257812 -117.453125 92.21875 -117.453125 C 95.21875 -117.453125 97.707031 -116.59375 99.6875 -114.875 C 101.675781 -113.164062 102.671875 -110.539062 102.671875 -107 L 102.671875 -6.59375 C 102.671875 -4.550781 101.625 -2.941406 99.53125 -1.765625 C 97.445312 -0.585938 95.007812 0 92.21875 0 C 89.332031 0 86.867188 -0.585938 84.828125 -1.765625 C 82.796875 -2.941406 81.78125 -4.550781 81.78125 -6.59375 L 81.78125 -75.671875 L 62.984375 -42.25 C 61.484375 -39.46875 59.125 -38.078125 55.90625 -38.078125 C 52.800781 -38.078125 50.5 -39.46875 49 -42.25 L 30.53125 -76.96875 L 30.53125 -6.59375 C 30.53125 -4.550781 29.484375 -2.941406 27.390625 -1.765625 C 25.304688 -0.585938 22.867188 0 20.078125 0 C 17.191406 0 14.726562 -0.585938 12.6875 -1.765625 C 10.65625 -2.941406 9.640625 -4.550781 9.640625 -6.59375 Z M 9.640625 -6.59375 "/></g></g></g><g fill="#bed7dc" fill-opacity="0.4"><g transform="translate(114.9888, 250.283629)"><g/></g></g><g fill="#e86c44" fill-opacity="1"><g transform="translate(-4.419904, 243.182308)"><g><path d="M 9.640625 -6.59375 L 9.640625 -107 C 9.640625 -110.539062 10.628906 -113.164062 12.609375 -114.875 C 14.585938 -116.59375 17.078125 -117.453125 20.078125 -117.453125 C 24.046875 -117.453125 27.097656 -116.753906 29.234375 -115.359375 C 31.378906 -113.972656 33.738281 -110.972656 36.3125 -106.359375 L 56.078125 -70.375 L 75.84375 -106.359375 C 78.40625 -110.972656 80.785156 -113.972656 82.984375 -115.359375 C 85.179688 -116.753906 88.257812 -117.453125 92.21875 -117.453125 C 95.21875 -117.453125 97.707031 -116.59375 99.6875 -114.875 C 101.675781 -113.164062 102.671875 -110.539062 102.671875 -107 L 102.671875 -6.59375 C 102.671875 -4.550781 101.625 -2.941406 99.53125 -1.765625 C 97.445312 -0.585938 95.007812 0 92.21875 0 C 89.332031 0 86.867188 -0.585938 84.828125 -1.765625 C 82.796875 -2.941406 81.78125 -4.550781 81.78125 -6.59375 L 81.78125 -75.671875 L 62.984375 -42.25 C 61.484375 -39.46875 59.125 -38.078125 55.90625 -38.078125 C 52.800781 -38.078125 50.5 -39.46875 49 -42.25 L 30.53125 -76.96875 L 30.53125 -6.59375 C 30.53125 -4.550781 29.484375 -2.941406 27.390625 -1.765625 C 25.304688 -0.585938 22.867188 0 20.078125 0 C 17.191406 0 14.726562 -0.585938 12.6875 -1.765625 C 10.65625 -2.941406 9.640625 -4.550781 9.640625 -6.59375 Z M 9.640625 -6.59375 "/></g></g></g><g fill="#e86c44" fill-opacity="1"><g transform="translate(107.88748, 243.182308)"><g/></g></g><g fill="#bed7dc" fill-opacity="0.4"><g transform="translate(147.156359, 250.283629)"><g><path d="M 3.859375 -18.484375 C 3.859375 -20.941406 4.796875 -23.425781 6.671875 -25.9375 C 8.546875 -28.457031 10.660156 -29.71875 13.015625 -29.71875 C 14.410156 -29.71875 15.988281 -29.078125 17.75 -27.796875 C 19.519531 -26.515625 21.234375 -25.09375 22.890625 -23.53125 C 24.554688 -21.976562 26.941406 -20.5625 30.046875 -19.28125 C 33.148438 -18 36.578125 -17.359375 40.328125 -17.359375 C 45.472656 -17.359375 49.757812 -18.535156 53.1875 -20.890625 C 56.613281 -23.242188 58.328125 -26.722656 58.328125 -31.328125 C 58.328125 -34.546875 57.390625 -37.410156 55.515625 -39.921875 C 53.640625 -42.441406 51.175781 -44.53125 48.125 -46.1875 C 45.070312 -47.851562 41.722656 -49.460938 38.078125 -51.015625 C 34.429688 -52.566406 30.757812 -54.304688 27.0625 -56.234375 C 23.375 -58.160156 20.003906 -60.328125 16.953125 -62.734375 C 13.898438 -65.148438 11.4375 -68.363281 9.5625 -72.375 C 7.6875 -76.394531 6.75 -80.976562 6.75 -86.125 C 6.75 -91.800781 7.898438 -96.804688 10.203125 -101.140625 C 12.503906 -105.484375 15.582031 -108.859375 19.4375 -111.265625 C 23.289062 -113.671875 27.414062 -115.4375 31.8125 -116.5625 C 36.207031 -117.6875 40.867188 -118.25 45.796875 -118.25 C 48.578125 -118.25 51.519531 -118.0625 54.625 -117.6875 C 57.726562 -117.3125 61.019531 -116.695312 64.5 -115.84375 C 67.988281 -114.988281 70.828125 -113.648438 73.015625 -111.828125 C 75.210938 -110.003906 76.3125 -107.863281 76.3125 -105.40625 C 76.3125 -103.039062 75.5625 -100.597656 74.0625 -98.078125 C 72.570312 -95.566406 70.539062 -94.3125 67.96875 -94.3125 C 67 -94.3125 64.375 -95.328125 60.09375 -97.359375 C 55.8125 -99.398438 51.046875 -100.421875 45.796875 -100.421875 C 40.003906 -100.421875 35.53125 -99.320312 32.375 -97.125 C 29.21875 -94.925781 27.640625 -91.898438 27.640625 -88.046875 C 27.640625 -84.941406 28.921875 -82.238281 31.484375 -79.9375 C 34.054688 -77.632812 37.242188 -75.757812 41.046875 -74.3125 C 44.847656 -72.863281 48.972656 -71.039062 53.421875 -68.84375 C 57.867188 -66.644531 61.992188 -64.257812 65.796875 -61.6875 C 69.597656 -59.125 72.785156 -55.40625 75.359375 -50.53125 C 77.929688 -45.65625 79.21875 -39.953125 79.21875 -33.421875 C 79.21875 -22.273438 75.707031 -13.675781 68.6875 -7.625 C 61.664062 -1.570312 52.425781 1.453125 40.96875 1.453125 C 30.789062 1.453125 22.0625 -0.632812 14.78125 -4.8125 C 7.5 -9 3.859375 -13.554688 3.859375 -18.484375 Z M 3.859375 -18.484375 "/></g></g></g><g fill="#bed7dc" fill-opacity="0.4"><g transform="translate(231.025404, 250.283629)"><g/></g></g><g fill="#f9d767" fill-opacity="1"><g transform="translate(140.055039, 243.182308)"><g><path d="M 3.859375 -18.484375 C 3.859375 -20.941406 4.796875 -23.425781 6.671875 -25.9375 C 8.546875 -28.457031 10.660156 -29.71875 13.015625 -29.71875 C 14.410156 -29.71875 15.988281 -29.078125 17.75 -27.796875 C 19.519531 -26.515625 21.234375 -25.09375 22.890625 -23.53125 C 24.554688 -21.976562 26.941406 -20.5625 30.046875 -19.28125 C 33.148438 -18 36.578125 -17.359375 40.328125 -17.359375 C 45.472656 -17.359375 49.757812 -18.535156 53.1875 -20.890625 C 56.613281 -23.242188 58.328125 -26.722656 58.328125 -31.328125 C 58.328125 -34.546875 57.390625 -37.410156 55.515625 -39.921875 C 53.640625 -42.441406 51.175781 -44.53125 48.125 -46.1875 C 45.070312 -47.851562 41.722656 -49.460938 38.078125 -51.015625 C 34.429688 -52.566406 30.757812 -54.304688 27.0625 -56.234375 C 23.375 -58.160156 20.003906 -60.328125 16.953125 -62.734375 C 13.898438 -65.148438 11.4375 -68.363281 9.5625 -72.375 C 7.6875 -76.394531 6.75 -80.976562 6.75 -86.125 C 6.75 -91.800781 7.898438 -96.804688 10.203125 -101.140625 C 12.503906 -105.484375 15.582031 -108.859375 19.4375 -111.265625 C 23.289062 -113.671875 27.414062 -115.4375 31.8125 -116.5625 C 36.207031 -117.6875 40.867188 -118.25 45.796875 -118.25 C 48.578125 -118.25 51.519531 -118.0625 54.625 -117.6875 C 57.726562 -117.3125 61.019531 -116.695312 64.5 -115.84375 C 67.988281 -114.988281 70.828125 -113.648438 73.015625 -111.828125 C 75.210938 -110.003906 76.3125 -107.863281 76.3125 -105.40625 C 76.3125 -103.039062 75.5625 -100.597656 74.0625 -98.078125 C 72.570312 -95.566406 70.539062 -94.3125 67.96875 -94.3125 C 67 -94.3125 64.375 -95.328125 60.09375 -97.359375 C 55.8125 -99.398438 51.046875 -100.421875 45.796875 -100.421875 C 40.003906 -100.421875 35.53125 -99.320312 32.375 -97.125 C 29.21875 -94.925781 27.640625 -91.898438 27.640625 -88.046875 C 27.640625 -84.941406 28.921875 -82.238281 31.484375 -79.9375 C 34.054688 -77.632812 37.242188 -75.757812 41.046875 -74.3125 C 44.847656 -72.863281 48.972656 -71.039062 53.421875 -68.84375 C 57.867188 -66.644531 61.992188 -64.257812 65.796875 -61.6875 C 69.597656 -59.125 72.785156 -55.40625 75.359375 -50.53125 C 77.929688 -45.65625 79.21875 -39.953125 79.21875 -33.421875 C 79.21875 -22.273438 75.707031 -13.675781 68.6875 -7.625 C 61.664062 -1.570312 52.425781 1.453125 40.96875 1.453125 C 30.789062 1.453125 22.0625 -0.632812 14.78125 -4.8125 C 7.5 -9 3.859375 -13.554688 3.859375 -18.484375 Z M 3.859375 -18.484375 "/></g></g></g><g fill="#f9d767" fill-opacity="1"><g transform="translate(223.924084, 243.182308)"><g/></g></g><g fill="#bed7dc" fill-opacity="0.4"><g transform="translate(263.197654, 250.283629)"><g><path d="M 9.640625 -6.59375 L 9.640625 -107 C 9.640625 -110.539062 10.628906 -113.164062 12.609375 -114.875 C 14.585938 -116.59375 17.078125 -117.453125 20.078125 -117.453125 C 24.046875 -117.453125 27.097656 -116.753906 29.234375 -115.359375 C 31.378906 -113.972656 33.738281 -110.972656 36.3125 -106.359375 L 56.078125 -70.375 L 75.84375 -106.359375 C 78.40625 -110.972656 80.785156 -113.972656 82.984375 -115.359375 C 85.179688 -116.753906 88.257812 -117.453125 92.21875 -117.453125 C 95.21875 -117.453125 97.707031 -116.59375 99.6875 -114.875 C 101.675781 -113.164062 102.671875 -110.539062 102.671875 -107 L 102.671875 -6.59375 C 102.671875 -4.550781 101.625 -2.941406 99.53125 -1.765625 C 97.445312 -0.585938 95.007812 0 92.21875 0 C 89.332031 0 86.867188 -0.585938 84.828125 -1.765625 C 82.796875 -2.941406 81.78125 -4.550781 81.78125 -6.59375 L 81.78125 -75.671875 L 62.984375 -42.25 C 61.484375 -39.46875 59.125 -38.078125 55.90625 -38.078125 C 52.800781 -38.078125 50.5 -39.46875 49 -42.25 L 30.53125 -76.96875 L 30.53125 -6.59375 C 30.53125 -4.550781 29.484375 -2.941406 27.390625 -1.765625 C 25.304688 -0.585938 22.867188 0 20.078125 0 C 17.191406 0 14.726562 -0.585938 12.6875 -1.765625 C 10.65625 -2.941406 9.640625 -4.550781 9.640625 -6.59375 Z M 9.640625 -6.59375 "/></g></g></g><g fill="#058f84" fill-opacity="1"><g transform="translate(256.096335, 243.182308)"><g><path d="M 9.640625 -6.59375 L 9.640625 -107 C 9.640625 -110.539062 10.628906 -113.164062 12.609375 -114.875 C 14.585938 -116.59375 17.078125 -117.453125 20.078125 -117.453125 C 24.046875 -117.453125 27.097656 -116.753906 29.234375 -115.359375 C 31.378906 -113.972656 33.738281 -110.972656 36.3125 -106.359375 L 56.078125 -70.375 L 75.84375 -106.359375 C 78.40625 -110.972656 80.785156 -113.972656 82.984375 -115.359375 C 85.179688 -116.753906 88.257812 -117.453125 92.21875 -117.453125 C 95.21875 -117.453125 97.707031 -116.59375 99.6875 -114.875 C 101.675781 -113.164062 102.671875 -110.539062 102.671875 -107 L 102.671875 -6.59375 C 102.671875 -4.550781 101.625 -2.941406 99.53125 -1.765625 C 97.445312 -0.585938 95.007812 0 92.21875 0 C 89.332031 0 86.867188 -0.585938 84.828125 -1.765625 C 82.796875 -2.941406 81.78125 -4.550781 81.78125 -6.59375 L 81.78125 -75.671875 L 62.984375 -42.25 C 61.484375 -39.46875 59.125 -38.078125 55.90625 -38.078125 C 52.800781 -38.078125 50.5 -39.46875 49 -42.25 L 30.53125 -76.96875 L 30.53125 -6.59375 C 30.53125 -4.550781 29.484375 -2.941406 27.390625 -1.765625 C 25.304688 -0.585938 22.867188 0 20.078125 0 C 17.191406 0 14.726562 -0.585938 12.6875 -1.765625 C 10.65625 -2.941406 9.640625 -4.550781 9.640625 -6.59375 Z M 9.640625 -6.59375 "/></g></g></g></svg>