<svg xmlns="http://www.w3.org/2000/svg" xmlns:xlink="http://www.w3.org/1999/xlink" width="500" zoomAndPan="magnify" viewBox="0 0 375 374.999991" height="500" preserveAspectRatio="xMidYMid meet" version="1.0"><defs><filter x="0%" y="0%" width="100%" height="100%" id="b80c7b977c"><feColorMatrix values="0 0 0 0 1 0 0 0 0 1 0 0 0 0 1 0 0 0 1 0" color-interpolation-filters="sRGB"/></filter><g/><mask id="caf1e05f16"><g filter="url(#b80c7b977c)"><rect x="-37.5" width="450" fill="#000000" y="-37.499999" height="449.999989" fill-opacity="0.4"/></g></mask><clipPath id="2f12d2682d"><path d="M 67 15 L 337 15 L 337 303 L 67 303 Z M 67 15 " clip-rule="nonzero"/></clipPath><clipPath id="efaabb4053"><path d="M 269.066406 352 L -0.121094 235.667969 L 116.503906 -34.207031 L 385.691406 82.121094 Z M 269.066406 352 " clip-rule="nonzero"/></clipPath><clipPath id="5121600d88"><path d="M 269.066406 352 L -0.121094 235.667969 L 116.503906 -34.207031 L 385.691406 82.121094 Z M 269.066406 352 " clip-rule="nonzero"/></clipPath><clipPath id="08613a9e8d"><path d="M 200 14 L 234 14 L 234 21 L 200 21 Z M 200 14 " clip-rule="nonzero"/></clipPath><clipPath id="dd68c704e8"><path d="M 269.066406 352 L -0.121094 235.667969 L 116.503906 -34.207031 L 385.691406 82.121094 Z M 269.066406 352 " clip-rule="nonzero"/></clipPath><clipPath id="98f3dcf94f"><path d="M 269.066406 352 L -0.121094 235.667969 L 116.503906 -34.207031 L 385.691406 82.121094 Z M 269.066406 352 " clip-rule="nonzero"/></clipPath><clipPath id="550bba3ea7"><path d="M 257 28 L 284 28 L 284 41 L 257 41 Z M 257 28 " clip-rule="nonzero"/></clipPath><clipPath id="343970e534"><path d="M 269.066406 352 L -0.121094 235.667969 L 116.503906 -34.207031 L 385.691406 82.121094 Z M 269.066406 352 " clip-rule="nonzero"/></clipPath><clipPath id="786d3123a5"><path d="M 269.066406 352 L -0.121094 235.667969 L 116.503906 -34.207031 L 385.691406 82.121094 Z M 269.066406 352 " clip-rule="nonzero"/></clipPath><clipPath id="95bbb287ed"><path d="M 287 44 L 291 44 L 291 47 L 287 47 Z M 287 44 " clip-rule="nonzero"/></clipPath><clipPath id="e3c733027e"><path d="M 269.066406 352 L -0.121094 235.667969 L 116.503906 -34.207031 L 385.691406 82.121094 Z M 269.066406 352 " clip-rule="nonzero"/></clipPath><clipPath id="a4139edb7a"><path d="M 269.066406 352 L -0.121094 235.667969 L 116.503906 -34.207031 L 385.691406 82.121094 Z M 269.066406 352 " clip-rule="nonzero"/></clipPath><clipPath id="b9b0755b29"><path d="M 129 289 L 141 289 L 141 295 L 129 295 Z M 129 289 " clip-rule="nonzero"/></clipPath><clipPath id="6c46d3e522"><path d="M 269.066406 352 L -0.121094 235.667969 L 116.503906 -34.207031 L 385.691406 82.121094 Z M 269.066406 352 " clip-rule="nonzero"/></clipPath><clipPath id="4faddf2944"><path d="M 269.066406 352 L -0.121094 235.667969 L 116.503906 -34.207031 L 385.691406 82.121094 Z M 269.066406 352 " clip-rule="nonzero"/></clipPath><clipPath id="074ebc77ce"><path d="M 145 295 L 160 295 L 160 300 L 145 300 Z M 145 295 " clip-rule="nonzero"/></clipPath><clipPath id="44f126e710"><path d="M 269.066406 352 L -0.121094 235.667969 L 116.503906 -34.207031 L 385.691406 82.121094 Z M 269.066406 352 " clip-rule="nonzero"/></clipPath><clipPath id="0cef367a87"><path d="M 269.066406 352 L -0.121094 235.667969 L 116.503906 -34.207031 L 385.691406 82.121094 Z M 269.066406 352 " clip-rule="nonzero"/></clipPath><clipPath id="753b719128"><path d="M 260 284 L 263 284 L 263 288 L 260 288 Z M 260 284 " clip-rule="nonzero"/></clipPath><clipPath id="b4f75a5ab2"><path d="M 269.066406 352 L -0.121094 235.667969 L 116.503906 -34.207031 L 385.691406 82.121094 Z M 269.066406 352 " clip-rule="nonzero"/></clipPath><clipPath id="ab983a6fa4"><path d="M 269.066406 352 L -0.121094 235.667969 L 116.503906 -34.207031 L 385.691406 82.121094 Z M 269.066406 352 " clip-rule="nonzero"/></clipPath><clipPath id="5dfa8caa9a"><path d="M 297 85 L 324 85 L 324 135 L 297 135 Z M 297 85 " clip-rule="nonzero"/></clipPath><clipPath id="77bafd0c54"><path d="M 269.066406 352 L -0.121094 235.667969 L 116.503906 -34.207031 L 385.691406 82.121094 Z M 269.066406 352 " clip-rule="nonzero"/></clipPath><clipPath id="bef14f21d5"><path d="M 269.066406 352 L -0.121094 235.667969 L 116.503906 -34.207031 L 385.691406 82.121094 Z M 269.066406 352 " clip-rule="nonzero"/></clipPath><clipPath id="49b48d58be"><rect x="0" width="366" y="0" height="352"/></clipPath><mask id="2819881f4d"><g filter="url(#b80c7b977c)"><rect x="-37.5" width="450" fill="#000000" y="-37.499999" height="449.999989" fill-opacity="0.4"/></g></mask><clipPath id="d2143bfc56"><path d="M 46 34 L 232 34 L 232 232 L 46 232 Z M 46 34 " clip-rule="nonzero"/></clipPath><clipPath id="669b17a8c2"><path d="M 185.042969 264.996094 L 0.535156 185.261719 L 80.269531 0.753906 L 264.777344 80.488281 Z M 185.042969 264.996094 " clip-rule="nonzero"/></clipPath><clipPath id="4c52fe08a5"><path d="M 185.042969 264.996094 L 0.535156 185.261719 L 80.269531 0.753906 L 264.777344 80.488281 Z M 185.042969 264.996094 " clip-rule="nonzero"/></clipPath><clipPath id="e1446d29b7"><path d="M 138 33 L 161 33 L 161 39 L 138 39 Z M 138 33 " clip-rule="nonzero"/></clipPath><clipPath id="b9bd5b0ccc"><path d="M 185.042969 264.996094 L 0.535156 185.261719 L 80.269531 0.753906 L 264.777344 80.488281 Z M 185.042969 264.996094 " clip-rule="nonzero"/></clipPath><clipPath id="5e98d378e3"><path d="M 185.042969 264.996094 L 0.535156 185.261719 L 80.269531 0.753906 L 264.777344 80.488281 Z M 185.042969 264.996094 " clip-rule="nonzero"/></clipPath><clipPath id="78a71f0b8e"><path d="M 176 43 L 196 43 L 196 52 L 176 52 Z M 176 43 " clip-rule="nonzero"/></clipPath><clipPath id="205d4e854f"><path d="M 185.042969 264.996094 L 0.535156 185.261719 L 80.269531 0.753906 L 264.777344 80.488281 Z M 185.042969 264.996094 " clip-rule="nonzero"/></clipPath><clipPath id="4d4393610f"><path d="M 185.042969 264.996094 L 0.535156 185.261719 L 80.269531 0.753906 L 264.777344 80.488281 Z M 185.042969 264.996094 " clip-rule="nonzero"/></clipPath><clipPath id="6cfeccd0e0"><path d="M 197 54 L 200 54 L 200 56 L 197 56 Z M 197 54 " clip-rule="nonzero"/></clipPath><clipPath id="0023607f4e"><path d="M 185.042969 264.996094 L 0.535156 185.261719 L 80.269531 0.753906 L 264.777344 80.488281 Z M 185.042969 264.996094 " clip-rule="nonzero"/></clipPath><clipPath id="9bfa64315b"><path d="M 185.042969 264.996094 L 0.535156 185.261719 L 80.269531 0.753906 L 264.777344 80.488281 Z M 185.042969 264.996094 " clip-rule="nonzero"/></clipPath><clipPath id="a620436d86"><path d="M 89 222 L 97 222 L 97 226 L 89 226 Z M 89 222 " clip-rule="nonzero"/></clipPath><clipPath id="862a1f5131"><path d="M 185.042969 264.996094 L 0.535156 185.261719 L 80.269531 0.753906 L 264.777344 80.488281 Z M 185.042969 264.996094 " clip-rule="nonzero"/></clipPath><clipPath id="c08a7dc892"><path d="M 185.042969 264.996094 L 0.535156 185.261719 L 80.269531 0.753906 L 264.777344 80.488281 Z M 185.042969 264.996094 " clip-rule="nonzero"/></clipPath><clipPath id="4c3ce68ec3"><path d="M 100 226 L 110 226 L 110 229 L 100 229 Z M 100 226 " clip-rule="nonzero"/></clipPath><clipPath id="5b0b0ef01a"><path d="M 185.042969 264.996094 L 0.535156 185.261719 L 80.269531 0.753906 L 264.777344 80.488281 Z M 185.042969 264.996094 " clip-rule="nonzero"/></clipPath><clipPath id="e468e4bbca"><path d="M 185.042969 264.996094 L 0.535156 185.261719 L 80.269531 0.753906 L 264.777344 80.488281 Z M 185.042969 264.996094 " clip-rule="nonzero"/></clipPath><clipPath id="43ac4e108b"><path d="M 178 218 L 181 218 L 181 221 L 178 221 Z M 178 218 " clip-rule="nonzero"/></clipPath><clipPath id="f4f05cd241"><path d="M 185.042969 264.996094 L 0.535156 185.261719 L 80.269531 0.753906 L 264.777344 80.488281 Z M 185.042969 264.996094 " clip-rule="nonzero"/></clipPath><clipPath id="c218734df6"><path d="M 185.042969 264.996094 L 0.535156 185.261719 L 80.269531 0.753906 L 264.777344 80.488281 Z M 185.042969 264.996094 " clip-rule="nonzero"/></clipPath><clipPath id="a6a3efae09"><path d="M 204 82 L 223 82 L 223 117 L 204 117 Z M 204 82 " clip-rule="nonzero"/></clipPath><clipPath id="c637329607"><path d="M 185.042969 264.996094 L 0.535156 185.261719 L 80.269531 0.753906 L 264.777344 80.488281 Z M 185.042969 264.996094 " clip-rule="nonzero"/></clipPath><clipPath id="06c1d4b9b2"><path d="M 185.042969 264.996094 L 0.535156 185.261719 L 80.269531 0.753906 L 264.777344 80.488281 Z M 185.042969 264.996094 " clip-rule="nonzero"/></clipPath><clipPath id="bc61d7a8b1"><rect x="0" width="266" y="0" height="265"/></clipPath><mask id="6eeb4e9499"><g filter="url(#b80c7b977c)"><rect x="-37.5" width="450" fill="#000000" y="-37.499999" height="449.999989" fill-opacity="0.4"/></g></mask><clipPath id="be55dc60e7"><path d="M 69 43 L 280 43 L 280 282 L 69 282 Z M 69 43 " clip-rule="nonzero"/></clipPath><clipPath id="412b2b981e"><path d="M -0.523438 214.226562 L 110.285156 0.492188 L 324.019531 111.300781 L 213.207031 325.035156 Z M -0.523438 214.226562 " clip-rule="nonzero"/></clipPath><clipPath id="4ce57dcea0"><path d="M 110.28125 0.503906 L -0.53125 214.234375 L 213.203125 325.046875 L 324.011719 111.3125 Z M 110.28125 0.503906 " clip-rule="nonzero"/></clipPath><clipPath id="8bda585bbf"><path d="M 241 229 L 260 229 L 260 250 L 241 250 Z M 241 229 " clip-rule="nonzero"/></clipPath><clipPath id="1a5afffe23"><path d="M -0.523438 214.226562 L 110.285156 0.492188 L 324.019531 111.300781 L 213.207031 325.035156 Z M -0.523438 214.226562 " clip-rule="nonzero"/></clipPath><clipPath id="66efa4c254"><path d="M 110.28125 0.503906 L -0.53125 214.234375 L 213.203125 325.046875 L 324.011719 111.3125 Z M 110.28125 0.503906 " clip-rule="nonzero"/></clipPath><clipPath id="10a41b7595"><path d="M 270 190 L 282 190 L 282 213 L 270 213 Z M 270 190 " clip-rule="nonzero"/></clipPath><clipPath id="403c5223e4"><path d="M -0.523438 214.226562 L 110.285156 0.492188 L 324.019531 111.300781 L 213.207031 325.035156 Z M -0.523438 214.226562 " clip-rule="nonzero"/></clipPath><clipPath id="f9e906d20b"><path d="M 110.28125 0.503906 L -0.53125 214.234375 L 213.203125 325.046875 L 324.011719 111.3125 Z M 110.28125 0.503906 " clip-rule="nonzero"/></clipPath><clipPath id="467be87e46"><path d="M 280 184 L 283 184 L 283 187 L 280 187 Z M 280 184 " clip-rule="nonzero"/></clipPath><clipPath id="cb19498329"><path d="M -0.523438 214.226562 L 110.285156 0.492188 L 324.019531 111.300781 L 213.207031 325.035156 Z M -0.523438 214.226562 " clip-rule="nonzero"/></clipPath><clipPath id="ffe50dfa9a"><path d="M 110.28125 0.503906 L -0.53125 214.234375 L 213.203125 325.046875 L 324.011719 111.3125 Z M 110.28125 0.503906 " clip-rule="nonzero"/></clipPath><clipPath id="8fd3f8dc37"><path d="M 53 103 L 59 103 L 59 113 L 53 113 Z M 53 103 " clip-rule="nonzero"/></clipPath><clipPath id="2e226bc561"><path d="M -0.523438 214.226562 L 110.285156 0.492188 L 324.019531 111.300781 L 213.207031 325.035156 Z M -0.523438 214.226562 " clip-rule="nonzero"/></clipPath><clipPath id="9c03c2323b"><path d="M 110.28125 0.503906 L -0.53125 214.234375 L 213.203125 325.046875 L 324.011719 111.3125 Z M 110.28125 0.503906 " clip-rule="nonzero"/></clipPath><clipPath id="156c85869b"><path d="M 61 90 L 69 90 L 69 101 L 61 101 Z M 61 90 " clip-rule="nonzero"/></clipPath><clipPath id="bf2e107b94"><path d="M -0.523438 214.226562 L 110.285156 0.492188 L 324.019531 111.300781 L 213.207031 325.035156 Z M -0.523438 214.226562 " clip-rule="nonzero"/></clipPath><clipPath id="3ee174e40f"><path d="M 110.28125 0.503906 L -0.53125 214.234375 L 213.203125 325.046875 L 324.011719 111.3125 Z M 110.28125 0.503906 " clip-rule="nonzero"/></clipPath><clipPath id="78faa6ed9e"><path d="M 138 45 L 141 45 L 141 48 L 138 48 Z M 138 45 " clip-rule="nonzero"/></clipPath><clipPath id="1e98a0a6f2"><path d="M -0.523438 214.226562 L 110.285156 0.492188 L 324.019531 111.300781 L 213.207031 325.035156 Z M -0.523438 214.226562 " clip-rule="nonzero"/></clipPath><clipPath id="9ca58117d2"><path d="M 110.28125 0.503906 L -0.53125 214.234375 L 213.203125 325.046875 L 324.011719 111.3125 Z M 110.28125 0.503906 " clip-rule="nonzero"/></clipPath><clipPath id="04daf01d85"><path d="M 257 110 L 268 110 L 268 156 L 257 156 Z M 257 110 " clip-rule="nonzero"/></clipPath><clipPath id="cf2b58abbe"><path d="M -0.523438 214.226562 L 110.285156 0.492188 L 324.019531 111.300781 L 213.207031 325.035156 Z M -0.523438 214.226562 " clip-rule="nonzero"/></clipPath><clipPath id="f208575507"><path d="M 110.28125 0.503906 L -0.53125 214.234375 L 213.203125 325.046875 L 324.011719 111.3125 Z M 110.28125 0.503906 " clip-rule="nonzero"/></clipPath><clipPath id="99fbe291a0"><rect x="0" width="285" y="0" height="325"/></clipPath></defs><g mask="url(#caf1e05f16)"><g transform="matrix(1, 0, 0, 1, 9, 0)"><g clip-path="url(#49b48d58be)"><g clip-path="url(#2f12d2682d)"><g clip-path="url(#efaabb4053)"><g clip-path="url(#5121600d88)"><path fill="#e86c44" d="M 83.523438 62.878906 C 81.089844 65.585938 76.582031 68.875 73.132812 72.605469 C 69.765625 76.375 66.929688 80.195312 67.027344 82.769531 C 67.164062 85.984375 70.769531 83.128906 71.902344 83.785156 C 72.964844 84.375 75.339844 87.199219 78.042969 89.703125 C 80.746094 92.210938 83.75 94.441406 85.859375 94.234375 C 87.265625 94.09375 89.417969 92.230469 91.9375 89.394531 C 93.25 88 94.464844 86.234375 96.078125 84.523438 C 97.695312 82.8125 99.390625 80.984375 101.113281 79.042969 L 103.710938 76.097656 C 104.628906 75.148438 105.648438 74.273438 106.605469 73.347656 C 108.539062 71.527344 110.464844 69.703125 112.324219 67.949219 C 116.246094 64.6875 120.101562 61.933594 123.015625 59.871094 C 133.386719 53.6875 144.234375 48.492188 155.558594 44.289062 C 166.53125 40.707031 177.910156 37.921875 191.191406 37.023438 C 209.332031 36.171875 225.351562 39.800781 240.714844 45.675781 C 256.117188 51.738281 271.1875 59.867188 288.015625 72.574219 C 297.742188 80.589844 305.832031 90.011719 312.28125 100.839844 C 319.464844 112.839844 324.582031 127.277344 327.046875 142.058594 C 329.515625 156.84375 329.191406 171.949219 326.960938 185.4375 C 326.304688 188.800781 325.660156 192.085938 325.039062 195.269531 C 324.117188 198.390625 323.226562 201.410156 322.367188 204.324219 C 321.640625 207.300781 320.523438 210 319.5 212.601562 C 318.511719 215.234375 317.570312 217.734375 316.683594 220.085938 C 317.140625 218.65625 319.011719 220.433594 316.683594 220.085938 C 310.992188 230.53125 303.347656 242.253906 293.035156 253.015625 C 282.722656 263.777344 269.828125 273.253906 255.878906 280.488281 C 241.929688 287.722656 226.929688 292.613281 212.796875 295.433594 L 202.375 297.136719 C 198.976562 297.632812 195.664062 297.738281 192.453125 298.089844 L 187.710938 298.546875 C 186.167969 298.621094 184.660156 298.597656 183.175781 298.640625 C 180.207031 298.691406 177.359375 298.78125 174.640625 298.910156 C 181.03125 298.578125 177.597656 298.875 172.683594 299.183594 C 167.84375 299.132812 161.363281 299.046875 162.011719 299.5 C 163.664062 300.65625 165.726562 301.429688 167.992188 301.957031 C 170.371094 302.546875 172.785156 302.785156 175.234375 302.671875 L 189.234375 301.992188 L 198.777344 301.640625 L 201.136719 301.53125 L 203.484375 301.207031 L 208.144531 300.5625 C 214.355469 299.933594 220.34375 298.316406 226.273438 297.03125 C 238.015625 293.847656 249.285156 290.234375 260.222656 285.875 C 258.542969 282.898438 264.078125 283.179688 265.398438 281.570312 C 264.425781 276.644531 272.148438 279.496094 265.398438 281.570312 C 267.1875 281.40625 269.800781 280.253906 272.835938 278.734375 C 274.347656 277.972656 275.953125 277.085938 277.585938 276.152344 C 279.21875 275.21875 280.710938 273.960938 282.253906 272.855469 C 285.261719 270.503906 288.316406 268.394531 290.40625 266.28125 L 294.730469 262.0625 C 296.015625 260.816406 298.046875 259.460938 300.160156 257.652344 C 302.214844 255.792969 304.5625 253.699219 306.882812 251.445312 C 309.300781 249.277344 311.292969 246.621094 312.949219 243.960938 C 314.605469 241.296875 315.949219 238.65625 316.519531 236.105469 C 316.472656 236.480469 314.640625 239.105469 311.847656 243.023438 C 310.378906 244.921875 308.945312 247.378906 306.804688 249.554688 C 304.765625 251.816406 302.539062 254.238281 300.269531 256.726562 C 290.699219 266.207031 278.585938 274.820312 273.167969 276.820312 C 271.214844 277.664062 272.140625 276.808594 274.667969 274.988281 L 276.859375 273.457031 C 277.628906 272.828125 278.46875 272.136719 279.371094 271.398438 C 281.175781 269.953125 283.210938 268.320312 285.332031 266.613281 C 287.535156 265.027344 289.453125 262.902344 291.484375 261.035156 C 293.472656 259.117188 295.457031 257.296875 297.1875 255.5625 L 304.058594 247.695312 C 305.347656 246.355469 306.863281 243.242188 308.34375 240.296875 C 309.828125 237.355469 311.394531 234.589844 312.617188 233.53125 C 312.804688 233.34375 316.527344 233.023438 316.527344 233.023438 C 317.269531 231.550781 317.292969 229.621094 317.625 227.328125 C 317.800781 226.0625 318.097656 224.824219 318.519531 223.617188 C 319.09375 222.121094 319.75 220.65625 320.484375 219.230469 C 322.707031 215.230469 323.320312 216.207031 323.144531 218.496094 C 322.964844 220.785156 322.015625 224.382812 321.011719 225.210938 C 322.738281 223.679688 323.980469 221.679688 325.316406 219.550781 C 326.65625 217.425781 327.910156 215.082031 329.136719 212.601562 C 330.363281 210.125 331.09375 207.316406 332.03125 204.503906 C 332.453125 203.085938 332.882812 201.648438 333.324219 200.1875 L 333.925781 197.96875 L 334.328125 195.664062 C 336.921875 183.425781 336.808594 170.03125 336.683594 157.605469 C 336.046875 144.339844 333.808594 131.355469 329.960938 118.644531 C 325.941406 106.140625 320.371094 94.703125 314.628906 84.789062 C 302.433594 64.8125 285.203125 50.441406 266.722656 40.914062 C 264.492188 39.558594 261.984375 38.765625 259.628906 37.664062 L 252.527344 34.59375 L 245.183594 32.238281 C 242.730469 31.503906 240.359375 30.507812 237.824219 30.058594 C 232.804688 29.058594 227.90625 27.476562 222.769531 26.988281 L 215.121094 25.832031 C 212.554688 25.542969 209.964844 25.480469 207.351562 25.25 C 206.253906 25.210938 203.773438 24.707031 200.625 24.417969 L 189.851562 23.847656 C 186.09375 23.785156 182.445312 24.1875 179.660156 24.402344 C 176.875 24.613281 174.972656 25.019531 174.773438 25.527344 C 175.0625 24.808594 177.238281 24.152344 180.4375 23.425781 C 183.644531 22.792969 187.839844 21.734375 192.285156 21.667969 C 201.140625 20.789062 210.601562 21.894531 213.804688 22.214844 C 216.023438 22.507812 218.46875 23.167969 221.128906 23.632812 C 223.757812 24.230469 226.636719 24.515625 229.5 25.394531 L 238.339844 27.886719 L 240.585938 28.503906 L 242.765625 29.335938 L 247.097656 30.988281 C 258.648438 35.167969 268.433594 40.964844 272.835938 43.554688 C 273.234375 43.777344 274.898438 44.5625 277.109375 45.566406 C 279.261719 46.65625 281.789062 48.210938 284.214844 49.492188 C 286.640625 50.773438 288.847656 51.925781 290.117188 52.488281 C 291.328125 53.109375 291.691406 53.023438 290.503906 51.695312 C 275.828125 36.816406 254.265625 26.523438 232.132812 22.113281 C 230.746094 21.824219 229.382812 21.449219 227.984375 21.234375 L 223.789062 20.703125 L 215.4375 19.621094 C 212.648438 19.433594 209.875 19.382812 207.105469 19.230469 C 204.339844 19.078125 201.589844 18.824219 198.851562 19.023438 C 193.386719 19.238281 187.957031 19.046875 182.675781 19.6875 C 180.019531 19.886719 177.378906 20.054688 174.746094 20.191406 C 172.15625 20.535156 169.585938 20.871094 167.019531 21.132812 C 165.902344 22.1875 163.96875 22.878906 161.660156 23.367188 C 159.21875 24.046875 156.746094 24.59375 154.246094 25.003906 C 151.714844 25.476562 149.214844 25.769531 147.390625 26.289062 C 145.570312 26.8125 144.347656 27.382812 144.203125 27.929688 C 144.5625 26.582031 145.742188 25.519531 147.394531 24.644531 C 149.109375 23.910156 151.320312 23.425781 153.660156 23.019531 L 160.773438 21.960938 C 163.113281 21.753906 165.296875 21.585938 167.019531 21.117188 C 169.78125 20.398438 172.519531 19.523438 175.316406 18.933594 L 183.78125 17.453125 L 188.023438 16.734375 L 192.3125 16.394531 L 200.914062 15.730469 C 190.253906 15.554688 179.675781 16.402344 169.179688 18.265625 C 158.683594 20.132812 148.464844 22.988281 138.519531 26.828125 C 133.226562 28.554688 128.402344 31.308594 123.324219 33.617188 C 120.746094 34.722656 118.46875 36.316406 116.050781 37.691406 L 108.867188 41.964844 C 104.429688 45.25 99.789062 48.347656 95.558594 51.847656 L 89.402344 57.273438 C 87.347656 59.070312 85.292969 60.859375 83.523438 62.878906 Z M 80.078125 82.164062 C 79.117188 82.335938 79.515625 79.113281 80.078125 79.011719 C 81.023438 78.859375 80.625 82.082031 80.078125 82.164062 Z M 110.011719 46.226562 C 107.488281 45.550781 123.75 34.355469 114.207031 42.839844 C 113.621094 43.339844 110.652344 46.238281 110.011719 46.230469 Z M 120.496094 40.042969 C 119.410156 39.8125 122.765625 36.738281 125.550781 35.304688 C 128.253906 33.738281 129.917969 33.222656 124.863281 36.960938 C 124.1875 37.320312 121.183594 40.199219 120.496094 40.046875 Z M 93.757812 67.5 Z M 130.21875 35.515625 C 129.257812 35.28125 134.917969 31.101562 139.273438 29.351562 C 143.519531 27.378906 145.757812 26.730469 137.054688 31.464844 C 134.753906 32.6875 131.300781 35.914062 130.21875 35.515625 Z M 100.972656 61.683594 C 100.011719 61.644531 101.007812 58.621094 101.578125 58.648438 C 102.511719 58.6875 101.527344 61.71875 100.980469 61.671875 Z M 105.40625 56.929688 C 103.582031 56.167969 110.914062 49.667969 111.078125 49.539062 C 117.191406 44.308594 126.761719 39.742188 134.058594 36.855469 C 136.851562 35.445312 141.691406 33.890625 144.484375 33.140625 C 147.277344 32.394531 148.121094 32.625 143.421875 35.355469 C 139.539062 37.34375 134.117188 40.140625 127.804688 42.878906 C 124.707031 44.34375 121.625 46.160156 118.390625 47.808594 C 115.09375 49.390625 112.136719 51.460938 109.234375 53.390625 C 108.726562 53.707031 105.878906 57.121094 105.410156 56.917969 Z M 152.03125 32.957031 C 151.175781 32.484375 153.308594 30.320312 153.800781 30.597656 C 154.628906 31.082031 152.511719 33.238281 152.03125 32.957031 Z M 157.902344 30.722656 C 156.980469 30.191406 161.003906 26.75 162.132812 27.429688 C 162.980469 27.984375 159.019531 31.410156 157.902344 30.722656 Z M 277.644531 54.105469 Z M 312.605469 90.5 C 312.898438 89.714844 312.152344 91.722656 312.605469 90.5 Z M 315.175781 94.644531 C 315.511719 93.726562 318.902344 96.066406 318.457031 97.035156 C 318.113281 97.90625 314.808594 95.554688 315.175781 94.644531 Z M 318.691406 101.058594 C 319.09375 100.199219 321.4375 102.078125 321.191406 102.578125 C 320.773438 103.410156 318.445312 101.554688 318.691406 101.058594 Z M 320.316406 104.347656 C 319.84375 105.246094 321.78125 106.910156 323.550781 108.789062 C 325.203125 110.710938 326.828125 112.773438 326.132812 113.921875 C 324.839844 112.882812 323.652344 111.738281 322.5625 110.488281 C 321.019531 108.515625 319.242188 106.375 320.316406 104.347656 Z M 325.976562 117.898438 C 327.578125 115.925781 331.628906 133.445312 327.535156 122.554688 L 326.597656 120.179688 C 326.152344 119.183594 325.789062 118.195312 325.976562 117.898438 Z M 328.84375 127.285156 C 328.84375 127.285156 329.800781 128.449219 330.679688 129.75 C 331.558594 131.050781 332.398438 132.46875 331.976562 132.90625 C 331.6875 132.796875 331.417969 132.648438 331.164062 132.46875 C 330.570312 132.121094 330.023438 131.714844 329.515625 131.246094 C 328.425781 130.226562 327.65625 128.855469 328.84375 127.292969 Z M 331.078125 136.871094 C 332.597656 135.195312 334.929688 153.078125 331.933594 141.722656 C 331.75 141.054688 330.59375 137.402344 331.078125 136.878906 Z M 332.855469 149.0625 C 332.550781 149.351562 332.863281 151.027344 333.449219 153.480469 L 334.480469 157.652344 C 334.765625 159.195312 334.984375 160.835938 335.214844 162.507812 C 335.632812 165.855469 336.15625 169.34375 335.96875 172.136719 C 335.707031 174.917969 335.152344 177.027344 334.097656 177.671875 C 335.121094 177.019531 334.539062 170.554688 333.167969 164.070312 C 332.355469 157.574219 330.546875 151.125 332.851562 149.070312 Z M 332.292969 179.960938 C 333.316406 179.289062 333.273438 183.101562 332.472656 185.554688 C 331.761719 188.027344 330.976562 189.203125 331.871094 183.675781 C 331.878906 183.175781 331.855469 180.203125 332.292969 179.960938 Z M 330.808594 188.527344 C 330.808594 188.527344 331.113281 190.007812 331.289062 191.570312 C 331.464844 193.128906 331.5 194.785156 331.003906 195.015625 C 330.78125 194.777344 330.59375 194.519531 330.4375 194.238281 C 330.074219 193.652344 329.777344 193.039062 329.542969 192.390625 C 329.042969 190.980469 329.007812 189.398438 330.796875 188.527344 Z M 327.355469 201.785156 Z M 326.191406 205.351562 C 327.140625 204.964844 327.410156 210.308594 326.019531 210.667969 C 325.105469 210.992188 324.96875 205.777344 326.179688 205.351562 Z M 252.449219 284.453125 C 253.378906 284.949219 250.355469 287.796875 249.4375 287.28125 C 248.519531 286.761719 251.542969 283.941406 252.449219 284.453125 Z M 244.070312 287.644531 C 245.171875 288.246094 241.648438 289.96875 239.042969 290.457031 C 236.4375 290.949219 235.003906 290.882812 240.46875 289.007812 C 240.9375 288.800781 243.644531 287.378906 244.070312 287.644531 Z M 301.660156 245.667969 Z M 291.410156 256.59375 C 291.410156 256.59375 290.808594 257.984375 290.054688 259.375 C 289.296875 260.765625 288.382812 262.148438 287.832031 262.058594 C 287.78125 261.738281 287.777344 261.417969 287.8125 261.097656 C 287.84375 260.40625 287.953125 259.730469 288.132812 259.0625 C 288.558594 257.625 289.4375 256.296875 291.410156 256.59375 Z M 282.96875 264.082031 C 285.535156 264.699219 271.265625 273.757812 279.972656 266.359375 C 280.355469 266.027344 282.480469 263.953125 282.96875 264.082031 Z M 271.773438 272.171875 C 274.253906 273.035156 259.148438 280.707031 268.5625 274.160156 C 268.96875 273.871094 271.300781 272 271.777344 272.164062 Z M 325.492188 197.332031 C 326.390625 196.988281 326.757812 199.925781 326.230469 200.132812 C 325.339844 200.4375 324.964844 197.515625 325.492188 197.332031 Z M 325.492188 197.332031 " fill-opacity="1" fill-rule="evenodd"/></g></g></g><g clip-path="url(#08613a9e8d)"><g clip-path="url(#dd68c704e8)"><g clip-path="url(#98f3dcf94f)"><path fill="#e86c44" d="M 200.914062 15.746094 C 202.445312 14.664062 205.152344 14.578125 208.375 14.824219 C 211.582031 15.148438 215.3125 15.625 218.804688 16.835938 C 222.316406 17.890625 225.65625 18.964844 228.3125 19.59375 C 230.941406 20.375 232.875 20.839844 233.6875 20.1875 C 232.488281 21.171875 230.121094 20.859375 227.058594 20.511719 C 223.996094 20.164062 220.324219 19.289062 216.671875 18.320312 C 213.015625 17.410156 209.328125 16.894531 206.4375 16.3125 C 203.542969 15.804688 201.433594 15.414062 200.914062 15.746094 Z M 200.914062 15.746094 " fill-opacity="1" fill-rule="evenodd"/></g></g></g><g clip-path="url(#550bba3ea7)"><g clip-path="url(#343970e534)"><g clip-path="url(#786d3123a5)"><path fill="#e86c44" d="M 257.195312 28.804688 C 257.378906 29.554688 263.835938 30.78125 270.4375 32.914062 C 276.765625 35.484375 283.585938 38.324219 283.664062 40.996094 C 283.675781 39.722656 277.226562 37.910156 270.988281 35.714844 C 267.929688 34.484375 264.558594 33.78125 262.039062 32.652344 C 259.496094 31.578125 257.65625 30.324219 257.195312 28.804688 Z M 257.195312 28.804688 " fill-opacity="1" fill-rule="evenodd"/></g></g></g><g clip-path="url(#95bbb287ed)"><g clip-path="url(#e3c733027e)"><g clip-path="url(#a4139edb7a)"><path fill="#e86c44" d="M 287.078125 45.378906 C 286.996094 44.414062 290.136719 45.109375 290.179688 45.679688 C 290.230469 46.632812 287.105469 45.941406 287.078125 45.378906 Z M 287.078125 45.378906 " fill-opacity="1" fill-rule="evenodd"/></g></g></g><g clip-path="url(#b9b0755b29)"><g clip-path="url(#6c46d3e522)"><g clip-path="url(#4faddf2944)"><path fill="#e86c44" d="M 140.46875 294.0625 C 141.332031 296.746094 119.53125 285.339844 135.367188 291.78125 C 136.132812 292.09375 140.230469 293.3125 140.46875 294.0625 Z M 140.46875 294.0625 " fill-opacity="1" fill-rule="evenodd"/></g></g></g><g clip-path="url(#074ebc77ce)"><g clip-path="url(#44f126e710)"><g clip-path="url(#0cef367a87)"><path fill="#e86c44" d="M 159.332031 298.902344 C 160.449219 301.589844 137.699219 293.425781 148.824219 295.550781 C 148.722656 295.53125 151.1875 296.015625 153.742188 296.683594 C 156.296875 297.351562 158.929688 298.261719 159.332031 298.902344 Z M 159.332031 298.902344 " fill-opacity="1" fill-rule="evenodd"/></g></g></g><g clip-path="url(#753b719128)"><g clip-path="url(#b4f75a5ab2)"><g clip-path="url(#ab983a6fa4)"><path fill="#e86c44" d="M 260.230469 285.890625 C 264.5 282.109375 262.546875 290.003906 260.230469 285.890625 Z M 260.230469 285.890625 " fill-opacity="1" fill-rule="evenodd"/></g></g></g><g clip-path="url(#5dfa8caa9a)"><g clip-path="url(#77bafd0c54)"><g clip-path="url(#bef14f21d5)"><path fill="#e86c44" d="M 297.375 85.382812 C 297.4375 85.164062 298.480469 86.214844 300.050781 87.957031 L 302.746094 91.015625 C 303.671875 92.199219 304.546875 93.5625 305.492188 94.925781 L 308.289062 99.007812 C 309.1875 100.226562 309.972656 101.511719 310.648438 102.863281 L 313.179688 107.65625 C 315.296875 111.296875 318.242188 117.074219 320.914062 122.390625 C 322.917969 127.894531 324.449219 132.953125 322.722656 134.839844 C 323.160156 134.460938 321.101562 129.027344 319.027344 123.183594 C 316.304688 117.519531 313.585938 111.425781 312.261719 109.335938 C 311.011719 106.886719 307.484375 101.546875 303.671875 96.90625 C 302.773438 95.707031 301.929688 94.519531 301.175781 93.351562 C 300.425781 92.179688 299.539062 91.226562 298.945312 90.226562 C 297.679688 88.296875 297.019531 86.589844 297.375 85.382812 Z M 297.375 85.382812 " fill-opacity="1" fill-rule="evenodd"/></g></g></g></g></g></g><g mask="url(#2819881f4d)"><g transform="matrix(1, 0, 0, 1, 97, 110)"><g clip-path="url(#bc61d7a8b1)"><g clip-path="url(#d2143bfc56)"><g clip-path="url(#669b17a8c2)"><g clip-path="url(#4c52fe08a5)"><path fill="#f9d767" d="M 57.871094 66.820312 C 56.203125 68.675781 53.113281 70.929688 50.75 73.488281 C 48.4375 76.070312 46.496094 78.691406 46.5625 80.453125 C 46.65625 82.660156 49.128906 80.699219 49.90625 81.148438 C 50.632812 81.554688 52.261719 83.488281 54.113281 85.207031 C 55.964844 86.925781 58.023438 88.457031 59.46875 88.3125 C 60.433594 88.21875 61.910156 86.9375 63.636719 84.992188 C 64.535156 84.039062 65.371094 82.828125 66.476562 81.65625 C 67.582031 80.484375 68.746094 79.230469 69.925781 77.898438 L 71.707031 75.882812 C 72.335938 75.230469 73.035156 74.628906 73.691406 73.996094 C 75.015625 72.75 76.335938 71.5 77.609375 70.296875 C 80.300781 68.058594 82.941406 66.171875 84.9375 64.757812 C 92.046875 60.519531 99.484375 56.960938 107.242188 54.078125 C 114.765625 51.625 122.566406 49.714844 131.667969 49.097656 C 144.101562 48.515625 155.082031 51.003906 165.613281 55.03125 C 176.167969 59.183594 186.5 64.757812 198.035156 73.464844 C 204.703125 78.960938 210.246094 85.417969 214.664062 92.839844 C 219.589844 101.0625 223.097656 110.960938 224.789062 121.09375 C 226.480469 131.226562 226.257812 141.582031 224.726562 150.828125 C 224.277344 153.132812 223.835938 155.382812 223.410156 157.566406 C 222.777344 159.707031 222.167969 161.773438 221.582031 163.769531 C 221.082031 165.8125 220.316406 167.660156 219.613281 169.445312 C 218.9375 171.25 218.292969 172.960938 217.683594 174.578125 C 217.996094 173.59375 219.28125 174.816406 217.683594 174.578125 C 213.785156 181.734375 208.542969 189.769531 201.476562 197.144531 C 194.40625 204.523438 185.566406 211.015625 176.007812 215.976562 C 166.445312 220.933594 156.164062 224.285156 146.476562 226.21875 L 139.335938 227.390625 C 137.003906 227.726562 134.734375 227.800781 132.535156 228.039062 L 129.285156 228.355469 C 128.222656 228.40625 127.191406 228.390625 126.175781 228.417969 C 124.140625 228.453125 122.1875 228.515625 120.324219 228.605469 C 124.707031 228.375 122.351562 228.578125 118.980469 228.789062 C 115.667969 228.757812 111.222656 228.695312 111.667969 229.007812 C 112.800781 229.800781 114.214844 230.332031 115.765625 230.691406 C 117.398438 231.097656 119.050781 231.257812 120.730469 231.179688 L 130.328125 230.714844 L 136.867188 230.472656 L 138.484375 230.402344 L 140.09375 230.179688 L 143.289062 229.734375 C 147.546875 229.304688 151.652344 228.195312 155.714844 227.316406 C 163.765625 225.132812 171.488281 222.65625 178.984375 219.667969 C 177.832031 217.628906 181.625 217.820312 182.53125 216.71875 C 181.867188 213.34375 187.15625 215.296875 182.53125 216.71875 C 183.757812 216.605469 185.550781 215.816406 187.628906 214.773438 C 188.664062 214.25 189.765625 213.644531 190.886719 213.003906 C 192.003906 212.363281 193.027344 211.503906 194.085938 210.746094 C 196.148438 209.132812 198.242188 207.6875 199.671875 206.238281 L 202.636719 203.347656 C 203.515625 202.492188 204.910156 201.5625 206.359375 200.324219 C 207.769531 199.050781 209.375 197.613281 210.964844 196.070312 C 212.621094 194.582031 213.988281 192.765625 215.125 190.9375 C 216.261719 189.113281 217.179688 187.304688 217.570312 185.554688 C 217.539062 185.8125 216.285156 187.613281 214.367188 190.296875 C 213.363281 191.597656 212.378906 193.28125 210.910156 194.773438 C 209.515625 196.324219 207.988281 197.984375 206.433594 199.6875 C 199.875 206.1875 191.570312 212.089844 187.859375 213.460938 C 186.519531 214.042969 187.152344 213.453125 188.886719 212.207031 L 190.386719 211.15625 C 190.914062 210.726562 191.492188 210.25 192.109375 209.746094 C 193.347656 208.753906 194.742188 207.636719 196.195312 206.46875 C 197.703125 205.378906 199.019531 203.921875 200.414062 202.644531 C 201.773438 201.328125 203.136719 200.078125 204.320312 198.890625 L 209.03125 193.5 C 209.914062 192.578125 210.953125 190.445312 211.96875 188.429688 C 212.984375 186.410156 214.058594 184.515625 214.894531 183.789062 C 215.027344 183.664062 217.578125 183.441406 217.578125 183.441406 C 218.085938 182.433594 218.101562 181.109375 218.328125 179.539062 C 218.449219 178.671875 218.652344 177.824219 218.941406 176.996094 C 219.335938 175.96875 219.785156 174.96875 220.289062 173.988281 C 221.8125 171.246094 222.234375 171.914062 222.113281 173.484375 C 221.988281 175.054688 221.339844 177.519531 220.652344 178.085938 C 221.832031 177.039062 222.6875 175.667969 223.601562 174.210938 C 224.519531 172.75 225.378906 171.144531 226.21875 169.445312 C 227.0625 167.746094 227.5625 165.820312 228.207031 163.894531 C 228.496094 162.921875 228.789062 161.9375 229.089844 160.933594 L 229.503906 159.414062 L 229.777344 157.835938 C 231.554688 149.449219 231.480469 140.265625 231.390625 131.75 C 230.957031 122.65625 229.421875 113.757812 226.785156 105.042969 C 224.03125 96.476562 220.210938 88.632812 216.277344 81.839844 C 207.917969 68.148438 196.105469 58.296875 183.4375 51.765625 C 181.910156 50.835938 180.191406 50.292969 178.578125 49.539062 L 173.710938 47.433594 L 168.675781 45.820312 C 166.992188 45.316406 165.367188 44.632812 163.632812 44.324219 C 160.191406 43.640625 156.832031 42.554688 153.3125 42.21875 L 148.070312 41.429688 C 146.308594 41.230469 144.535156 41.1875 142.742188 41.027344 C 141.992188 41 140.292969 40.65625 138.136719 40.457031 L 130.75 40.066406 C 128.171875 40.023438 125.671875 40.300781 123.765625 40.449219 C 121.855469 40.59375 120.550781 40.871094 120.417969 41.21875 C 120.613281 40.726562 122.101562 40.277344 124.296875 39.777344 C 126.496094 39.347656 129.371094 38.621094 132.417969 38.574219 C 138.488281 37.972656 144.972656 38.726562 147.167969 38.949219 C 148.6875 39.148438 150.367188 39.601562 152.1875 39.921875 C 153.992188 40.332031 155.964844 40.523438 157.925781 41.128906 L 163.984375 42.835938 L 165.523438 43.257812 L 167.019531 43.828125 L 169.988281 44.960938 C 177.90625 47.828125 184.609375 51.800781 187.628906 53.574219 C 187.902344 53.726562 189.042969 54.265625 190.558594 54.953125 C 192.03125 55.703125 193.765625 56.765625 195.429688 57.644531 C 197.089844 58.523438 198.605469 59.3125 199.476562 59.699219 C 200.304688 60.125 200.554688 60.066406 199.742188 59.15625 C 189.679688 48.957031 174.902344 41.902344 159.730469 38.878906 C 158.78125 38.683594 157.84375 38.421875 156.886719 38.277344 L 154.011719 37.914062 L 148.289062 37.167969 C 146.375 37.042969 144.472656 37.007812 142.578125 36.902344 C 140.679688 36.800781 138.792969 36.625 136.921875 36.761719 C 133.171875 36.910156 129.453125 36.777344 125.832031 37.214844 C 124.011719 37.351562 122.199219 37.46875 120.398438 37.5625 C 118.621094 37.796875 116.859375 38.027344 115.101562 38.207031 C 114.332031 38.929688 113.011719 39.40625 111.425781 39.738281 C 109.753906 40.207031 108.058594 40.578125 106.34375 40.859375 C 104.609375 41.183594 102.894531 41.382812 101.648438 41.742188 C 100.398438 42.101562 99.558594 42.492188 99.460938 42.867188 C 99.707031 41.941406 100.515625 41.214844 101.648438 40.613281 C 102.824219 40.109375 104.339844 39.777344 105.945312 39.5 L 110.820312 38.773438 C 112.421875 38.632812 113.921875 38.515625 115.101562 38.195312 C 116.992188 37.703125 118.867188 37.105469 120.785156 36.699219 L 126.585938 35.683594 L 129.496094 35.191406 L 132.4375 34.960938 L 138.332031 34.503906 C 131.027344 34.382812 123.777344 34.964844 116.582031 36.242188 C 109.386719 37.523438 102.382812 39.476562 95.566406 42.109375 C 91.9375 43.296875 88.628906 45.179688 85.148438 46.765625 C 83.382812 47.519531 81.824219 48.613281 80.164062 49.554688 L 75.242188 52.484375 C 72.199219 54.738281 69.019531 56.863281 66.121094 59.261719 L 61.902344 62.980469 C 60.488281 64.210938 59.082031 65.4375 57.871094 66.820312 Z M 55.507812 80.039062 C 54.851562 80.15625 55.125 77.949219 55.507812 77.878906 C 56.15625 77.773438 55.882812 79.980469 55.507812 80.039062 Z M 76.027344 55.40625 C 74.296875 54.941406 85.441406 47.269531 78.902344 53.085938 C 78.5 53.425781 76.464844 55.417969 76.023438 55.410156 Z M 83.210938 51.167969 C 82.46875 51.011719 84.769531 48.902344 86.675781 47.921875 C 88.527344 46.847656 89.671875 46.492188 86.207031 49.058594 C 85.742188 49.300781 83.683594 51.277344 83.210938 51.171875 Z M 64.882812 69.988281 Z M 89.875 48.0625 C 89.214844 47.902344 93.097656 45.039062 96.082031 43.839844 C 98.992188 42.488281 100.527344 42.042969 94.5625 45.289062 C 92.984375 46.125 90.617188 48.335938 89.875 48.0625 Z M 69.832031 66 C 69.171875 65.976562 69.855469 63.902344 70.242188 63.921875 C 70.886719 63.949219 70.207031 66.023438 69.835938 65.992188 Z M 72.867188 62.742188 C 71.621094 62.222656 76.644531 57.765625 76.753906 57.679688 C 80.945312 54.09375 87.503906 50.964844 92.507812 48.984375 C 94.421875 48.015625 97.742188 46.949219 99.652344 46.4375 C 101.566406 45.925781 102.148438 46.082031 98.925781 47.957031 C 96.265625 49.320312 92.550781 51.234375 88.21875 53.113281 C 86.097656 54.117188 83.984375 55.359375 81.769531 56.492188 C 79.507812 57.574219 77.484375 58.996094 75.492188 60.316406 C 75.144531 60.535156 73.195312 62.875 72.871094 62.734375 Z M 104.828125 46.3125 C 104.238281 45.988281 105.703125 44.503906 106.039062 44.695312 C 106.605469 45.027344 105.15625 46.503906 104.828125 46.3125 Z M 108.851562 44.78125 C 108.21875 44.414062 110.976562 42.058594 111.75 42.523438 C 112.332031 42.902344 109.617188 45.253906 108.851562 44.78125 Z M 190.925781 60.804688 Z M 214.886719 85.753906 C 215.089844 85.214844 214.578125 86.589844 214.886719 85.753906 Z M 216.652344 88.59375 C 216.878906 87.964844 219.207031 89.570312 218.898438 90.234375 C 218.664062 90.828125 216.398438 89.21875 216.652344 88.59375 Z M 219.058594 92.992188 C 219.335938 92.402344 220.941406 93.6875 220.773438 94.03125 C 220.488281 94.601562 218.890625 93.328125 219.058594 92.992188 Z M 220.171875 95.246094 C 219.851562 95.859375 221.179688 97.003906 222.390625 98.289062 C 223.523438 99.605469 224.636719 101.019531 224.160156 101.804688 C 223.277344 101.09375 222.460938 100.3125 221.714844 99.453125 C 220.65625 98.101562 219.4375 96.632812 220.171875 95.246094 Z M 224.054688 104.535156 C 225.152344 103.179688 227.925781 115.191406 225.121094 107.722656 L 224.480469 106.097656 C 224.171875 105.414062 223.925781 104.734375 224.054688 104.535156 Z M 226.019531 110.964844 C 226.019531 110.964844 226.675781 111.765625 227.277344 112.65625 C 227.878906 113.546875 228.457031 114.519531 228.164062 114.820312 C 227.96875 114.742188 227.78125 114.644531 227.609375 114.519531 C 227.203125 114.28125 226.828125 114.003906 226.480469 113.683594 C 225.734375 112.984375 225.203125 112.042969 226.019531 110.972656 Z M 227.550781 117.535156 C 228.59375 116.386719 230.191406 128.644531 228.136719 120.863281 C 228.011719 120.402344 227.21875 117.902344 227.550781 117.542969 Z M 228.769531 125.894531 C 228.558594 126.089844 228.773438 127.238281 229.175781 128.921875 L 229.882812 131.78125 C 230.078125 132.835938 230.226562 133.960938 230.386719 135.109375 C 230.671875 137.40625 231.03125 139.792969 230.902344 141.707031 C 230.722656 143.613281 230.34375 145.058594 229.621094 145.503906 C 230.320312 145.054688 229.921875 140.625 228.980469 136.179688 C 228.425781 131.726562 227.1875 127.308594 228.765625 125.898438 Z M 228.382812 147.070312 C 229.085938 146.609375 229.054688 149.226562 228.507812 150.90625 C 228.019531 152.601562 227.480469 153.40625 228.09375 149.617188 C 228.101562 149.277344 228.085938 147.238281 228.382812 147.070312 Z M 227.367188 152.945312 C 227.367188 152.945312 227.574219 153.960938 227.695312 155.027344 C 227.816406 156.097656 227.839844 157.230469 227.5 157.390625 C 227.347656 157.230469 227.21875 157.050781 227.113281 156.855469 C 226.863281 156.457031 226.660156 156.035156 226.5 155.59375 C 226.15625 154.625 226.128906 153.542969 227.355469 152.941406 Z M 224.996094 162.03125 Z M 224.203125 164.476562 C 224.851562 164.210938 225.039062 167.871094 224.082031 168.121094 C 223.457031 168.34375 223.363281 164.765625 224.191406 164.476562 Z M 173.65625 218.695312 C 174.292969 219.035156 172.21875 220.984375 171.589844 220.632812 C 170.960938 220.277344 173.035156 218.34375 173.65625 218.695312 Z M 167.914062 220.882812 C 168.667969 221.292969 166.253906 222.472656 164.464844 222.8125 C 162.679688 223.148438 161.695312 223.101562 165.445312 221.816406 C 165.765625 221.671875 167.621094 220.699219 167.914062 220.882812 Z M 207.386719 192.109375 Z M 200.363281 199.597656 C 200.363281 199.597656 199.949219 200.550781 199.429688 201.503906 C 198.914062 202.460938 198.285156 203.40625 197.910156 203.34375 C 197.875 203.125 197.871094 202.90625 197.894531 202.683594 C 197.917969 202.210938 197.992188 201.746094 198.117188 201.292969 C 198.40625 200.304688 199.007812 199.394531 200.363281 199.597656 Z M 194.574219 204.730469 C 196.332031 205.152344 186.554688 211.363281 192.519531 206.292969 C 192.78125 206.066406 194.242188 204.640625 194.574219 204.730469 Z M 186.902344 210.277344 C 188.601562 210.867188 178.246094 216.125 184.699219 211.640625 C 184.980469 211.441406 186.578125 210.160156 186.90625 210.269531 Z M 223.722656 158.980469 C 224.335938 158.742188 224.589844 160.753906 224.226562 160.898438 C 223.617188 161.109375 223.359375 159.105469 223.722656 158.980469 Z M 223.722656 158.980469 " fill-opacity="1" fill-rule="evenodd"/></g></g></g><g clip-path="url(#e1446d29b7)"><g clip-path="url(#b9bd5b0ccc)"><g clip-path="url(#5e98d378e3)"><path fill="#f9d767" d="M 138.332031 34.515625 C 139.382812 33.773438 141.238281 33.714844 143.445312 33.882812 C 145.644531 34.105469 148.203125 34.429688 150.597656 35.261719 C 153 35.984375 155.292969 36.71875 157.113281 37.152344 C 158.914062 37.6875 160.238281 38.007812 160.796875 37.558594 C 159.976562 38.234375 158.351562 38.019531 156.253906 37.78125 C 154.15625 37.542969 151.636719 36.941406 149.132812 36.277344 C 146.625 35.65625 144.101562 35.300781 142.121094 34.902344 C 140.132812 34.554688 138.6875 34.289062 138.332031 34.515625 Z M 138.332031 34.515625 " fill-opacity="1" fill-rule="evenodd"/></g></g></g><g clip-path="url(#78a71f0b8e)"><g clip-path="url(#205d4e854f)"><g clip-path="url(#4d4393610f)"><path fill="#f9d767" d="M 176.910156 43.464844 C 177.035156 43.980469 181.460938 44.820312 185.984375 46.28125 C 190.320312 48.042969 194.996094 49.988281 195.050781 51.820312 C 195.058594 50.949219 190.636719 49.707031 186.363281 48.203125 C 184.265625 47.359375 181.957031 46.875 180.230469 46.105469 C 178.488281 45.367188 177.226562 44.507812 176.910156 43.464844 Z M 176.910156 43.464844 " fill-opacity="1" fill-rule="evenodd"/></g></g></g><g clip-path="url(#6cfeccd0e0)"><g clip-path="url(#0023607f4e)"><g clip-path="url(#9bfa64315b)"><path fill="#f9d767" d="M 197.390625 54.824219 C 197.335938 54.164062 199.488281 54.640625 199.519531 55.03125 C 199.554688 55.683594 197.410156 55.210938 197.390625 54.824219 Z M 197.390625 54.824219 " fill-opacity="1" fill-rule="evenodd"/></g></g></g><g clip-path="url(#a620436d86)"><g clip-path="url(#862a1f5131)"><g clip-path="url(#c08a7dc892)"><path fill="#f9d767" d="M 96.902344 225.28125 C 97.492188 227.121094 82.550781 219.300781 93.402344 223.714844 C 93.929688 223.933594 96.738281 224.765625 96.902344 225.28125 Z M 96.902344 225.28125 " fill-opacity="1" fill-rule="evenodd"/></g></g></g><g clip-path="url(#4c3ce68ec3)"><g clip-path="url(#5b0b0ef01a)"><g clip-path="url(#e468e4bbca)"><path fill="#f9d767" d="M 109.832031 228.597656 C 110.597656 230.441406 95.003906 224.84375 102.628906 226.300781 C 102.558594 226.285156 104.25 226.617188 106 227.078125 C 107.75 227.535156 109.554688 228.160156 109.832031 228.597656 Z M 109.832031 228.597656 " fill-opacity="1" fill-rule="evenodd"/></g></g></g><g clip-path="url(#43ac4e108b)"><g clip-path="url(#f4f05cd241)"><g clip-path="url(#c218734df6)"><path fill="#f9d767" d="M 178.992188 219.679688 C 181.917969 217.089844 180.578125 222.5 178.992188 219.679688 Z M 178.992188 219.679688 " fill-opacity="1" fill-rule="evenodd"/></g></g></g><g clip-path="url(#a6a3efae09)"><g clip-path="url(#c637329607)"><g clip-path="url(#06c1d4b9b2)"><path fill="#f9d767" d="M 204.449219 82.246094 C 204.492188 82.097656 205.207031 82.816406 206.285156 84.007812 L 208.128906 86.105469 C 208.765625 86.917969 209.363281 87.851562 210.011719 88.785156 L 211.929688 91.585938 C 212.546875 92.417969 213.085938 93.300781 213.546875 94.226562 L 215.28125 97.511719 C 216.734375 100.007812 218.75 103.964844 220.585938 107.613281 C 221.957031 111.382812 223.007812 114.851562 221.824219 116.144531 C 222.125 115.882812 220.714844 112.164062 219.292969 108.15625 C 217.425781 104.273438 215.558594 100.097656 214.652344 98.664062 C 213.796875 96.984375 211.378906 93.324219 208.765625 90.144531 C 208.148438 89.324219 207.570312 88.507812 207.054688 87.707031 C 206.539062 86.902344 205.933594 86.25 205.523438 85.566406 C 204.660156 84.242188 204.203125 83.074219 204.449219 82.246094 Z M 204.449219 82.246094 " fill-opacity="1" fill-rule="evenodd"/></g></g></g></g></g></g><g mask="url(#6eeb4e9499)"><g transform="matrix(1, 0, 0, 1, 90, 37)"><g clip-path="url(#99fbe291a0)"><g clip-path="url(#be55dc60e7)"><g clip-path="url(#412b2b981e)"><g clip-path="url(#4ce57dcea0)"><path fill="#058f84" d="M 142.363281 280.578125 C 139.410156 280.121094 134.835938 280.371094 130.707031 279.785156 C 126.609375 279.140625 122.824219 278.183594 121.554688 276.496094 C 119.972656 274.378906 123.746094 274.324219 124.125 273.320312 C 124.496094 272.394531 124.539062 269.367188 124.957031 266.371094 C 125.371094 263.375 126.125 260.398438 127.574219 259.433594 C 128.539062 258.792969 130.875 258.863281 133.953125 259.359375 C 135.507812 259.5625 137.195312 260.054688 139.109375 260.304688 C 141.023438 260.554688 143.054688 260.835938 145.15625 261.175781 L 148.332031 261.699219 C 149.410156 261.828125 150.511719 261.855469 151.601562 261.945312 C 153.773438 262.101562 155.945312 262.261719 158.039062 262.410156 C 162.226562 262.449219 166.105469 262.199219 169.027344 262 C 178.828125 260.546875 188.421875 258.21875 197.796875 255.015625 C 206.632812 251.601562 215.3125 247.464844 224.222656 241.144531 C 236.195312 232.273438 244.496094 221.65625 251.214844 209.945312 C 257.859375 198.101562 263.222656 185.109375 267.328125 168.300781 C 269.351562 158.160156 269.605469 147.972656 268.082031 137.742188 C 266.425781 126.386719 262.183594 114.550781 256.082031 103.875 C 249.980469 93.199219 241.933594 83.761719 233.515625 76.34375 C 231.355469 74.546875 229.238281 72.792969 227.191406 71.09375 C 224.988281 69.585938 222.855469 68.128906 220.796875 66.722656 C 218.792969 65.207031 216.679688 64.074219 214.679688 62.949219 C 212.683594 61.789062 210.789062 60.6875 209.003906 59.652344 C 210.035156 60.324219 210.304688 58.222656 209.003906 59.652344 C 199.96875 55.964844 189.023438 52.480469 176.882812 50.988281 C 164.742188 49.5 151.628906 50.167969 139.007812 52.808594 C 126.386719 55.445312 114.3125 60.121094 103.863281 65.664062 L 96.355469 69.984375 C 93.9375 71.433594 91.777344 73.085938 89.554688 74.53125 L 86.300781 76.699219 C 85.28125 77.453125 84.335938 78.253906 83.371094 78.992188 C 81.457031 80.503906 79.601562 81.921875 77.804688 83.25 C 82.039062 80.144531 79.703125 81.738281 76.417969 84.09375 C 73.367188 86.636719 69.292969 90.054688 69.46875 89.429688 C 69.921875 87.839844 70.828125 86.273438 71.996094 84.765625 C 73.203125 83.15625 74.613281 81.75 76.230469 80.554688 L 85.480469 73.71875 L 91.730469 68.992188 L 93.289062 67.835938 L 94.949219 66.824219 L 98.246094 64.816406 C 102.519531 61.992188 107.167969 59.914062 111.601562 57.652344 C 120.71875 53.582031 129.757812 50.03125 138.972656 47.128906 C 139.449219 49.890625 142.820312 46.839844 144.496094 47.179688 C 146.433594 50.8125 149.863281 44.996094 144.496094 47.179688 C 145.71875 46.351562 147.980469 45.730469 150.695312 45.121094 C 152.054688 44.824219 153.535156 44.550781 155.058594 44.296875 C 156.578125 44.046875 158.179688 44.070312 159.734375 43.972656 C 162.867188 43.90625 165.902344 43.664062 168.328125 43.921875 L 173.265625 44.359375 C 174.730469 44.484375 176.726562 44.292969 179.007812 44.347656 C 181.277344 44.460938 183.859375 44.574219 186.5 44.804688 C 189.164062 44.925781 191.808594 45.582031 194.242188 46.414062 C 196.675781 47.246094 198.902344 48.226562 200.585938 49.554688 C 200.363281 49.339844 197.835938 48.621094 194.027344 47.582031 C 192.105469 47.136719 189.921875 46.320312 187.429688 46.046875 C 184.960938 45.667969 182.289062 45.28125 179.558594 44.878906 C 168.554688 43.816406 156.382812 44.628906 151.902344 46.164062 C 150.21875 46.644531 151.253906 46.707031 153.804688 46.550781 L 155.992188 46.390625 C 156.808594 46.390625 157.703125 46.394531 158.65625 46.394531 C 160.558594 46.378906 162.695312 46.359375 164.929688 46.34375 C 167.152344 46.210938 169.476562 46.5625 171.734375 46.695312 C 173.996094 46.882812 176.203125 47.011719 178.203125 47.21875 L 186.652344 48.652344 C 188.167969 48.835938 190.746094 50.03125 193.214844 51.128906 C 195.6875 52.230469 198.117188 53.175781 199.441406 53.214844 C 199.660156 53.234375 202.191406 51.507812 202.191406 51.507812 C 203.429688 52.058594 204.445312 53.277344 205.84375 54.5625 C 206.613281 55.273438 207.445312 55.90625 208.335938 56.453125 C 209.480469 57.109375 210.65625 57.699219 211.863281 58.222656 C 215.351562 59.613281 215.238281 58.671875 213.9375 57.3125 C 212.636719 55.949219 210.164062 54.152344 209.097656 54.148438 C 210.988281 54.226562 212.816406 54.851562 214.769531 55.511719 C 216.726562 56.167969 218.734375 57.007812 220.804688 57.949219 C 222.871094 58.886719 224.792969 60.292969 226.847656 61.59375 C 227.851562 62.273438 228.871094 62.96875 229.910156 63.667969 L 231.441406 64.765625 L 232.894531 66.023438 C 240.890625 72.457031 247.773438 81.027344 254.140625 88.992188 C 260.621094 97.753906 265.933594 107.171875 270.082031 117.25 C 274.019531 127.28125 276.410156 137.445312 277.90625 146.726562 C 280.519531 165.753906 277.023438 183.832031 270.21875 199.476562 C 269.503906 201.496094 268.320312 203.300781 267.394531 205.226562 L 264.472656 210.859375 L 261.027344 216.167969 C 259.847656 217.910156 258.859375 219.773438 257.480469 221.375 C 254.808594 224.617188 252.515625 228.164062 249.503906 231.140625 L 245.242188 235.839844 C 243.757812 237.359375 242.144531 238.742188 240.601562 240.246094 C 239.929688 240.839844 238.613281 242.445312 236.761719 244.261719 L 230.207031 250.214844 C 227.851562 252.207031 225.324219 253.84375 223.441406 255.152344 C 221.5625 256.460938 220.140625 257.191406 219.753906 256.972656 C 220.308594 257.28125 222.03125 256.570312 224.441406 255.371094 C 226.808594 254.105469 230.023438 252.605469 232.886719 250.339844 C 238.972656 246.300781 244.414062 240.691406 246.28125 238.824219 C 247.539062 237.488281 248.753906 235.796875 250.203125 234.125 C 251.5625 232.378906 253.246094 230.703125 254.609375 228.660156 L 258.9375 222.488281 L 260.042969 220.929688 L 260.996094 219.269531 L 262.894531 215.96875 C 268.066406 207.320312 271.277344 198.558594 272.734375 194.628906 C 272.871094 194.277344 273.523438 192.917969 274.410156 191.128906 C 275.207031 189.320312 276.011719 187.019531 276.886719 184.949219 C 277.761719 182.875 278.570312 180.996094 279.085938 179.980469 C 279.53125 178.957031 279.808594 178.824219 279.742188 180.285156 C 278.132812 197.359375 269.769531 215.089844 257.984375 229.378906 C 257.253906 230.28125 256.582031 231.230469 255.804688 232.089844 L 253.414062 234.605469 L 248.667969 239.625 C 246.992188 241.191406 245.253906 242.664062 243.574219 244.199219 C 241.890625 245.730469 240.277344 247.320312 238.433594 248.613281 C 234.847656 251.3125 231.496094 254.25 227.804688 256.585938 C 226.015625 257.835938 224.246094 259.101562 222.503906 260.378906 C 220.679688 261.503906 218.871094 262.625 217.101562 263.789062 C 215.84375 263.699219 214.257812 264.261719 212.535156 265.152344 C 210.628906 265.984375 208.777344 266.921875 206.972656 267.960938 C 205.117188 268.972656 203.378906 270.082031 201.949219 270.695312 C 200.519531 271.308594 199.445312 271.582031 199.070312 271.308594 C 200 271.980469 201.296875 272.042969 202.804688 271.742188 C 204.273438 271.320312 205.933594 270.480469 207.632812 269.523438 L 212.703125 266.507812 C 214.296875 265.421875 215.773438 264.394531 217.109375 263.800781 C 219.238281 262.824219 221.433594 261.960938 223.519531 260.882812 L 229.667969 257.433594 L 232.738281 255.6875 L 235.640625 253.675781 L 241.453125 249.636719 C 234.765625 255.28125 227.605469 260.230469 219.960938 264.492188 C 212.320312 268.75 204.34375 272.238281 196.027344 274.960938 C 191.769531 276.605469 187.273438 277.363281 182.84375 278.527344 C 180.632812 279.164062 178.359375 279.332031 176.109375 279.714844 L 169.324219 280.722656 C 164.796875 280.9375 160.238281 281.375 155.734375 281.347656 L 149.007812 281.089844 C 146.769531 281.019531 144.53125 280.945312 142.363281 280.578125 Z M 130.164062 270.109375 C 129.464844 270.496094 131.390625 272.339844 131.800781 272.113281 C 132.480469 271.714844 130.554688 269.878906 130.164062 270.109375 Z M 167.839844 277.421875 C 166.589844 279.160156 182.734375 277.835938 172.265625 277.398438 C 171.636719 277.382812 168.238281 277.082031 167.839844 277.417969 Z M 177.714844 275.910156 C 177.144531 276.621094 180.871094 276.832031 183.386719 276.300781 C 185.917969 275.894531 187.242188 275.359375 182.089844 275.601562 C 181.476562 275.726562 178.070312 275.453125 177.710938 275.910156 Z M 146.46875 272.332031 Z M 186.242188 273.746094 C 185.753906 274.394531 191.523438 274.113281 195.199219 272.964844 C 198.921875 272.011719 200.679688 271.265625 192.691406 272.769531 C 190.59375 273.1875 186.726562 272.929688 186.242188 273.746094 Z M 154.074219 272.285156 C 153.484375 272.808594 155.6875 274.214844 156.03125 273.898438 C 156.605469 273.390625 154.40625 271.976562 154.085938 272.289062 Z M 159.359375 273.007812 C 158.59375 274.433594 166.628906 274.761719 166.796875 274.761719 C 173.398438 274.914062 181.851562 272.851562 187.992188 270.898438 C 190.496094 270.347656 194.382812 268.824219 196.546875 267.851562 C 198.707031 266.878906 199.125 266.292969 194.71875 266.996094 C 191.222656 267.742188 186.324219 268.78125 180.886719 270.316406 C 178.160156 270.992188 175.257812 271.4375 172.34375 272.066406 C 169.429688 272.773438 166.476562 272.988281 163.628906 273.269531 C 163.144531 273.332031 159.558594 272.636719 159.367188 273.011719 Z M 201.4375 264.050781 C 201.140625 264.796875 203.617188 265.0625 203.789062 264.632812 C 204.0625 263.894531 201.597656 263.621094 201.4375 264.050781 Z M 206.328125 262.425781 C 206.019531 263.242188 210.363281 263.339844 210.726562 262.324219 C 210.980469 261.527344 206.683594 261.40625 206.328125 262.425781 Z M 270.316406 185.425781 Z M 273.65625 144.148438 C 274.25 144.496094 272.734375 143.605469 273.65625 144.148438 Z M 273.140625 140.179688 C 273.828125 140.589844 274.769531 137.339844 273.984375 136.957031 C 273.3125 136.582031 272.433594 139.789062 273.140625 140.179688 Z M 272.042969 134.277344 C 272.746094 134.613281 273.261719 132.203125 272.847656 132.015625 C 272.148438 131.703125 271.632812 134.089844 272.042969 134.277344 Z M 271.371094 131.34375 C 270.605469 131.015625 270.972656 128.953125 271.125 126.839844 C 271.175781 124.761719 271.140625 122.609375 270.101562 122.238281 C 269.820312 123.566406 269.65625 124.914062 269.613281 126.273438 C 269.65625 128.328125 269.636719 130.613281 271.371094 131.34375 Z M 267.9375 119.789062 C 269.980469 120.210938 263.464844 106.972656 266.511719 116.023438 L 267.148438 118.015625 C 267.382812 118.882812 267.664062 119.699219 267.9375 119.789062 Z M 264.890625 112.335938 C 264.890625 112.335938 264.894531 111.101562 264.777344 109.816406 C 264.664062 108.535156 264.460938 107.195312 263.964844 107.136719 C 263.835938 107.359375 263.742188 107.589844 263.675781 107.835938 C 263.480469 108.367188 263.339844 108.910156 263.261719 109.46875 C 263.097656 110.683594 263.320312 111.953125 264.886719 112.332031 Z M 261.335938 105.085938 C 263.171875 105.359375 255.375 92.78125 259.363281 101.554688 C 259.59375 102.074219 260.753906 104.996094 261.332031 105.078125 Z M 256.140625 96.410156 C 255.796875 96.386719 255.125 95.15625 254.226562 93.292969 L 252.714844 90.105469 C 252.097656 88.976562 251.382812 87.824219 250.664062 86.636719 C 249.191406 84.292969 247.714844 81.804688 246.144531 80.128906 C 244.535156 78.496094 243.089844 77.441406 242.085938 77.578125 C 243.074219 77.460938 246.058594 81.875 248.550781 86.707031 C 251.40625 91.257812 253.601562 96.296875 256.132812 96.40625 Z M 239.746094 77.0625 C 240.75 76.957031 238.742188 74.554688 236.960938 73.410156 C 235.226562 72.210938 234.117188 71.867188 237.554688 74.917969 C 237.816406 75.230469 239.34375 77.132812 239.746094 77.0625 Z M 234.359375 72.382812 C 234.359375 72.382812 233.785156 71.285156 233.085938 70.203125 C 232.390625 69.121094 231.550781 68.050781 231.117188 68.160156 C 231.097656 68.425781 231.113281 68.6875 231.164062 68.945312 C 231.234375 69.507812 231.363281 70.050781 231.550781 70.585938 C 231.964844 71.738281 232.761719 72.765625 234.351562 72.390625 Z M 225.285156 65.75 Z M 222.695312 64.085938 C 223.5 63.835938 220.898438 60.300781 219.828125 60.792969 C 219.078125 61.0625 221.695312 64.449219 222.6875 64.09375 Z M 134.769531 52.066406 C 135.101562 51.269531 131.703125 51.027344 131.386719 51.832031 C 131.074219 52.636719 134.460938 52.863281 134.769531 52.066406 Z M 127.785156 54.386719 C 128.175781 53.433594 125.042969 54.164062 123.128906 55.203125 C 121.21875 56.246094 120.339844 57.03125 124.789062 55.386719 C 125.195312 55.277344 127.652344 54.773438 127.785156 54.386719 Z M 186.179688 51.1875 Z M 173.992188 49.558594 C 173.992188 49.558594 172.890625 48.984375 171.6875 48.492188 C 170.484375 48.003906 169.183594 47.597656 168.882812 47.941406 C 169.019531 48.171875 169.179688 48.378906 169.371094 48.5625 C 169.75 48.984375 170.167969 49.359375 170.628906 49.6875 C 171.644531 50.382812 172.890625 50.769531 173.992188 49.558594 Z M 164.742188 49.179688 C 166.050781 47.457031 152.28125 49.101562 161.652344 49.285156 C 162.070312 49.296875 164.5 49.515625 164.742188 49.179688 Z M 153.425781 49.84375 C 154.554688 48.011719 140.972656 50.972656 150.355469 50.246094 C 150.761719 50.222656 153.214844 50.199219 153.433594 49.847656 Z M 226.410156 69.546875 C 227.160156 69.300781 225.871094 67.242188 225.429688 67.382812 C 224.703125 67.652344 225.980469 69.703125 226.410156 69.546875 Z M 226.410156 69.546875 " fill-opacity="1" fill-rule="evenodd"/></g></g></g><g clip-path="url(#8bda585bbf)"><g clip-path="url(#1a5afffe23)"><g clip-path="url(#66efa4c254)"><path fill="#058f84" d="M 241.441406 249.625 C 242.980469 249.519531 244.746094 248.167969 246.664062 246.339844 C 248.535156 244.46875 250.660156 242.230469 252.253906 239.648438 C 253.9375 237.15625 255.503906 234.742188 256.863281 232.960938 C 258.128906 231.101562 259.117188 229.804688 259.972656 229.796875 C 258.699219 229.792969 257.355469 231.21875 255.589844 233.03125 C 253.828125 234.839844 251.945312 237.304688 250.128906 239.8125 C 248.273438 242.289062 246.199219 244.53125 244.664062 246.398438 C 243.085938 248.226562 241.945312 249.566406 241.441406 249.625 Z M 241.441406 249.625 " fill-opacity="1" fill-rule="evenodd"/></g></g></g><g clip-path="url(#10a41b7595)"><g clip-path="url(#403c5223e4)"><g clip-path="url(#f9e906d20b)"><path fill="#058f84" d="M 270.445312 212.121094 C 270.171875 211.546875 273.640625 207.417969 276.730469 202.636719 C 279.417969 197.71875 282.28125 192.375 280.945312 190.632812 C 281.613281 191.4375 278.453125 195.9375 275.628906 200.570312 C 274.324219 202.941406 272.546875 205.132812 271.527344 207.160156 C 270.46875 209.160156 269.953125 210.914062 270.445312 212.121094 Z M 270.445312 212.121094 " fill-opacity="1" fill-rule="evenodd"/></g></g></g><g clip-path="url(#467be87e46)"><g clip-path="url(#cb19498329)"><g clip-path="url(#ffe50dfa9a)"><path fill="#058f84" d="M 280.839844 186.078125 C 281.292969 186.734375 282.925781 184.660156 282.660156 184.277344 C 282.195312 183.644531 280.570312 185.707031 280.839844 186.078125 Z M 280.839844 186.078125 " fill-opacity="1" fill-rule="evenodd"/></g></g></g><g clip-path="url(#8fd3f8dc37)"><g clip-path="url(#2e226bc561)"><g clip-path="url(#9c03c2323b)"><path fill="#058f84" d="M 58.59375 104.066406 C 57.753906 101.914062 49.8125 120.476562 56.535156 108.164062 C 56.863281 107.566406 58.832031 104.667969 58.59375 104.066406 Z M 58.59375 104.066406 " fill-opacity="1" fill-rule="evenodd"/></g></g></g><g clip-path="url(#156c85869b)"><g clip-path="url(#bf2e107b94)"><g clip-path="url(#3ee174e40f)"><path fill="#058f84" d="M 68.074219 91.199219 C 67.390625 88.914062 57.167969 105.90625 63.136719 98.785156 C 63.082031 98.847656 64.398438 97.261719 65.675781 95.511719 C 66.953125 93.761719 68.152344 91.8125 68.074219 91.199219 Z M 68.074219 91.199219 " fill-opacity="1" fill-rule="evenodd"/></g></g></g><g clip-path="url(#78faa6ed9e)"><g clip-path="url(#1e98a0a6f2)"><g clip-path="url(#9ca58117d2)"><path fill="#058f84" d="M 138.96875 47.113281 C 143.648438 47.300781 138.304688 43.296875 138.96875 47.113281 Z M 138.96875 47.113281 " fill-opacity="1" fill-rule="evenodd"/></g></g></g><g clip-path="url(#04daf01d85)"><g clip-path="url(#cf2b58abbe)"><g clip-path="url(#f208575507)"><path fill="#058f84" d="M 266.628906 155.304688 C 266.78125 155.40625 266.902344 154.199219 266.996094 152.277344 L 267.121094 148.9375 C 267.09375 147.703125 266.941406 146.382812 266.835938 145.027344 L 266.496094 140.976562 C 266.4375 139.738281 266.269531 138.515625 265.996094 137.304688 L 265.117188 132.941406 C 264.574219 129.527344 263.449219 124.328125 262.386719 119.5625 C 260.808594 115.023438 259.15625 111.011719 257.078125 110.710938 C 257.554688 110.722656 259.066406 115.242188 260.777344 120.035156 C 261.988281 125.050781 263.417969 130.335938 263.664062 132.351562 C 264.140625 134.554688 264.667969 139.78125 264.652344 144.710938 C 264.703125 145.9375 264.78125 147.132812 264.910156 148.265625 C 265.042969 149.398438 264.972656 150.464844 265.113281 151.410156 C 265.308594 153.292969 265.773438 154.71875 266.628906 155.304688 Z M 266.628906 155.304688 " fill-opacity="1" fill-rule="evenodd"/></g></g></g></g></g></g><g fill="#bed7dc" fill-opacity="0.4"><g transform="translate(29.326768, 133.760085)"><g><path d="M 7.125 -4.875 L 7.125 -79.09375 C 7.125 -81.695312 7.851562 -83.632812 9.3125 -84.90625 C 10.78125 -86.175781 12.625 -86.8125 14.84375 -86.8125 C 17.769531 -86.8125 20.023438 -86.296875 21.609375 -85.265625 C 23.191406 -84.234375 24.9375 -82.015625 26.84375 -78.609375 L 41.4375 -52.015625 L 56.046875 -78.609375 C 57.953125 -82.015625 59.710938 -84.234375 61.328125 -85.265625 C 62.953125 -86.296875 65.226562 -86.8125 68.15625 -86.8125 C 70.375 -86.8125 72.210938 -86.175781 73.671875 -84.90625 C 75.140625 -83.632812 75.875 -81.695312 75.875 -79.09375 L 75.875 -4.875 C 75.875 -3.363281 75.101562 -2.171875 73.5625 -1.296875 C 72.019531 -0.429688 70.21875 0 68.15625 0 C 66.019531 0 64.195312 -0.429688 62.6875 -1.296875 C 61.1875 -2.171875 60.4375 -3.363281 60.4375 -4.875 L 60.4375 -55.9375 L 46.546875 -31.234375 C 45.441406 -29.171875 43.703125 -28.140625 41.328125 -28.140625 C 39.023438 -28.140625 37.320312 -29.171875 36.21875 -31.234375 L 22.5625 -56.875 L 22.5625 -4.875 C 22.5625 -3.363281 21.789062 -2.171875 20.25 -1.296875 C 18.707031 -0.429688 16.90625 0 14.84375 0 C 12.707031 0 10.882812 -0.429688 9.375 -1.296875 C 7.875 -2.171875 7.125 -3.363281 7.125 -4.875 Z M 7.125 -4.875 "/></g></g></g><g fill="#bed7dc" fill-opacity="0.4"><g transform="translate(112.3321, 133.760085)"><g><path d="M 0.71875 19.71875 C 0.71875 15.4375 2.019531 13.296875 4.625 13.296875 C 8.351562 13.296875 12.015625 11.945312 15.609375 9.25 C 19.210938 6.5625 21.210938 2.09375 21.609375 -4.15625 L 1.1875 -47.859375 C 0.875 -48.648438 0.71875 -49.320312 0.71875 -49.875 C 0.71875 -51.769531 1.882812 -53.46875 4.21875 -54.96875 C 6.550781 -56.476562 8.785156 -57.234375 10.921875 -57.234375 C 13.296875 -57.234375 14.757812 -56.363281 15.3125 -54.625 L 29.5625 -19.125 L 41.09375 -54.625 C 41.644531 -56.363281 42.988281 -57.234375 45.125 -57.234375 C 47.1875 -57.234375 49.441406 -56.460938 51.890625 -54.921875 C 54.347656 -53.378906 55.578125 -51.617188 55.578125 -49.640625 C 55.578125 -49.003906 55.457031 -48.410156 55.21875 -47.859375 L 37.875 -3.5625 L 35.859375 1.65625 C 34.910156 4.351562 34.21875 6.210938 33.78125 7.234375 C 33.34375 8.265625 32.585938 9.867188 31.515625 12.046875 C 30.453125 14.222656 29.503906 15.804688 28.671875 16.796875 C 27.847656 17.785156 26.679688 19.015625 25.171875 20.484375 C 23.671875 21.953125 22.144531 23.019531 20.59375 23.6875 C 19.050781 24.363281 17.171875 24.957031 14.953125 25.46875 C 12.742188 25.988281 10.332031 26.25 7.71875 26.25 C 5.425781 26.25 3.6875 25.8125 2.5 24.9375 C 1.3125 24.0625 0.71875 22.320312 0.71875 19.71875 Z M 0.71875 19.71875 "/></g></g></g><g fill="#e86c44" fill-opacity="1"><g transform="translate(24.078249, 128.511566)"><g><path d="M 7.125 -4.875 L 7.125 -79.09375 C 7.125 -81.695312 7.851562 -83.632812 9.3125 -84.90625 C 10.78125 -86.175781 12.625 -86.8125 14.84375 -86.8125 C 17.769531 -86.8125 20.023438 -86.296875 21.609375 -85.265625 C 23.191406 -84.234375 24.9375 -82.015625 26.84375 -78.609375 L 41.4375 -52.015625 L 56.046875 -78.609375 C 57.953125 -82.015625 59.710938 -84.234375 61.328125 -85.265625 C 62.953125 -86.296875 65.226562 -86.8125 68.15625 -86.8125 C 70.375 -86.8125 72.210938 -86.175781 73.671875 -84.90625 C 75.140625 -83.632812 75.875 -81.695312 75.875 -79.09375 L 75.875 -4.875 C 75.875 -3.363281 75.101562 -2.171875 73.5625 -1.296875 C 72.019531 -0.429688 70.21875 0 68.15625 0 C 66.019531 0 64.195312 -0.429688 62.6875 -1.296875 C 61.1875 -2.171875 60.4375 -3.363281 60.4375 -4.875 L 60.4375 -55.9375 L 46.546875 -31.234375 C 45.441406 -29.171875 43.703125 -28.140625 41.328125 -28.140625 C 39.023438 -28.140625 37.320312 -29.171875 36.21875 -31.234375 L 22.5625 -56.875 L 22.5625 -4.875 C 22.5625 -3.363281 21.789062 -2.171875 20.25 -1.296875 C 18.707031 -0.429688 16.90625 0 14.84375 0 C 12.707031 0 10.882812 -0.429688 9.375 -1.296875 C 7.875 -2.171875 7.125 -3.363281 7.125 -4.875 Z M 7.125 -4.875 "/></g></g></g><g fill="#e86c44" fill-opacity="1"><g transform="translate(107.083582, 128.511566)"><g><path d="M 0.71875 19.71875 C 0.71875 15.4375 2.019531 13.296875 4.625 13.296875 C 8.351562 13.296875 12.015625 11.945312 15.609375 9.25 C 19.210938 6.5625 21.210938 2.09375 21.609375 -4.15625 L 1.1875 -47.859375 C 0.875 -48.648438 0.71875 -49.320312 0.71875 -49.875 C 0.71875 -51.769531 1.882812 -53.46875 4.21875 -54.96875 C 6.550781 -56.476562 8.785156 -57.234375 10.921875 -57.234375 C 13.296875 -57.234375 14.757812 -56.363281 15.3125 -54.625 L 29.5625 -19.125 L 41.09375 -54.625 C 41.644531 -56.363281 42.988281 -57.234375 45.125 -57.234375 C 47.1875 -57.234375 49.441406 -56.460938 51.890625 -54.921875 C 54.347656 -53.378906 55.578125 -51.617188 55.578125 -49.640625 C 55.578125 -49.003906 55.457031 -48.410156 55.21875 -47.859375 L 37.875 -3.5625 L 35.859375 1.65625 C 34.910156 4.351562 34.21875 6.210938 33.78125 7.234375 C 33.34375 8.265625 32.585938 9.867188 31.515625 12.046875 C 30.453125 14.222656 29.503906 15.804688 28.671875 16.796875 C 27.847656 17.785156 26.679688 19.015625 25.171875 20.484375 C 23.671875 21.953125 22.144531 23.019531 20.59375 23.6875 C 19.050781 24.363281 17.171875 24.957031 14.953125 25.46875 C 12.742188 25.988281 10.332031 26.25 7.71875 26.25 C 5.425781 26.25 3.6875 25.8125 2.5 24.9375 C 1.3125 24.0625 0.71875 22.320312 0.71875 19.71875 Z M 0.71875 19.71875 "/></g></g></g><g fill="#bed7dc" fill-opacity="0.4"><g transform="translate(29.326768, 238.417778)"><g><path d="M 2.84375 -13.65625 C 2.84375 -15.476562 3.535156 -17.316406 4.921875 -19.171875 C 6.304688 -21.035156 7.875 -21.96875 9.625 -21.96875 C 10.644531 -21.96875 11.804688 -21.492188 13.109375 -20.546875 C 14.421875 -19.597656 15.691406 -18.546875 16.921875 -17.390625 C 18.148438 -16.242188 19.910156 -15.195312 22.203125 -14.25 C 24.503906 -13.300781 27.039062 -12.828125 29.8125 -12.828125 C 33.601562 -12.828125 36.765625 -13.695312 39.296875 -15.4375 C 41.835938 -17.175781 43.109375 -19.75 43.109375 -23.15625 C 43.109375 -25.53125 42.414062 -27.644531 41.03125 -29.5 C 39.644531 -31.363281 37.820312 -32.910156 35.5625 -34.140625 C 33.3125 -35.367188 30.835938 -36.554688 28.140625 -37.703125 C 25.453125 -38.847656 22.738281 -40.132812 20 -41.5625 C 17.269531 -42.988281 14.773438 -44.59375 12.515625 -46.375 C 10.265625 -48.15625 8.445312 -50.53125 7.0625 -53.5 C 5.675781 -56.46875 4.984375 -59.851562 4.984375 -63.65625 C 4.984375 -67.84375 5.832031 -71.539062 7.53125 -74.75 C 9.238281 -77.957031 11.515625 -80.453125 14.359375 -82.234375 C 17.210938 -84.015625 20.257812 -85.320312 23.5 -86.15625 C 26.75 -86.988281 30.195312 -87.40625 33.84375 -87.40625 C 35.90625 -87.40625 38.082031 -87.265625 40.375 -86.984375 C 42.664062 -86.703125 45.097656 -86.242188 47.671875 -85.609375 C 50.242188 -84.984375 52.34375 -83.992188 53.96875 -82.640625 C 55.59375 -81.296875 56.40625 -79.71875 56.40625 -77.90625 C 56.40625 -76.15625 55.847656 -74.347656 54.734375 -72.484375 C 53.628906 -70.628906 52.128906 -69.703125 50.234375 -69.703125 C 49.515625 -69.703125 47.570312 -70.453125 44.40625 -71.953125 C 41.238281 -73.460938 37.71875 -74.21875 33.84375 -74.21875 C 29.570312 -74.21875 26.265625 -73.40625 23.921875 -71.78125 C 21.585938 -70.15625 20.421875 -67.921875 20.421875 -65.078125 C 20.421875 -62.773438 21.367188 -60.773438 23.265625 -59.078125 C 25.171875 -57.378906 27.53125 -55.992188 30.34375 -54.921875 C 33.15625 -53.847656 36.203125 -52.5 39.484375 -50.875 C 42.765625 -49.257812 45.8125 -47.5 48.625 -45.59375 C 51.4375 -43.695312 53.789062 -40.945312 55.6875 -37.34375 C 57.59375 -33.738281 58.546875 -29.523438 58.546875 -24.703125 C 58.546875 -16.460938 55.953125 -10.109375 50.765625 -5.640625 C 45.578125 -1.171875 38.75 1.0625 30.28125 1.0625 C 22.757812 1.0625 16.304688 -0.476562 10.921875 -3.5625 C 5.535156 -6.644531 2.84375 -10.007812 2.84375 -13.65625 Z M 2.84375 -13.65625 "/></g></g></g><g fill="#bed7dc" fill-opacity="0.4"><g transform="translate(91.313591, 238.417778)"><g><path d="M 4.03125 -23.28125 L 4.03125 -32.78125 C 4.03125 -40.0625 6.164062 -45.9375 10.4375 -50.40625 C 14.71875 -54.882812 21.132812 -57.125 29.6875 -57.125 C 35.070312 -57.125 39.582031 -56.171875 43.21875 -54.265625 C 46.863281 -52.367188 48.6875 -50.234375 48.6875 -47.859375 C 48.6875 -46.191406 48.09375 -44.523438 46.90625 -42.859375 C 45.71875 -41.203125 44.289062 -40.375 42.625 -40.375 C 42.15625 -40.375 40.75 -40.925781 38.40625 -42.03125 C 36.070312 -43.144531 33.5625 -43.703125 30.875 -43.703125 C 23.195312 -43.703125 19.359375 -40.0625 19.359375 -32.78125 L 19.359375 -23.28125 C 19.359375 -15.988281 23.238281 -12.34375 31 -12.34375 C 33.6875 -12.34375 36.175781 -12.9375 38.46875 -14.125 C 40.769531 -15.3125 42.238281 -15.90625 42.875 -15.90625 C 44.769531 -15.90625 46.332031 -15.113281 47.5625 -13.53125 C 48.789062 -11.945312 49.40625 -10.328125 49.40625 -8.671875 C 49.40625 -6.210938 47.484375 -3.972656 43.640625 -1.953125 C 39.796875 0.0546875 35.1875 1.0625 29.8125 1.0625 C 21.175781 1.0625 14.71875 -1.148438 10.4375 -5.578125 C 6.164062 -10.015625 4.03125 -15.914062 4.03125 -23.28125 Z M 4.03125 -23.28125 "/></g></g></g><g fill="#bed7dc" fill-opacity="0.4"><g transform="translate(142.85052, 238.417778)"><g><path d="M 6.0625 -4.875 L 6.0625 -84.546875 C 6.0625 -85.972656 6.753906 -87.117188 8.140625 -87.984375 C 9.523438 -88.859375 11.363281 -89.296875 13.65625 -89.296875 C 15.789062 -89.296875 17.609375 -88.859375 19.109375 -87.984375 C 20.617188 -87.117188 21.375 -85.972656 21.375 -84.546875 L 21.375 -48.09375 C 22.5625 -50.625 24.460938 -52.757812 27.078125 -54.5 C 29.691406 -56.25 32.78125 -57.125 36.34375 -57.125 C 41.800781 -57.125 46.566406 -54.75 50.640625 -50 C 54.722656 -45.25 56.765625 -39.585938 56.765625 -33.015625 L 56.765625 -4.875 C 56.765625 -3.363281 55.988281 -2.171875 54.4375 -1.296875 C 52.894531 -0.429688 51.097656 0 49.046875 0 C 47.066406 0 45.300781 -0.429688 43.75 -1.296875 C 42.207031 -2.171875 41.4375 -3.363281 41.4375 -4.875 L 41.4375 -33.015625 C 41.4375 -35.703125 40.40625 -38.15625 38.34375 -40.375 C 36.289062 -42.59375 33.878906 -43.703125 31.109375 -43.703125 C 28.492188 -43.703125 26.21875 -42.710938 24.28125 -40.734375 C 22.34375 -38.753906 21.375 -36.179688 21.375 -33.015625 L 21.375 -4.875 C 21.375 -3.6875 20.601562 -2.578125 19.0625 -1.546875 C 17.519531 -0.515625 15.71875 0 13.65625 0 C 11.519531 0 9.71875 -0.492188 8.25 -1.484375 C 6.789062 -2.472656 6.0625 -3.601562 6.0625 -4.875 Z M 6.0625 -4.875 "/></g></g></g><g fill="#bed7dc" fill-opacity="0.4"><g transform="translate(205.074847, 238.417778)"><g><path d="M 3.796875 -23.28125 L 3.796875 -33.015625 C 3.796875 -39.503906 6.328125 -45.144531 11.390625 -49.9375 C 16.460938 -54.726562 22.519531 -57.125 29.5625 -57.125 C 36.457031 -57.125 42.476562 -54.75 47.625 -50 C 52.769531 -45.25 55.34375 -39.585938 55.34375 -33.015625 L 55.34375 -23.28125 C 55.34375 -16.863281 52.769531 -11.203125 47.625 -6.296875 C 42.476562 -1.390625 36.457031 1.0625 29.5625 1.0625 C 22.675781 1.0625 16.660156 -1.390625 11.515625 -6.296875 C 6.367188 -11.203125 3.796875 -16.863281 3.796875 -23.28125 Z M 19.125 -23.28125 C 19.125 -20.425781 20.148438 -17.890625 22.203125 -15.671875 C 24.265625 -13.453125 26.71875 -12.34375 29.5625 -12.34375 C 32.332031 -12.34375 34.765625 -13.453125 36.859375 -15.671875 C 38.960938 -17.890625 40.015625 -20.425781 40.015625 -23.28125 L 40.015625 -33.015625 C 40.015625 -35.703125 38.960938 -38.15625 36.859375 -40.375 C 34.765625 -42.59375 32.332031 -43.703125 29.5625 -43.703125 C 26.71875 -43.703125 24.265625 -42.613281 22.203125 -40.4375 C 20.148438 -38.257812 19.125 -35.785156 19.125 -33.015625 Z M 19.125 -23.28125 "/></g></g></g><g fill="#bed7dc" fill-opacity="0.4"><g transform="translate(264.211694, 238.417778)"><g><path d="M 3.796875 -23.28125 L 3.796875 -33.015625 C 3.796875 -39.503906 6.328125 -45.144531 11.390625 -49.9375 C 16.460938 -54.726562 22.519531 -57.125 29.5625 -57.125 C 36.457031 -57.125 42.476562 -54.75 47.625 -50 C 52.769531 -45.25 55.34375 -39.585938 55.34375 -33.015625 L 55.34375 -23.28125 C 55.34375 -16.863281 52.769531 -11.203125 47.625 -6.296875 C 42.476562 -1.390625 36.457031 1.0625 29.5625 1.0625 C 22.675781 1.0625 16.660156 -1.390625 11.515625 -6.296875 C 6.367188 -11.203125 3.796875 -16.863281 3.796875 -23.28125 Z M 19.125 -23.28125 C 19.125 -20.425781 20.148438 -17.890625 22.203125 -15.671875 C 24.265625 -13.453125 26.71875 -12.34375 29.5625 -12.34375 C 32.332031 -12.34375 34.765625 -13.453125 36.859375 -15.671875 C 38.960938 -17.890625 40.015625 -20.425781 40.015625 -23.28125 L 40.015625 -33.015625 C 40.015625 -35.703125 38.960938 -38.15625 36.859375 -40.375 C 34.765625 -42.59375 32.332031 -43.703125 29.5625 -43.703125 C 26.71875 -43.703125 24.265625 -42.613281 22.203125 -40.4375 C 20.148438 -38.257812 19.125 -35.785156 19.125 -33.015625 Z M 19.125 -23.28125 "/></g></g></g><g fill="#bed7dc" fill-opacity="0.4"><g transform="translate(323.348542, 238.417778)"><g><path d="M 7 -4.875 L 7 -84.546875 C 7 -85.972656 7.691406 -87.117188 9.078125 -87.984375 C 10.460938 -88.859375 12.304688 -89.296875 14.609375 -89.296875 C 16.742188 -89.296875 18.5625 -88.859375 20.0625 -87.984375 C 21.570312 -87.117188 22.328125 -85.972656 22.328125 -84.546875 L 22.328125 -4.875 C 22.328125 -3.6875 21.550781 -2.578125 20 -1.546875 C 18.457031 -0.515625 16.660156 0 14.609375 0 C 12.472656 0 10.671875 -0.492188 9.203125 -1.484375 C 7.734375 -2.472656 7 -3.601562 7 -4.875 Z M 7 -4.875 "/></g></g></g><g fill="#f9d767" fill-opacity="1"><g transform="translate(24.078249, 233.169259)"><g><path d="M 2.84375 -13.65625 C 2.84375 -15.476562 3.535156 -17.316406 4.921875 -19.171875 C 6.304688 -21.035156 7.875 -21.96875 9.625 -21.96875 C 10.644531 -21.96875 11.804688 -21.492188 13.109375 -20.546875 C 14.421875 -19.597656 15.691406 -18.546875 16.921875 -17.390625 C 18.148438 -16.242188 19.910156 -15.195312 22.203125 -14.25 C 24.503906 -13.300781 27.039062 -12.828125 29.8125 -12.828125 C 33.601562 -12.828125 36.765625 -13.695312 39.296875 -15.4375 C 41.835938 -17.175781 43.109375 -19.75 43.109375 -23.15625 C 43.109375 -25.53125 42.414062 -27.644531 41.03125 -29.5 C 39.644531 -31.363281 37.820312 -32.910156 35.5625 -34.140625 C 33.3125 -35.367188 30.835938 -36.554688 28.140625 -37.703125 C 25.453125 -38.847656 22.738281 -40.132812 20 -41.5625 C 17.269531 -42.988281 14.773438 -44.59375 12.515625 -46.375 C 10.265625 -48.15625 8.445312 -50.53125 7.0625 -53.5 C 5.675781 -56.46875 4.984375 -59.851562 4.984375 -63.65625 C 4.984375 -67.84375 5.832031 -71.539062 7.53125 -74.75 C 9.238281 -77.957031 11.515625 -80.453125 14.359375 -82.234375 C 17.210938 -84.015625 20.257812 -85.320312 23.5 -86.15625 C 26.75 -86.988281 30.195312 -87.40625 33.84375 -87.40625 C 35.90625 -87.40625 38.082031 -87.265625 40.375 -86.984375 C 42.664062 -86.703125 45.097656 -86.242188 47.671875 -85.609375 C 50.242188 -84.984375 52.34375 -83.992188 53.96875 -82.640625 C 55.59375 -81.296875 56.40625 -79.71875 56.40625 -77.90625 C 56.40625 -76.15625 55.847656 -74.347656 54.734375 -72.484375 C 53.628906 -70.628906 52.128906 -69.703125 50.234375 -69.703125 C 49.515625 -69.703125 47.570312 -70.453125 44.40625 -71.953125 C 41.238281 -73.460938 37.71875 -74.21875 33.84375 -74.21875 C 29.570312 -74.21875 26.265625 -73.40625 23.921875 -71.78125 C 21.585938 -70.15625 20.421875 -67.921875 20.421875 -65.078125 C 20.421875 -62.773438 21.367188 -60.773438 23.265625 -59.078125 C 25.171875 -57.378906 27.53125 -55.992188 30.34375 -54.921875 C 33.15625 -53.847656 36.203125 -52.5 39.484375 -50.875 C 42.765625 -49.257812 45.8125 -47.5 48.625 -45.59375 C 51.4375 -43.695312 53.789062 -40.945312 55.6875 -37.34375 C 57.59375 -33.738281 58.546875 -29.523438 58.546875 -24.703125 C 58.546875 -16.460938 55.953125 -10.109375 50.765625 -5.640625 C 45.578125 -1.171875 38.75 1.0625 30.28125 1.0625 C 22.757812 1.0625 16.304688 -0.476562 10.921875 -3.5625 C 5.535156 -6.644531 2.84375 -10.007812 2.84375 -13.65625 Z M 2.84375 -13.65625 "/></g></g></g><g fill="#f9d767" fill-opacity="1"><g transform="translate(86.065073, 233.169259)"><g><path d="M 4.03125 -23.28125 L 4.03125 -32.78125 C 4.03125 -40.0625 6.164062 -45.9375 10.4375 -50.40625 C 14.71875 -54.882812 21.132812 -57.125 29.6875 -57.125 C 35.070312 -57.125 39.582031 -56.171875 43.21875 -54.265625 C 46.863281 -52.367188 48.6875 -50.234375 48.6875 -47.859375 C 48.6875 -46.191406 48.09375 -44.523438 46.90625 -42.859375 C 45.71875 -41.203125 44.289062 -40.375 42.625 -40.375 C 42.15625 -40.375 40.75 -40.925781 38.40625 -42.03125 C 36.070312 -43.144531 33.5625 -43.703125 30.875 -43.703125 C 23.195312 -43.703125 19.359375 -40.0625 19.359375 -32.78125 L 19.359375 -23.28125 C 19.359375 -15.988281 23.238281 -12.34375 31 -12.34375 C 33.6875 -12.34375 36.175781 -12.9375 38.46875 -14.125 C 40.769531 -15.3125 42.238281 -15.90625 42.875 -15.90625 C 44.769531 -15.90625 46.332031 -15.113281 47.5625 -13.53125 C 48.789062 -11.945312 49.40625 -10.328125 49.40625 -8.671875 C 49.40625 -6.210938 47.484375 -3.972656 43.640625 -1.953125 C 39.796875 0.0546875 35.1875 1.0625 29.8125 1.0625 C 21.175781 1.0625 14.71875 -1.148438 10.4375 -5.578125 C 6.164062 -10.015625 4.03125 -15.914062 4.03125 -23.28125 Z M 4.03125 -23.28125 "/></g></g></g><g fill="#f9d767" fill-opacity="1"><g transform="translate(137.602001, 233.169259)"><g><path d="M 6.0625 -4.875 L 6.0625 -84.546875 C 6.0625 -85.972656 6.753906 -87.117188 8.140625 -87.984375 C 9.523438 -88.859375 11.363281 -89.296875 13.65625 -89.296875 C 15.789062 -89.296875 17.609375 -88.859375 19.109375 -87.984375 C 20.617188 -87.117188 21.375 -85.972656 21.375 -84.546875 L 21.375 -48.09375 C 22.5625 -50.625 24.460938 -52.757812 27.078125 -54.5 C 29.691406 -56.25 32.78125 -57.125 36.34375 -57.125 C 41.800781 -57.125 46.566406 -54.75 50.640625 -50 C 54.722656 -45.25 56.765625 -39.585938 56.765625 -33.015625 L 56.765625 -4.875 C 56.765625 -3.363281 55.988281 -2.171875 54.4375 -1.296875 C 52.894531 -0.429688 51.097656 0 49.046875 0 C 47.066406 0 45.300781 -0.429688 43.75 -1.296875 C 42.207031 -2.171875 41.4375 -3.363281 41.4375 -4.875 L 41.4375 -33.015625 C 41.4375 -35.703125 40.40625 -38.15625 38.34375 -40.375 C 36.289062 -42.59375 33.878906 -43.703125 31.109375 -43.703125 C 28.492188 -43.703125 26.21875 -42.710938 24.28125 -40.734375 C 22.34375 -38.753906 21.375 -36.179688 21.375 -33.015625 L 21.375 -4.875 C 21.375 -3.6875 20.601562 -2.578125 19.0625 -1.546875 C 17.519531 -0.515625 15.71875 0 13.65625 0 C 11.519531 0 9.71875 -0.492188 8.25 -1.484375 C 6.789062 -2.472656 6.0625 -3.601562 6.0625 -4.875 Z M 6.0625 -4.875 "/></g></g></g><g fill="#f9d767" fill-opacity="1"><g transform="translate(199.826329, 233.169259)"><g><path d="M 3.796875 -23.28125 L 3.796875 -33.015625 C 3.796875 -39.503906 6.328125 -45.144531 11.390625 -49.9375 C 16.460938 -54.726562 22.519531 -57.125 29.5625 -57.125 C 36.457031 -57.125 42.476562 -54.75 47.625 -50 C 52.769531 -45.25 55.34375 -39.585938 55.34375 -33.015625 L 55.34375 -23.28125 C 55.34375 -16.863281 52.769531 -11.203125 47.625 -6.296875 C 42.476562 -1.390625 36.457031 1.0625 29.5625 1.0625 C 22.675781 1.0625 16.660156 -1.390625 11.515625 -6.296875 C 6.367188 -11.203125 3.796875 -16.863281 3.796875 -23.28125 Z M 19.125 -23.28125 C 19.125 -20.425781 20.148438 -17.890625 22.203125 -15.671875 C 24.265625 -13.453125 26.71875 -12.34375 29.5625 -12.34375 C 32.332031 -12.34375 34.765625 -13.453125 36.859375 -15.671875 C 38.960938 -17.890625 40.015625 -20.425781 40.015625 -23.28125 L 40.015625 -33.015625 C 40.015625 -35.703125 38.960938 -38.15625 36.859375 -40.375 C 34.765625 -42.59375 32.332031 -43.703125 29.5625 -43.703125 C 26.71875 -43.703125 24.265625 -42.613281 22.203125 -40.4375 C 20.148438 -38.257812 19.125 -35.785156 19.125 -33.015625 Z M 19.125 -23.28125 "/></g></g></g><g fill="#f9d767" fill-opacity="1"><g transform="translate(258.963176, 233.169259)"><g><path d="M 3.796875 -23.28125 L 3.796875 -33.015625 C 3.796875 -39.503906 6.328125 -45.144531 11.390625 -49.9375 C 16.460938 -54.726562 22.519531 -57.125 29.5625 -57.125 C 36.457031 -57.125 42.476562 -54.75 47.625 -50 C 52.769531 -45.25 55.34375 -39.585938 55.34375 -33.015625 L 55.34375 -23.28125 C 55.34375 -16.863281 52.769531 -11.203125 47.625 -6.296875 C 42.476562 -1.390625 36.457031 1.0625 29.5625 1.0625 C 22.675781 1.0625 16.660156 -1.390625 11.515625 -6.296875 C 6.367188 -11.203125 3.796875 -16.863281 3.796875 -23.28125 Z M 19.125 -23.28125 C 19.125 -20.425781 20.148438 -17.890625 22.203125 -15.671875 C 24.265625 -13.453125 26.71875 -12.34375 29.5625 -12.34375 C 32.332031 -12.34375 34.765625 -13.453125 36.859375 -15.671875 C 38.960938 -17.890625 40.015625 -20.425781 40.015625 -23.28125 L 40.015625 -33.015625 C 40.015625 -35.703125 38.960938 -38.15625 36.859375 -40.375 C 34.765625 -42.59375 32.332031 -43.703125 29.5625 -43.703125 C 26.71875 -43.703125 24.265625 -42.613281 22.203125 -40.4375 C 20.148438 -38.257812 19.125 -35.785156 19.125 -33.015625 Z M 19.125 -23.28125 "/></g></g></g><g fill="#f9d767" fill-opacity="1"><g transform="translate(318.100023, 233.169259)"><g><path d="M 7 -4.875 L 7 -84.546875 C 7 -85.972656 7.691406 -87.117188 9.078125 -87.984375 C 10.460938 -88.859375 12.304688 -89.296875 14.609375 -89.296875 C 16.742188 -89.296875 18.5625 -88.859375 20.0625 -87.984375 C 21.570312 -87.117188 22.328125 -85.972656 22.328125 -84.546875 L 22.328125 -4.875 C 22.328125 -3.6875 21.550781 -2.578125 20 -1.546875 C 18.457031 -0.515625 16.660156 0 14.609375 0 C 12.472656 0 10.671875 -0.492188 9.203125 -1.484375 C 7.734375 -2.472656 7 -3.601562 7 -4.875 Z M 7 -4.875 "/></g></g></g><g fill="#bed7dc" fill-opacity="0.4"><g transform="translate(29.326768, 343.075471)"><g><path d="M 7.125 -4.875 L 7.125 -79.09375 C 7.125 -81.695312 7.851562 -83.632812 9.3125 -84.90625 C 10.78125 -86.175781 12.625 -86.8125 14.84375 -86.8125 C 17.769531 -86.8125 20.023438 -86.296875 21.609375 -85.265625 C 23.191406 -84.234375 24.9375 -82.015625 26.84375 -78.609375 L 41.4375 -52.015625 L 56.046875 -78.609375 C 57.953125 -82.015625 59.710938 -84.234375 61.328125 -85.265625 C 62.953125 -86.296875 65.226562 -86.8125 68.15625 -86.8125 C 70.375 -86.8125 72.210938 -86.175781 73.671875 -84.90625 C 75.140625 -83.632812 75.875 -81.695312 75.875 -79.09375 L 75.875 -4.875 C 75.875 -3.363281 75.101562 -2.171875 73.5625 -1.296875 C 72.019531 -0.429688 70.21875 0 68.15625 0 C 66.019531 0 64.195312 -0.429688 62.6875 -1.296875 C 61.1875 -2.171875 60.4375 -3.363281 60.4375 -4.875 L 60.4375 -55.9375 L 46.546875 -31.234375 C 45.441406 -29.171875 43.703125 -28.140625 41.328125 -28.140625 C 39.023438 -28.140625 37.320312 -29.171875 36.21875 -31.234375 L 22.5625 -56.875 L 22.5625 -4.875 C 22.5625 -3.363281 21.789062 -2.171875 20.25 -1.296875 C 18.707031 -0.429688 16.90625 0 14.84375 0 C 12.707031 0 10.882812 -0.429688 9.375 -1.296875 C 7.875 -2.171875 7.125 -3.363281 7.125 -4.875 Z M 7.125 -4.875 "/></g></g></g><g fill="#bed7dc" fill-opacity="0.4"><g transform="translate(112.3321, 343.075471)"><g><path d="M 2.609375 -14.71875 C 2.609375 -21.132812 4.984375 -25.648438 9.734375 -28.265625 C 14.484375 -30.878906 21.332031 -32.1875 30.28125 -32.1875 L 35.15625 -32.1875 L 35.15625 -33.71875 C 35.15625 -36.65625 34.300781 -39.210938 32.59375 -41.390625 C 30.894531 -43.566406 28.265625 -44.65625 24.703125 -44.65625 C 21.140625 -44.65625 18.085938 -44.039062 15.546875 -42.8125 C 13.015625 -41.582031 11.550781 -40.96875 11.15625 -40.96875 C 9.570312 -40.96875 8.304688 -41.757812 7.359375 -43.34375 C 6.410156 -44.925781 5.9375 -46.664062 5.9375 -48.5625 C 5.9375 -50.863281 7.972656 -52.863281 12.046875 -54.5625 C 16.128906 -56.269531 20.425781 -57.125 24.9375 -57.125 C 33.5625 -57.125 39.972656 -54.925781 44.171875 -50.53125 C 48.367188 -46.132812 50.46875 -40.613281 50.46875 -33.96875 L 50.46875 -4.875 C 50.46875 -3.519531 49.753906 -2.367188 48.328125 -1.421875 C 46.898438 -0.472656 45.117188 0 42.984375 0 C 41.003906 0 39.359375 -0.472656 38.046875 -1.421875 C 36.742188 -2.367188 36.09375 -3.519531 36.09375 -4.875 L 36.09375 -8.3125 C 30.632812 -2.0625 24.617188 1.0625 18.046875 1.0625 C 13.535156 1.0625 9.832031 -0.28125 6.9375 -2.96875 C 4.050781 -5.65625 2.609375 -9.570312 2.609375 -14.71875 Z M 17.9375 -16.75 C 17.9375 -14.601562 18.507812 -12.992188 19.65625 -11.921875 C 20.800781 -10.859375 22.320312 -10.328125 24.21875 -10.328125 C 26.757812 -10.328125 29.21875 -11.515625 31.59375 -13.890625 C 33.96875 -16.265625 35.15625 -18.878906 35.15625 -21.734375 L 35.15625 -24.21875 L 33.375 -24.21875 C 28.539062 -24.21875 24.757812 -23.722656 22.03125 -22.734375 C 19.300781 -21.742188 17.9375 -19.75 17.9375 -16.75 Z M 17.9375 -16.75 "/></g></g></g><g fill="#bed7dc" fill-opacity="0.4"><g transform="translate(168.262748, 343.075471)"><g><path d="M 5.8125 -19.234375 L 5.8125 -76.828125 C 5.8125 -78.171875 6.601562 -79.296875 8.1875 -80.203125 C 9.769531 -81.117188 11.515625 -81.578125 13.421875 -81.578125 C 15.472656 -81.578125 17.269531 -81.117188 18.8125 -80.203125 C 20.363281 -79.296875 21.140625 -78.171875 21.140625 -76.828125 L 21.140625 -56.40625 L 35.15625 -56.40625 C 36.34375 -56.40625 37.289062 -55.847656 38 -54.734375 C 38.707031 -53.628906 39.0625 -52.320312 39.0625 -50.8125 C 39.0625 -49.3125 38.707031 -48.007812 38 -46.90625 C 37.289062 -45.800781 36.34375 -45.25 35.15625 -45.25 L 21.140625 -45.25 L 21.140625 -19.234375 C 21.140625 -16.941406 21.632812 -15.316406 22.625 -14.359375 C 23.613281 -13.410156 25.332031 -12.9375 27.78125 -12.9375 L 32.421875 -12.9375 C 34.472656 -12.9375 36.070312 -12.300781 37.21875 -11.03125 C 38.375 -9.769531 38.953125 -8.269531 38.953125 -6.53125 C 38.953125 -4.707031 38.375 -3.160156 37.21875 -1.890625 C 36.070312 -0.628906 34.472656 0 32.421875 0 L 27.78125 0 C 13.132812 0 5.8125 -6.410156 5.8125 -19.234375 Z M 5.8125 -19.234375 "/></g></g></g><g fill="#bed7dc" fill-opacity="0.4"><g transform="translate(209.468535, 343.075471)"><g><path d="M 3.796875 -23.28125 L 3.796875 -33.375 C 3.796875 -39.863281 6.328125 -45.441406 11.390625 -50.109375 C 16.460938 -54.785156 22.601562 -57.125 29.8125 -57.125 C 36.539062 -57.125 42.296875 -55.003906 47.078125 -50.765625 C 51.867188 -46.523438 54.265625 -41.203125 54.265625 -34.796875 C 54.265625 -32.421875 53.96875 -30.457031 53.375 -28.90625 C 52.78125 -27.363281 51.867188 -26.273438 50.640625 -25.640625 C 49.421875 -25.015625 48.296875 -24.617188 47.265625 -24.453125 C 46.234375 -24.296875 44.882812 -24.21875 43.21875 -24.21875 L 19.125 -24.21875 L 19.125 -22.4375 C 19.125 -19.039062 20.390625 -16.289062 22.921875 -14.1875 C 25.453125 -12.09375 28.816406 -11.046875 33.015625 -11.046875 C 36.023438 -11.046875 38.992188 -11.796875 41.921875 -13.296875 C 44.847656 -14.804688 46.75 -15.5625 47.625 -15.5625 C 49.28125 -15.5625 50.660156 -14.785156 51.765625 -13.234375 C 52.878906 -11.691406 53.4375 -10.207031 53.4375 -8.78125 C 53.4375 -6.570312 51.4375 -4.378906 47.4375 -2.203125 C 43.4375 -0.0234375 38.46875 1.0625 32.53125 1.0625 C 24.0625 1.0625 17.15625 -1.171875 11.8125 -5.640625 C 6.46875 -10.109375 3.796875 -15.988281 3.796875 -23.28125 Z M 19.125 -33.25 L 36.453125 -33.25 C 37.722656 -33.25 38.613281 -33.46875 39.125 -33.90625 C 39.644531 -34.34375 39.90625 -35.191406 39.90625 -36.453125 C 39.90625 -39.222656 38.894531 -41.476562 36.875 -43.21875 C 34.851562 -44.96875 32.378906 -45.84375 29.453125 -45.84375 C 26.679688 -45.84375 24.265625 -44.988281 22.203125 -43.28125 C 20.148438 -41.582031 19.125 -39.347656 19.125 -36.578125 Z M 19.125 -33.25 "/></g></g></g><g fill="#058f84" fill-opacity="1"><g transform="translate(24.078249, 337.826953)"><g><path d="M 7.125 -4.875 L 7.125 -79.09375 C 7.125 -81.695312 7.851562 -83.632812 9.3125 -84.90625 C 10.78125 -86.175781 12.625 -86.8125 14.84375 -86.8125 C 17.769531 -86.8125 20.023438 -86.296875 21.609375 -85.265625 C 23.191406 -84.234375 24.9375 -82.015625 26.84375 -78.609375 L 41.4375 -52.015625 L 56.046875 -78.609375 C 57.953125 -82.015625 59.710938 -84.234375 61.328125 -85.265625 C 62.953125 -86.296875 65.226562 -86.8125 68.15625 -86.8125 C 70.375 -86.8125 72.210938 -86.175781 73.671875 -84.90625 C 75.140625 -83.632812 75.875 -81.695312 75.875 -79.09375 L 75.875 -4.875 C 75.875 -3.363281 75.101562 -2.171875 73.5625 -1.296875 C 72.019531 -0.429688 70.21875 0 68.15625 0 C 66.019531 0 64.195312 -0.429688 62.6875 -1.296875 C 61.1875 -2.171875 60.4375 -3.363281 60.4375 -4.875 L 60.4375 -55.9375 L 46.546875 -31.234375 C 45.441406 -29.171875 43.703125 -28.140625 41.328125 -28.140625 C 39.023438 -28.140625 37.320312 -29.171875 36.21875 -31.234375 L 22.5625 -56.875 L 22.5625 -4.875 C 22.5625 -3.363281 21.789062 -2.171875 20.25 -1.296875 C 18.707031 -0.429688 16.90625 0 14.84375 0 C 12.707031 0 10.882812 -0.429688 9.375 -1.296875 C 7.875 -2.171875 7.125 -3.363281 7.125 -4.875 Z M 7.125 -4.875 "/></g></g></g><g fill="#058f84" fill-opacity="1"><g transform="translate(107.083582, 337.826953)"><g><path d="M 2.609375 -14.71875 C 2.609375 -21.132812 4.984375 -25.648438 9.734375 -28.265625 C 14.484375 -30.878906 21.332031 -32.1875 30.28125 -32.1875 L 35.15625 -32.1875 L 35.15625 -33.71875 C 35.15625 -36.65625 34.300781 -39.210938 32.59375 -41.390625 C 30.894531 -43.566406 28.265625 -44.65625 24.703125 -44.65625 C 21.140625 -44.65625 18.085938 -44.039062 15.546875 -42.8125 C 13.015625 -41.582031 11.550781 -40.96875 11.15625 -40.96875 C 9.570312 -40.96875 8.304688 -41.757812 7.359375 -43.34375 C 6.410156 -44.925781 5.9375 -46.664062 5.9375 -48.5625 C 5.9375 -50.863281 7.972656 -52.863281 12.046875 -54.5625 C 16.128906 -56.269531 20.425781 -57.125 24.9375 -57.125 C 33.5625 -57.125 39.972656 -54.925781 44.171875 -50.53125 C 48.367188 -46.132812 50.46875 -40.613281 50.46875 -33.96875 L 50.46875 -4.875 C 50.46875 -3.519531 49.753906 -2.367188 48.328125 -1.421875 C 46.898438 -0.472656 45.117188 0 42.984375 0 C 41.003906 0 39.359375 -0.472656 38.046875 -1.421875 C 36.742188 -2.367188 36.09375 -3.519531 36.09375 -4.875 L 36.09375 -8.3125 C 30.632812 -2.0625 24.617188 1.0625 18.046875 1.0625 C 13.535156 1.0625 9.832031 -0.28125 6.9375 -2.96875 C 4.050781 -5.65625 2.609375 -9.570312 2.609375 -14.71875 Z M 17.9375 -16.75 C 17.9375 -14.601562 18.507812 -12.992188 19.65625 -11.921875 C 20.800781 -10.859375 22.320312 -10.328125 24.21875 -10.328125 C 26.757812 -10.328125 29.21875 -11.515625 31.59375 -13.890625 C 33.96875 -16.265625 35.15625 -18.878906 35.15625 -21.734375 L 35.15625 -24.21875 L 33.375 -24.21875 C 28.539062 -24.21875 24.757812 -23.722656 22.03125 -22.734375 C 19.300781 -21.742188 17.9375 -19.75 17.9375 -16.75 Z M 17.9375 -16.75 "/></g></g></g><g fill="#058f84" fill-opacity="1"><g transform="translate(163.01423, 337.826953)"><g><path d="M 5.8125 -19.234375 L 5.8125 -76.828125 C 5.8125 -78.171875 6.601562 -79.296875 8.1875 -80.203125 C 9.769531 -81.117188 11.515625 -81.578125 13.421875 -81.578125 C 15.472656 -81.578125 17.269531 -81.117188 18.8125 -80.203125 C 20.363281 -79.296875 21.140625 -78.171875 21.140625 -76.828125 L 21.140625 -56.40625 L 35.15625 -56.40625 C 36.34375 -56.40625 37.289062 -55.847656 38 -54.734375 C 38.707031 -53.628906 39.0625 -52.320312 39.0625 -50.8125 C 39.0625 -49.3125 38.707031 -48.007812 38 -46.90625 C 37.289062 -45.800781 36.34375 -45.25 35.15625 -45.25 L 21.140625 -45.25 L 21.140625 -19.234375 C 21.140625 -16.941406 21.632812 -15.316406 22.625 -14.359375 C 23.613281 -13.410156 25.332031 -12.9375 27.78125 -12.9375 L 32.421875 -12.9375 C 34.472656 -12.9375 36.070312 -12.300781 37.21875 -11.03125 C 38.375 -9.769531 38.953125 -8.269531 38.953125 -6.53125 C 38.953125 -4.707031 38.375 -3.160156 37.21875 -1.890625 C 36.070312 -0.628906 34.472656 0 32.421875 0 L 27.78125 0 C 13.132812 0 5.8125 -6.410156 5.8125 -19.234375 Z M 5.8125 -19.234375 "/></g></g></g><g fill="#058f84" fill-opacity="1"><g transform="translate(204.220017, 337.826953)"><g><path d="M 3.796875 -23.28125 L 3.796875 -33.375 C 3.796875 -39.863281 6.328125 -45.441406 11.390625 -50.109375 C 16.460938 -54.785156 22.601562 -57.125 29.8125 -57.125 C 36.539062 -57.125 42.296875 -55.003906 47.078125 -50.765625 C 51.867188 -46.523438 54.265625 -41.203125 54.265625 -34.796875 C 54.265625 -32.421875 53.96875 -30.457031 53.375 -28.90625 C 52.78125 -27.363281 51.867188 -26.273438 50.640625 -25.640625 C 49.421875 -25.015625 48.296875 -24.617188 47.265625 -24.453125 C 46.234375 -24.296875 44.882812 -24.21875 43.21875 -24.21875 L 19.125 -24.21875 L 19.125 -22.4375 C 19.125 -19.039062 20.390625 -16.289062 22.921875 -14.1875 C 25.453125 -12.09375 28.816406 -11.046875 33.015625 -11.046875 C 36.023438 -11.046875 38.992188 -11.796875 41.921875 -13.296875 C 44.847656 -14.804688 46.75 -15.5625 47.625 -15.5625 C 49.28125 -15.5625 50.660156 -14.785156 51.765625 -13.234375 C 52.878906 -11.691406 53.4375 -10.207031 53.4375 -8.78125 C 53.4375 -6.570312 51.4375 -4.378906 47.4375 -2.203125 C 43.4375 -0.0234375 38.46875 1.0625 32.53125 1.0625 C 24.0625 1.0625 17.15625 -1.171875 11.8125 -5.640625 C 6.46875 -10.109375 3.796875 -15.988281 3.796875 -23.28125 Z M 19.125 -33.25 L 36.453125 -33.25 C 37.722656 -33.25 38.613281 -33.46875 39.125 -33.90625 C 39.644531 -34.34375 39.90625 -35.191406 39.90625 -36.453125 C 39.90625 -39.222656 38.894531 -41.476562 36.875 -43.21875 C 34.851562 -44.96875 32.378906 -45.84375 29.453125 -45.84375 C 26.679688 -45.84375 24.265625 -44.988281 22.203125 -43.28125 C 20.148438 -41.582031 19.125 -39.347656 19.125 -36.578125 Z M 19.125 -33.25 "/></g></g></g></svg>