<svg width="480" height="400" viewBox="0 0 480 400" fill="none" xmlns="http://www.w3.org/2000/svg">
<rect x="1" y="1" width="478" height="397.375" rx="9" fill="#BED7DC" fill-opacity="0.2"/>
<rect x="1" y="1" width="478" height="397.375" rx="9" stroke="#542C2C" stroke-width="2"/>
<path d="M33.776 66.232C33.264 66.232 32.8 66.056 32.384 65.704C31.968 65.384 31.76 64.888 31.76 64.216V61.144C30 60.952 28.416 60.456 27.008 59.656C25.6 58.856 24.496 57.688 23.696 56.152C22.896 54.616 22.496 52.648 22.496 50.248V36.952C22.496 34.232 22.992 32.072 23.984 30.472C25.008 28.872 26.368 27.72 28.064 27.016C29.76 26.28 31.664 25.912 33.776 25.912C35.888 25.912 37.792 26.28 39.488 27.016C41.216 27.72 42.576 28.872 43.568 30.472C44.56 32.072 45.056 34.232 45.056 36.952V50.248C45.056 52.648 44.656 54.616 43.856 56.152C43.056 57.688 41.952 58.856 40.544 59.656C39.136 60.456 37.536 60.952 35.744 61.144V64.216C35.744 64.888 35.536 65.384 35.12 65.704C34.736 66.056 34.288 66.232 33.776 66.232ZM31.76 55.432V52.888C31.76 52.216 31.968 51.736 32.384 51.448C32.8 51.128 33.264 50.968 33.776 50.968C34.288 50.968 34.736 51.128 35.12 51.448C35.536 51.736 35.744 52.216 35.744 52.888V55.432C36.704 55.112 37.456 54.536 38 53.704C38.544 52.84 38.816 51.688 38.816 50.248V36.952C38.816 35.064 38.368 33.672 37.472 32.776C36.576 31.848 35.344 31.384 33.776 31.384C32.208 31.384 30.976 31.848 30.08 32.776C29.216 33.672 28.784 35.064 28.784 36.952V50.248C28.784 51.688 29.04 52.84 29.552 53.704C30.064 54.536 30.8 55.112 31.76 55.432ZM60.1396 61.432C58.2196 61.432 56.4596 60.984 54.8596 60.088C53.2916 59.16 52.0276 57.96 51.0676 56.488C50.1396 54.984 49.6756 53.384 49.6756 51.688V40.168C49.6756 39.688 49.9796 39.24 50.5876 38.824C51.2276 38.408 51.9636 38.2 52.7956 38.2C53.6276 38.2 54.3476 38.408 54.9556 38.824C55.5636 39.24 55.8676 39.688 55.8676 40.168V51.688C55.8676 52.424 56.0596 53.112 56.4436 53.752C56.8276 54.392 57.3396 54.936 57.9796 55.384C58.6196 55.8 59.3236 56.008 60.0916 56.008C60.8916 56.008 61.5956 55.8 62.2036 55.384C62.8436 54.968 63.3556 54.424 63.7396 53.752C64.1236 53.08 64.3156 52.392 64.3156 51.688V40.12C64.3156 39.608 64.6196 39.16 65.2276 38.776C65.8676 38.392 66.5876 38.2 67.3876 38.2C68.3156 38.2 69.0676 38.392 69.6436 38.776C70.2196 39.16 70.5076 39.608 70.5076 40.12V51.688C70.5076 53.416 70.0276 55.032 69.0676 56.536C68.1396 58.008 66.8756 59.192 65.2756 60.088C63.7076 60.984 61.9956 61.432 60.1396 61.432ZM78.1595 33.112C77.2315 33.112 76.4315 32.808 75.7595 32.2C75.0875 31.56 74.7515 30.856 74.7515 30.088C74.7515 29.256 75.0875 28.552 75.7595 27.976C76.4315 27.368 77.2315 27.064 78.1595 27.064C79.1195 27.064 79.9195 27.368 80.5595 27.976C81.1995 28.552 81.5195 29.256 81.5195 30.088C81.5195 30.856 81.1995 31.56 80.5595 32.2C79.9195 32.808 79.1195 33.112 78.1595 33.112ZM78.1595 61C77.2635 61 76.5275 60.792 75.9515 60.376C75.3755 59.96 75.0875 59.496 75.0875 58.984V40.12C75.0875 39.544 75.3755 39.08 75.9515 38.728C76.5275 38.376 77.2635 38.2 78.1595 38.2C79.0235 38.2 79.7595 38.376 80.3675 38.728C80.9755 39.08 81.2795 39.544 81.2795 40.12V58.984C81.2795 59.496 80.9755 59.96 80.3675 60.376C79.7595 60.792 79.0235 61 78.1595 61ZM95.6574 61.432C93.2254 61.432 91.2414 61 89.7054 60.136C88.1694 59.272 87.0334 58.104 86.2974 56.632C85.5614 55.128 85.1934 53.448 85.1934 51.592V47.752C85.1934 45.896 85.5454 44.232 86.2494 42.76C86.9854 41.256 88.1214 40.072 89.6574 39.208C91.2254 38.344 93.1934 37.912 95.5614 37.912C97.0654 37.912 98.3934 38.088 99.5454 38.44C100.697 38.792 101.609 39.256 102.281 39.832C102.953 40.408 103.289 41.016 103.289 41.656C103.289 42.04 103.177 42.472 102.953 42.952C102.761 43.4 102.473 43.8 102.089 44.152C101.737 44.504 101.321 44.68 100.841 44.68C100.489 44.68 100.121 44.568 99.7374 44.344C99.3854 44.12 98.9214 43.896 98.3454 43.672C97.7694 43.448 97.0014 43.336 96.0414 43.336C94.4094 43.336 93.2254 43.736 92.4894 44.536C91.7534 45.304 91.3854 46.376 91.3854 47.752V51.592C91.3854 52.968 91.7534 54.056 92.4894 54.856C93.2254 55.624 94.4254 56.008 96.0894 56.008C97.0814 56.008 97.8494 55.88 98.3934 55.624C98.9374 55.368 99.3854 55.128 99.7374 54.904C100.121 54.68 100.505 54.568 100.889 54.568C101.465 54.568 101.945 54.728 102.329 55.048C102.745 55.368 103.049 55.768 103.241 56.248C103.465 56.696 103.577 57.112 103.577 57.496C103.577 58.136 103.225 58.76 102.521 59.368C101.849 59.976 100.905 60.472 99.6894 60.856C98.5054 61.24 97.1614 61.432 95.6574 61.432ZM109.847 61C108.983 61 108.263 60.792 107.687 60.376C107.111 59.96 106.823 59.496 106.823 58.984V26.824C106.823 26.248 107.111 25.784 107.687 25.432C108.263 25.08 108.983 24.904 109.847 24.904C110.743 24.904 111.495 25.08 112.103 25.432C112.711 25.784 113.015 26.248 113.015 26.824V46.936L122.087 38.44C122.407 38.12 122.807 37.96 123.287 37.96C123.767 37.96 124.231 38.12 124.679 38.44C125.159 38.728 125.543 39.096 125.831 39.544C126.151 39.992 126.311 40.456 126.311 40.936C126.311 41.128 126.263 41.336 126.167 41.56C126.103 41.752 125.975 41.928 125.783 42.088L120.119 47.224L127.223 57.304C127.447 57.656 127.559 57.992 127.559 58.312C127.559 58.792 127.367 59.272 126.983 59.752C126.599 60.232 126.135 60.632 125.591 60.952C125.047 61.24 124.519 61.384 124.007 61.384C123.367 61.384 122.855 61.112 122.471 60.568L116.039 51.064L113.015 53.752V58.984C113.015 59.496 112.711 59.96 112.103 60.376C111.495 60.792 110.743 61 109.847 61ZM143.128 61C142.232 61 141.496 60.792 140.92 60.376C140.344 59.96 140.056 59.496 140.056 58.984V40.12C140.056 39.544 140.344 39.08 140.92 38.728C141.496 38.376 142.232 38.2 143.128 38.2C143.896 38.2 144.536 38.376 145.048 38.728C145.592 39.08 145.864 39.544 145.864 40.12V41.56C146.344 40.632 147.128 39.8 148.216 39.064C149.336 38.296 150.696 37.912 152.296 37.912C153.8 37.912 155.176 38.36 156.424 39.256C157.672 40.12 158.664 41.288 159.4 42.76C160.168 44.232 160.552 45.864 160.552 47.656V58.984C160.552 59.656 160.232 60.168 159.592 60.52C158.952 60.84 158.232 61 157.432 61C156.728 61 156.04 60.84 155.368 60.52C154.696 60.168 154.36 59.656 154.36 58.984V47.656C154.36 46.92 154.168 46.232 153.784 45.592C153.432 44.952 152.936 44.424 152.296 44.008C151.656 43.56 150.952 43.336 150.184 43.336C149.544 43.336 148.92 43.512 148.312 43.864C147.704 44.216 147.208 44.712 146.824 45.352C146.44 45.992 146.248 46.76 146.248 47.656V58.984C146.248 59.496 145.944 59.96 145.336 60.376C144.728 60.792 143.992 61 143.128 61ZM174.685 61.432C172.829 61.432 171.117 60.984 169.549 60.088C167.981 59.16 166.717 57.944 165.757 56.44C164.797 54.936 164.317 53.32 164.317 51.592V47.656C164.317 45.928 164.781 44.328 165.709 42.856C166.637 41.352 167.885 40.152 169.453 39.256C171.053 38.36 172.797 37.912 174.685 37.912C176.573 37.912 178.301 38.36 179.869 39.256C181.469 40.12 182.733 41.288 183.661 42.76C184.621 44.232 185.101 45.864 185.101 47.656V51.592C185.101 53.288 184.621 54.888 183.661 56.392C182.701 57.896 181.421 59.112 179.821 60.04C178.253 60.968 176.541 61.432 174.685 61.432ZM174.685 56.008C175.453 56.008 176.157 55.8 176.797 55.384C177.437 54.968 177.949 54.424 178.333 53.752C178.717 53.048 178.909 52.328 178.909 51.592V47.656C178.909 46.92 178.717 46.232 178.333 45.592C177.949 44.952 177.437 44.424 176.797 44.008C176.189 43.56 175.485 43.336 174.685 43.336C173.917 43.336 173.213 43.544 172.573 43.96C171.933 44.376 171.421 44.92 171.037 45.592C170.685 46.232 170.509 46.92 170.509 47.656V51.592C170.509 52.328 170.685 53.048 171.037 53.752C171.421 54.424 171.933 54.968 172.573 55.384C173.213 55.8 173.917 56.008 174.685 56.008ZM197.825 61C194.945 61 192.737 60.376 191.201 59.128C189.697 57.88 188.945 55.896 188.945 53.176V29.944C188.945 29.368 189.281 28.904 189.953 28.552C190.625 28.2 191.313 28.024 192.017 28.024C192.785 28.024 193.489 28.2 194.129 28.552C194.801 28.904 195.137 29.368 195.137 29.944V38.2H200.801C201.313 38.2 201.697 38.44 201.953 38.92C202.241 39.368 202.385 39.88 202.385 40.456C202.385 41.032 202.241 41.56 201.953 42.04C201.697 42.488 201.313 42.712 200.801 42.712H195.137V53.176C195.137 54.136 195.329 54.808 195.713 55.192C196.129 55.576 196.833 55.768 197.825 55.768H199.697C200.593 55.768 201.249 56.04 201.665 56.584C202.113 57.128 202.337 57.72 202.337 58.36C202.337 59.032 202.113 59.64 201.665 60.184C201.249 60.728 200.593 61 199.697 61H197.825ZM216.011 61.432C213.739 61.432 211.723 61.032 209.963 60.232C208.235 59.4 206.875 58.248 205.883 56.776C204.891 55.272 204.395 53.544 204.395 51.592V47.512C204.395 45.784 204.859 44.2 205.787 42.76C206.747 41.288 208.011 40.12 209.579 39.256C211.179 38.36 212.955 37.912 214.907 37.912C216.699 37.912 218.331 38.296 219.803 39.064C221.307 39.832 222.523 40.888 223.451 42.232C224.379 43.576 224.843 45.144 224.843 46.936C224.843 48.312 224.619 49.304 224.171 49.912C223.723 50.488 223.147 50.856 222.443 51.016C221.771 51.144 221.067 51.208 220.331 51.208H210.587V51.928C210.587 53.304 211.099 54.424 212.123 55.288C213.179 56.12 214.539 56.536 216.203 56.536C217.259 56.536 218.139 56.376 218.843 56.056C219.547 55.736 220.155 55.432 220.667 55.144C221.179 54.856 221.659 54.712 222.107 54.712C222.587 54.712 223.003 54.872 223.355 55.192C223.707 55.512 223.979 55.896 224.171 56.344C224.363 56.76 224.459 57.128 224.459 57.448C224.459 57.992 224.107 58.584 223.403 59.224C222.731 59.832 221.755 60.36 220.475 60.808C219.227 61.224 217.739 61.432 216.011 61.432ZM210.587 47.56H217.595C218.139 47.56 218.507 47.48 218.699 47.32C218.923 47.128 219.035 46.776 219.035 46.264C219.035 45.528 218.827 44.872 218.411 44.296C218.027 43.72 217.515 43.272 216.875 42.952C216.267 42.632 215.579 42.472 214.811 42.472C214.075 42.472 213.387 42.632 212.747 42.952C212.107 43.24 211.579 43.672 211.163 44.248C210.779 44.792 210.587 45.448 210.587 46.216V47.56ZM235.996 61.432C234.396 61.432 232.924 61.24 231.58 60.856C230.268 60.44 229.228 59.912 228.46 59.272C227.724 58.632 227.356 57.976 227.356 57.304C227.356 56.952 227.436 56.568 227.596 56.152C227.788 55.736 228.028 55.368 228.316 55.048C228.636 54.728 229.004 54.568 229.42 54.568C229.868 54.568 230.332 54.76 230.812 55.144C231.324 55.496 231.948 55.848 232.684 56.2C233.452 56.552 234.508 56.728 235.852 56.728C237.292 56.728 238.236 56.504 238.684 56.056C239.164 55.608 239.404 55.144 239.404 54.664C239.404 53.96 239.116 53.416 238.54 53.032C237.996 52.648 237.292 52.344 236.428 52.12C235.564 51.864 234.636 51.592 233.644 51.304C232.684 51.016 231.772 50.648 230.908 50.2C230.044 49.72 229.34 49.08 228.796 48.28C228.252 47.448 227.98 46.376 227.98 45.064C227.98 43.912 228.252 42.792 228.796 41.704C229.34 40.616 230.236 39.72 231.484 39.016C232.732 38.28 234.428 37.912 236.572 37.912C237.884 37.912 239.116 38.056 240.268 38.344C241.452 38.6 242.412 38.968 243.148 39.448C243.884 39.928 244.252 40.456 244.252 41.032C244.252 41.32 244.156 41.704 243.964 42.184C243.772 42.632 243.5 43.048 243.148 43.432C242.828 43.816 242.428 44.008 241.948 44.008C241.596 44.008 241.164 43.896 240.652 43.672C240.172 43.416 239.612 43.176 238.972 42.952C238.332 42.728 237.564 42.616 236.668 42.616C235.868 42.616 235.228 42.728 234.748 42.952C234.268 43.176 233.916 43.448 233.692 43.768C233.468 44.088 233.356 44.424 233.356 44.776C233.356 45.352 233.628 45.8 234.172 46.12C234.716 46.44 235.42 46.712 236.284 46.936C237.18 47.16 238.108 47.416 239.068 47.704C240.06 47.96 240.988 48.344 241.852 48.856C242.748 49.368 243.468 50.072 244.012 50.968C244.556 51.832 244.828 52.968 244.828 54.376C244.828 56.52 244.06 58.232 242.524 59.512C241.02 60.792 238.844 61.432 235.996 61.432Z" fill="#F9D767"/>
<rect x="278" y="13.5" width="181" height="58" rx="5" fill="#BED7DC"/>
<rect x="278" y="13.5" width="181" height="58" rx="5" stroke="#542C2C" stroke-width="2"/>
<path d="M311 55.5C310.488 55.5 310.008 55.3933 309.56 55.18C309.133 54.9453 308.92 54.604 308.92 54.156V33.42C308.92 32.972 309.133 32.6413 309.56 32.428C310.008 32.2147 310.488 32.108 311 32.108C311.512 32.108 311.928 32.1613 312.248 32.268C312.589 32.3747 312.899 32.588 313.176 32.908C313.475 33.2067 313.784 33.676 314.104 34.316L320.28 46.252V33.42C320.28 32.9507 320.493 32.62 320.92 32.428C321.368 32.2147 321.848 32.108 322.36 32.108C322.893 32.108 323.373 32.2147 323.8 32.428C324.227 32.62 324.44 32.9507 324.44 33.42V54.156C324.44 54.604 324.227 54.9453 323.8 55.18C323.373 55.3933 322.893 55.5 322.36 55.5C321.869 55.5 321.411 55.404 320.984 55.212C320.579 55.02 320.248 54.6787 319.992 54.188L313.08 41.324V54.156C313.08 54.604 312.867 54.9453 312.44 55.18C312.013 55.3933 311.533 55.5 311 55.5ZM335.143 55.788C333.628 55.788 332.284 55.5213 331.111 54.988C329.959 54.4333 329.052 53.6653 328.391 52.684C327.73 51.6813 327.399 50.5293 327.399 49.228V46.508C327.399 45.356 327.708 44.3 328.327 43.34C328.967 42.3587 329.81 41.58 330.855 41.004C331.922 40.4067 333.106 40.108 334.407 40.108C335.602 40.108 336.69 40.364 337.671 40.876C338.674 41.388 339.484 42.092 340.103 42.988C340.722 43.884 341.031 44.9293 341.031 46.124C341.031 47.0413 340.882 47.7027 340.583 48.108C340.284 48.492 339.9 48.7373 339.431 48.844C338.983 48.9293 338.514 48.972 338.023 48.972H331.527V49.452C331.527 50.3693 331.868 51.116 332.551 51.692C333.255 52.2467 334.162 52.524 335.271 52.524C335.975 52.524 336.562 52.4173 337.031 52.204C337.5 51.9907 337.906 51.788 338.247 51.596C338.588 51.404 338.908 51.308 339.207 51.308C339.527 51.308 339.804 51.4147 340.039 51.628C340.274 51.8413 340.455 52.0973 340.583 52.396C340.711 52.6733 340.775 52.9187 340.775 53.132C340.775 53.4947 340.54 53.8893 340.071 54.316C339.623 54.7213 338.972 55.0733 338.119 55.372C337.287 55.6493 336.295 55.788 335.143 55.788ZM331.527 46.54H336.199C336.562 46.54 336.807 46.4867 336.935 46.38C337.084 46.252 337.159 46.0173 337.159 45.676C337.159 45.1853 337.02 44.748 336.743 44.364C336.487 43.98 336.146 43.6813 335.719 43.468C335.314 43.2547 334.855 43.148 334.343 43.148C333.852 43.148 333.394 43.2547 332.967 43.468C332.54 43.66 332.188 43.948 331.911 44.332C331.655 44.6947 331.527 45.132 331.527 45.644V46.54ZM348.786 55.852C348.424 55.852 348.093 55.7987 347.794 55.692C347.496 55.5853 347.293 55.3827 347.186 55.084L342.226 42.444C342.184 42.2947 342.152 42.1773 342.13 42.092C342.109 41.9853 342.098 41.9 342.098 41.836C342.098 41.4947 342.237 41.2067 342.514 40.972C342.813 40.716 343.176 40.5133 343.602 40.364C344.029 40.2147 344.413 40.14 344.754 40.14C345.032 40.14 345.277 40.1933 345.49 40.3C345.725 40.4067 345.885 40.5773 345.97 40.812L349.17 49.9L351.57 41.996C351.677 41.6333 351.858 41.4093 352.114 41.324C352.37 41.2173 352.658 41.164 352.978 41.164C353.298 41.164 353.586 41.2173 353.842 41.324C354.098 41.4093 354.28 41.6333 354.386 41.996L356.754 49.932L359.986 40.812C360.136 40.364 360.52 40.14 361.138 40.14C361.48 40.14 361.864 40.2147 362.29 40.364C362.717 40.5133 363.08 40.716 363.378 40.972C363.677 41.228 363.826 41.5267 363.826 41.868C363.826 41.9533 363.816 42.0493 363.794 42.156C363.773 42.2627 363.741 42.3587 363.698 42.444L358.738 55.116C358.632 55.3933 358.429 55.5853 358.13 55.692C357.832 55.7987 357.501 55.852 357.138 55.852C356.754 55.852 356.402 55.788 356.082 55.66C355.762 55.532 355.549 55.3507 355.442 55.116L352.978 48.14L350.514 55.084C350.45 55.34 350.248 55.532 349.906 55.66C349.565 55.788 349.192 55.852 348.786 55.852ZM374.117 55.5C373.519 55.5 373.029 55.3613 372.645 55.084C372.261 54.8067 372.069 54.4973 372.069 54.156V41.58C372.069 41.196 372.261 40.8867 372.645 40.652C373.029 40.4173 373.519 40.3 374.117 40.3C374.629 40.3 375.055 40.4173 375.397 40.652C375.759 40.8867 375.941 41.196 375.941 41.58V42.54C376.261 41.9213 376.783 41.3667 377.509 40.876C378.255 40.364 379.162 40.108 380.229 40.108C381.231 40.108 382.149 40.4067 382.981 41.004C383.813 41.58 384.474 42.3587 384.965 43.34C385.477 44.3213 385.733 45.4093 385.733 46.604V54.156C385.733 54.604 385.519 54.9453 385.093 55.18C384.666 55.3933 384.186 55.5 383.653 55.5C383.183 55.5 382.725 55.3933 382.277 55.18C381.829 54.9453 381.605 54.604 381.605 54.156V46.604C381.605 46.1133 381.477 45.6547 381.221 45.228C380.986 44.8013 380.655 44.4493 380.229 44.172C379.802 43.8733 379.333 43.724 378.821 43.724C378.394 43.724 377.978 43.8413 377.573 44.076C377.167 44.3107 376.837 44.6413 376.581 45.068C376.325 45.4947 376.197 46.0067 376.197 46.604V54.156C376.197 54.4973 375.994 54.8067 375.589 55.084C375.183 55.3613 374.693 55.5 374.117 55.5ZM395.155 55.788C393.917 55.788 392.776 55.4893 391.731 54.892C390.685 54.2733 389.843 53.4627 389.203 52.46C388.563 51.4573 388.243 50.38 388.243 49.228V46.604C388.243 45.452 388.552 44.3853 389.171 43.404C389.789 42.4013 390.621 41.6013 391.667 41.004C392.733 40.4067 393.896 40.108 395.155 40.108C396.413 40.108 397.565 40.4067 398.611 41.004C399.677 41.58 400.52 42.3587 401.139 43.34C401.779 44.3213 402.099 45.4093 402.099 46.604V49.228C402.099 50.3587 401.779 51.4253 401.139 52.428C400.499 53.4307 399.645 54.2413 398.579 54.86C397.533 55.4787 396.392 55.788 395.155 55.788ZM395.155 52.172C395.667 52.172 396.136 52.0333 396.563 51.756C396.989 51.4787 397.331 51.116 397.587 50.668C397.843 50.1987 397.971 49.7187 397.971 49.228V46.604C397.971 46.1133 397.843 45.6547 397.587 45.228C397.331 44.8013 396.989 44.4493 396.563 44.172C396.157 43.8733 395.688 43.724 395.155 43.724C394.643 43.724 394.173 43.8627 393.747 44.14C393.32 44.4173 392.979 44.78 392.723 45.228C392.488 45.6547 392.371 46.1133 392.371 46.604V49.228C392.371 49.7187 392.488 50.1987 392.723 50.668C392.979 51.116 393.32 51.4787 393.747 51.756C394.173 52.0333 394.643 52.172 395.155 52.172ZM410.581 55.5C408.661 55.5 407.189 55.084 406.165 54.252C405.162 53.42 404.661 52.0973 404.661 50.284V34.796C404.661 34.412 404.885 34.1027 405.333 33.868C405.781 33.6333 406.24 33.516 406.709 33.516C407.221 33.516 407.69 33.6333 408.117 33.868C408.565 34.1027 408.789 34.412 408.789 34.796V40.3H412.565C412.906 40.3 413.162 40.46 413.333 40.78C413.525 41.0787 413.621 41.42 413.621 41.804C413.621 42.188 413.525 42.54 413.333 42.86C413.162 43.1587 412.906 43.308 412.565 43.308H408.789V50.284C408.789 50.924 408.917 51.372 409.173 51.628C409.45 51.884 409.92 52.012 410.581 52.012H411.829C412.426 52.012 412.864 52.1933 413.141 52.556C413.44 52.9187 413.589 53.3133 413.589 53.74C413.589 54.188 413.44 54.5933 413.141 54.956C412.864 55.3187 412.426 55.5 411.829 55.5H410.581ZM422.706 55.788C421.191 55.788 419.847 55.5213 418.674 54.988C417.522 54.4333 416.615 53.6653 415.954 52.684C415.292 51.6813 414.962 50.5293 414.962 49.228V46.508C414.962 45.356 415.271 44.3 415.89 43.34C416.53 42.3587 417.372 41.58 418.418 41.004C419.484 40.4067 420.668 40.108 421.97 40.108C423.164 40.108 424.252 40.364 425.234 40.876C426.236 41.388 427.047 42.092 427.666 42.988C428.284 43.884 428.594 44.9293 428.594 46.124C428.594 47.0413 428.444 47.7027 428.146 48.108C427.847 48.492 427.463 48.7373 426.994 48.844C426.546 48.9293 426.076 48.972 425.586 48.972H419.09V49.452C419.09 50.3693 419.431 51.116 420.114 51.692C420.818 52.2467 421.724 52.524 422.834 52.524C423.538 52.524 424.124 52.4173 424.594 52.204C425.063 51.9907 425.468 51.788 425.81 51.596C426.151 51.404 426.471 51.308 426.77 51.308C427.09 51.308 427.367 51.4147 427.602 51.628C427.836 51.8413 428.018 52.0973 428.146 52.396C428.274 52.6733 428.338 52.9187 428.338 53.132C428.338 53.4947 428.103 53.8893 427.634 54.316C427.186 54.7213 426.535 55.0733 425.682 55.372C424.85 55.6493 423.858 55.788 422.706 55.788ZM419.09 46.54H423.762C424.124 46.54 424.37 46.4867 424.498 46.38C424.647 46.252 424.722 46.0173 424.722 45.676C424.722 45.1853 424.583 44.748 424.306 44.364C424.05 43.98 423.708 43.6813 423.282 43.468C422.876 43.2547 422.418 43.148 421.906 43.148C421.415 43.148 420.956 43.2547 420.53 43.468C420.103 43.66 419.751 43.948 419.474 44.332C419.218 44.6947 419.09 45.132 419.09 45.644V46.54Z" fill="#542C2C"/>
<g filter="url(#filter0_d_195_61)">
<rect x="15" y="100" width="360" height="284.375" rx="10" fill="#058F84" fill-opacity="0.2" shape-rendering="crispEdges"/>
<path d="M106.31 250.288C105.126 250.288 104.118 250.024 103.286 249.496C102.47 248.952 101.846 248.208 101.414 247.264C100.982 246.304 100.766 245.192 100.766 243.928C100.766 242.936 100.894 241.96 101.15 241C101.406 240.024 101.766 239.12 102.23 238.288C102.694 237.44 103.254 236.696 103.91 236.056C104.582 235.4 105.334 234.888 106.166 234.52C106.998 234.152 107.894 233.968 108.854 233.968C109.75 233.968 110.534 234.176 111.206 234.592C111.894 235.008 112.398 235.56 112.718 236.248L111.638 237.208C111.334 236.664 110.934 236.256 110.438 235.984C109.958 235.712 109.39 235.576 108.734 235.576C107.998 235.576 107.318 235.736 106.694 236.056C106.07 236.376 105.51 236.816 105.014 237.376C104.518 237.92 104.094 238.544 103.742 239.248C103.39 239.952 103.118 240.696 102.926 241.48C102.75 242.248 102.662 243.008 102.662 243.76C102.662 244.72 102.798 245.568 103.07 246.304C103.358 247.04 103.79 247.624 104.366 248.056C104.958 248.472 105.71 248.68 106.622 248.68C107.294 248.68 107.91 248.56 108.47 248.32C109.046 248.064 109.574 247.728 110.054 247.312L110.846 248.44C110.238 249 109.574 249.448 108.854 249.784C108.134 250.12 107.286 250.288 106.31 250.288ZM116.89 250.288C115.882 250.288 115.066 249.928 114.442 249.208C113.834 248.472 113.53 247.424 113.53 246.064C113.53 244.928 113.706 243.88 114.058 242.92C114.41 241.944 114.882 241.096 115.474 240.376C116.066 239.656 116.738 239.088 117.49 238.672C118.242 238.256 119.026 238.048 119.842 238.048C120.466 238.048 121.026 238.208 121.522 238.528C122.018 238.848 122.402 239.272 122.674 239.8H122.746L123.202 238.336H124.69L122.362 250H120.85L121.042 248.272H120.946C120.386 248.864 119.754 249.352 119.05 249.736C118.346 250.104 117.626 250.288 116.89 250.288ZM117.562 248.752C118.186 248.752 118.81 248.568 119.434 248.2C120.058 247.832 120.658 247.272 121.234 246.52L122.29 241.312C121.97 240.688 121.602 240.248 121.186 239.992C120.786 239.72 120.362 239.584 119.914 239.584C119.322 239.584 118.754 239.752 118.21 240.088C117.682 240.424 117.21 240.888 116.794 241.48C116.378 242.056 116.042 242.72 115.786 243.472C115.546 244.208 115.426 244.976 115.426 245.776C115.426 246.784 115.618 247.536 116.002 248.032C116.386 248.512 116.906 248.752 117.562 248.752ZM128.149 250.216C127.605 250.216 127.197 250.088 126.925 249.832C126.653 249.56 126.517 249.184 126.517 248.704C126.517 248.576 126.525 248.432 126.541 248.272C126.573 248.096 126.613 247.912 126.661 247.72L129.613 232.912H131.461L128.485 247.792C128.469 247.92 128.453 248.024 128.437 248.104C128.437 248.184 128.437 248.256 128.437 248.32C128.437 248.576 128.557 248.704 128.797 248.704C128.845 248.704 128.885 248.704 128.917 248.704C128.965 248.688 129.037 248.672 129.133 248.656L129.277 250C129.117 250.064 128.941 250.112 128.749 250.144C128.573 250.192 128.373 250.216 128.149 250.216ZM134.102 250.216C133.558 250.216 133.15 250.088 132.878 249.832C132.606 249.56 132.47 249.184 132.47 248.704C132.47 248.576 132.478 248.432 132.494 248.272C132.526 248.096 132.566 247.912 132.614 247.72L135.566 232.912H137.414L134.438 247.792C134.422 247.92 134.406 248.024 134.39 248.104C134.39 248.184 134.39 248.256 134.39 248.32C134.39 248.576 134.51 248.704 134.75 248.704C134.798 248.704 134.838 248.704 134.87 248.704C134.918 248.688 134.99 248.672 135.086 248.656L135.23 250C135.07 250.064 134.894 250.112 134.702 250.144C134.526 250.192 134.326 250.216 134.102 250.216ZM143.012 250L146.156 234.256H148.508L149.78 242.776C149.876 243.304 149.956 243.84 150.02 244.384C150.1 244.912 150.18 245.456 150.26 246.016H150.356C150.612 245.456 150.86 244.912 151.1 244.384C151.356 243.84 151.636 243.304 151.94 242.776L156.572 234.256H158.948L155.804 250H154.028L155.852 241.12C155.948 240.624 156.06 240.104 156.188 239.56C156.332 239 156.476 238.44 156.62 237.88C156.764 237.32 156.9 236.808 157.028 236.344H156.932L155.06 240.04L150.596 248.344H149.156L147.764 240.04L147.284 236.344H147.188C147.14 236.824 147.084 237.344 147.02 237.904C146.956 238.464 146.884 239.024 146.804 239.584C146.724 240.128 146.644 240.64 146.564 241.12L144.788 250H143.012ZM164.638 250.288C163.23 250.288 162.102 249.864 161.254 249.016C160.406 248.168 159.982 246.968 159.982 245.416C159.982 244.312 160.158 243.312 160.51 242.416C160.878 241.52 161.358 240.744 161.95 240.088C162.558 239.432 163.23 238.928 163.966 238.576C164.702 238.224 165.446 238.048 166.198 238.048C167.078 238.048 167.782 238.232 168.31 238.6C168.854 238.968 169.246 239.472 169.486 240.112C169.726 240.752 169.846 241.472 169.846 242.272C169.846 242.592 169.822 242.896 169.774 243.184C169.742 243.456 169.694 243.712 169.63 243.952C169.566 244.192 169.502 244.408 169.438 244.6H161.35L161.542 243.184H168.142C168.19 242.992 168.222 242.816 168.238 242.656C168.254 242.496 168.262 242.32 168.262 242.128C168.262 241.68 168.19 241.264 168.046 240.88C167.902 240.48 167.662 240.16 167.326 239.92C167.006 239.664 166.566 239.536 166.006 239.536C165.542 239.536 165.062 239.664 164.566 239.92C164.07 240.176 163.614 240.552 163.198 241.048C162.798 241.528 162.47 242.112 162.214 242.8C161.958 243.488 161.83 244.264 161.83 245.128C161.83 246.072 161.966 246.808 162.238 247.336C162.51 247.864 162.886 248.24 163.366 248.464C163.846 248.672 164.39 248.776 164.998 248.776C165.51 248.776 165.982 248.696 166.414 248.536C166.862 248.36 167.27 248.136 167.638 247.864L168.334 249.016C167.87 249.384 167.326 249.688 166.702 249.928C166.094 250.168 165.406 250.288 164.638 250.288ZM171.369 250L173.697 238.336H175.209L174.945 240.568H175.041C175.505 239.864 176.041 239.272 176.649 238.792C177.257 238.296 177.921 238.048 178.641 238.048C178.849 238.048 179.049 238.064 179.241 238.096C179.433 238.128 179.601 238.184 179.745 238.264L179.097 239.872C178.985 239.808 178.841 239.768 178.665 239.752C178.505 239.72 178.313 239.704 178.089 239.704C177.513 239.704 176.921 239.952 176.313 240.448C175.705 240.944 175.153 241.672 174.657 242.632L173.193 250H171.369ZM178.921 255.016C178.665 255.016 178.417 254.992 178.177 254.944C177.921 254.896 177.689 254.808 177.481 254.68L178.033 253.312C178.289 253.424 178.593 253.48 178.945 253.48C179.537 253.48 180.097 253.248 180.625 252.784C181.153 252.32 181.617 251.688 182.017 250.888L182.401 250.12L180.385 238.336H182.281L183.193 244.864C183.273 245.392 183.345 245.96 183.409 246.568C183.473 247.16 183.537 247.712 183.601 248.224H183.697C183.953 247.68 184.225 247.12 184.513 246.544C184.801 245.952 185.081 245.392 185.353 244.864L188.713 238.336H190.585L183.865 250.864C183.401 251.76 182.921 252.512 182.425 253.12C181.929 253.744 181.393 254.216 180.817 254.536C180.257 254.856 179.625 255.016 178.921 255.016ZM192.775 239.392L192.391 238.504C192.887 238.264 193.303 237.976 193.639 237.64C193.991 237.304 194.255 236.96 194.431 236.608C194.607 236.256 194.695 235.928 194.695 235.624L194.671 234.088L195.343 235.336C195.215 235.448 195.079 235.536 194.935 235.6C194.807 235.648 194.687 235.672 194.575 235.672C194.239 235.672 193.951 235.584 193.711 235.408C193.487 235.216 193.375 234.944 193.375 234.592C193.375 234.224 193.495 233.904 193.735 233.632C193.991 233.36 194.311 233.224 194.695 233.224C195.063 233.224 195.367 233.368 195.607 233.656C195.847 233.944 195.967 234.344 195.967 234.856C195.967 235.592 195.823 236.256 195.535 236.848C195.263 237.44 194.887 237.952 194.407 238.384C193.927 238.816 193.383 239.152 192.775 239.392ZM198.982 250.288C198.47 250.288 197.958 250.2 197.446 250.024C196.934 249.848 196.462 249.6 196.03 249.28C195.614 248.944 195.278 248.552 195.022 248.104L196.03 247.264C196.398 247.76 196.846 248.152 197.374 248.44C197.918 248.728 198.502 248.872 199.126 248.872C199.574 248.872 199.982 248.792 200.35 248.632C200.734 248.456 201.038 248.224 201.262 247.936C201.486 247.632 201.598 247.296 201.598 246.928C201.598 246.64 201.526 246.392 201.382 246.184C201.254 245.96 201.022 245.728 200.686 245.488C200.35 245.248 199.878 244.96 199.27 244.624C198.55 244.208 197.958 243.752 197.494 243.256C197.03 242.744 196.798 242.152 196.798 241.48C196.798 240.808 196.974 240.216 197.326 239.704C197.678 239.176 198.142 238.768 198.718 238.48C199.31 238.192 199.958 238.048 200.662 238.048C201.398 238.048 202.062 238.192 202.654 238.48C203.246 238.752 203.758 239.144 204.19 239.656L203.206 240.64C202.886 240.288 202.51 240.008 202.078 239.8C201.646 239.592 201.166 239.488 200.638 239.488C200.03 239.488 199.526 239.664 199.126 240.016C198.742 240.368 198.55 240.784 198.55 241.264C198.55 241.712 198.742 242.096 199.126 242.416C199.526 242.72 200.022 243.04 200.614 243.376C201.27 243.728 201.798 244.072 202.198 244.408C202.598 244.728 202.886 245.072 203.062 245.44C203.254 245.808 203.35 246.224 203.35 246.688C203.35 247.408 203.158 248.04 202.774 248.584C202.406 249.128 201.886 249.552 201.214 249.856C200.558 250.144 199.814 250.288 198.982 250.288ZM209.291 254.92L212.603 238.336H214.115L213.971 239.872H214.067C214.659 239.376 215.291 238.952 215.963 238.6C216.635 238.232 217.339 238.048 218.075 238.048C219.099 238.048 219.915 238.416 220.523 239.152C221.131 239.872 221.435 240.912 221.435 242.272C221.435 243.392 221.259 244.44 220.907 245.416C220.571 246.392 220.099 247.248 219.491 247.984C218.899 248.704 218.227 249.272 217.475 249.688C216.723 250.088 215.947 250.288 215.147 250.288C214.539 250.288 213.995 250.128 213.515 249.808C213.035 249.488 212.643 249.088 212.339 248.608H212.291L211.859 251.104L211.115 254.92H209.291ZM215.075 248.752C215.651 248.752 216.203 248.584 216.731 248.248C217.275 247.896 217.755 247.432 218.171 246.856C218.587 246.28 218.915 245.624 219.155 244.888C219.411 244.136 219.539 243.352 219.539 242.536C219.539 241.544 219.347 240.808 218.963 240.328C218.579 239.832 218.059 239.584 217.403 239.584C216.875 239.584 216.283 239.752 215.627 240.088C214.971 240.424 214.363 240.896 213.803 241.504L212.699 247.072C213.035 247.664 213.395 248.096 213.779 248.368C214.179 248.624 214.611 248.752 215.075 248.752ZM226.671 250.288C225.663 250.288 224.847 249.928 224.223 249.208C223.615 248.472 223.311 247.424 223.311 246.064C223.311 244.928 223.487 243.88 223.839 242.92C224.191 241.944 224.663 241.096 225.255 240.376C225.847 239.656 226.519 239.088 227.271 238.672C228.023 238.256 228.807 238.048 229.623 238.048C230.247 238.048 230.807 238.208 231.303 238.528C231.799 238.848 232.183 239.272 232.455 239.8H232.527L232.983 238.336H234.471L232.143 250H230.631L230.823 248.272H230.727C230.167 248.864 229.535 249.352 228.831 249.736C228.127 250.104 227.407 250.288 226.671 250.288ZM227.343 248.752C227.967 248.752 228.591 248.568 229.215 248.2C229.839 247.832 230.439 247.272 231.015 246.52L232.071 241.312C231.751 240.688 231.383 240.248 230.967 239.992C230.567 239.72 230.143 239.584 229.695 239.584C229.103 239.584 228.535 239.752 227.991 240.088C227.463 240.424 226.991 240.888 226.575 241.48C226.159 242.056 225.823 242.72 225.567 243.472C225.327 244.208 225.207 244.976 225.207 245.776C225.207 246.784 225.399 247.536 225.783 248.032C226.167 248.512 226.687 248.752 227.343 248.752ZM235.986 250L238.314 238.336H239.826L239.562 240.568H239.658C240.122 239.864 240.658 239.272 241.266 238.792C241.874 238.296 242.538 238.048 243.258 238.048C243.466 238.048 243.666 238.064 243.858 238.096C244.05 238.128 244.218 238.184 244.362 238.264L243.714 239.872C243.602 239.808 243.458 239.768 243.282 239.752C243.122 239.72 242.93 239.704 242.706 239.704C242.13 239.704 241.538 239.952 240.93 240.448C240.322 240.944 239.77 241.672 239.274 242.632L237.81 250H235.986ZM248.755 250.288C247.347 250.288 246.219 249.864 245.371 249.016C244.523 248.168 244.099 246.968 244.099 245.416C244.099 244.312 244.275 243.312 244.627 242.416C244.995 241.52 245.475 240.744 246.067 240.088C246.675 239.432 247.347 238.928 248.083 238.576C248.819 238.224 249.563 238.048 250.315 238.048C251.195 238.048 251.899 238.232 252.427 238.6C252.971 238.968 253.363 239.472 253.603 240.112C253.843 240.752 253.963 241.472 253.963 242.272C253.963 242.592 253.939 242.896 253.891 243.184C253.859 243.456 253.811 243.712 253.747 243.952C253.683 244.192 253.619 244.408 253.555 244.6H245.467L245.659 243.184H252.259C252.307 242.992 252.339 242.816 252.355 242.656C252.371 242.496 252.379 242.32 252.379 242.128C252.379 241.68 252.307 241.264 252.163 240.88C252.019 240.48 251.779 240.16 251.443 239.92C251.123 239.664 250.683 239.536 250.123 239.536C249.659 239.536 249.179 239.664 248.683 239.92C248.187 240.176 247.731 240.552 247.315 241.048C246.915 241.528 246.587 242.112 246.331 242.8C246.075 243.488 245.947 244.264 245.947 245.128C245.947 246.072 246.083 246.808 246.355 247.336C246.627 247.864 247.003 248.24 247.483 248.464C247.963 248.672 248.507 248.776 249.115 248.776C249.627 248.776 250.099 248.696 250.531 248.536C250.979 248.36 251.387 248.136 251.755 247.864L252.451 249.016C251.987 249.384 251.443 249.688 250.819 249.928C250.211 250.168 249.523 250.288 248.755 250.288ZM255.486 250L257.814 238.336H259.326L259.158 240.088H259.254C259.878 239.512 260.526 239.032 261.198 238.648C261.886 238.248 262.59 238.048 263.31 238.048C264.302 238.048 265.006 238.312 265.422 238.84C265.854 239.352 266.07 240.056 266.07 240.952C266.07 241.224 266.054 241.48 266.022 241.72C266.006 241.96 265.958 242.24 265.878 242.56L264.39 250H262.566L264.006 242.8C264.07 242.48 264.118 242.224 264.15 242.032C264.182 241.84 264.198 241.64 264.198 241.432C264.198 240.84 264.054 240.392 263.766 240.088C263.494 239.784 263.062 239.632 262.47 239.632C262.006 239.632 261.486 239.8 260.91 240.136C260.35 240.472 259.702 241.008 258.966 241.744L257.31 250H255.486ZM271.744 250.216C270.768 250.216 270.064 249.968 269.632 249.472C269.216 248.96 269.008 248.328 269.008 247.576C269.008 247.368 269.016 247.168 269.032 246.976C269.064 246.768 269.096 246.552 269.128 246.328L270.496 239.824H268.768L269.08 238.456L270.88 238.336L271.864 234.616H273.4L272.68 238.336H275.632L275.32 239.824H272.32L270.952 246.424C270.936 246.568 270.92 246.704 270.904 246.832C270.888 246.96 270.88 247.112 270.88 247.288C270.88 247.752 270.984 248.104 271.192 248.344C271.416 248.584 271.784 248.704 272.296 248.704C272.536 248.704 272.76 248.68 272.968 248.632C273.176 248.568 273.368 248.496 273.544 248.416L273.976 249.64C273.72 249.784 273.4 249.912 273.016 250.024C272.632 250.152 272.208 250.216 271.744 250.216ZM279.045 250.288C278.533 250.288 278.021 250.2 277.509 250.024C276.997 249.848 276.525 249.6 276.093 249.28C275.677 248.944 275.341 248.552 275.085 248.104L276.093 247.264C276.461 247.76 276.909 248.152 277.437 248.44C277.981 248.728 278.565 248.872 279.189 248.872C279.637 248.872 280.045 248.792 280.413 248.632C280.797 248.456 281.101 248.224 281.325 247.936C281.549 247.632 281.661 247.296 281.661 246.928C281.661 246.64 281.589 246.392 281.445 246.184C281.317 245.96 281.085 245.728 280.749 245.488C280.413 245.248 279.941 244.96 279.333 244.624C278.613 244.208 278.021 243.752 277.557 243.256C277.093 242.744 276.861 242.152 276.861 241.48C276.861 240.808 277.037 240.216 277.389 239.704C277.741 239.176 278.205 238.768 278.781 238.48C279.373 238.192 280.021 238.048 280.725 238.048C281.461 238.048 282.125 238.192 282.717 238.48C283.309 238.752 283.821 239.144 284.253 239.656L283.269 240.64C282.949 240.288 282.573 240.008 282.141 239.8C281.709 239.592 281.229 239.488 280.701 239.488C280.093 239.488 279.589 239.664 279.189 240.016C278.805 240.368 278.613 240.784 278.613 241.264C278.613 241.712 278.805 242.096 279.189 242.416C279.589 242.72 280.085 243.04 280.677 243.376C281.333 243.728 281.861 244.072 282.261 244.408C282.661 244.728 282.949 245.072 283.125 245.44C283.317 245.808 283.413 246.224 283.413 246.688C283.413 247.408 283.221 248.04 282.837 248.584C282.469 249.128 281.949 249.552 281.277 249.856C280.621 250.144 279.877 250.288 279.045 250.288ZM286.469 250.288C286.117 250.288 285.837 250.176 285.629 249.952C285.437 249.712 285.341 249.424 285.341 249.088C285.341 248.816 285.413 248.552 285.557 248.296C285.701 248.04 285.893 247.832 286.133 247.672C286.373 247.496 286.645 247.408 286.949 247.408C287.301 247.408 287.573 247.528 287.765 247.768C287.957 247.992 288.053 248.28 288.053 248.632C288.053 248.904 287.981 249.168 287.837 249.424C287.709 249.68 287.525 249.888 287.285 250.048C287.045 250.208 286.773 250.288 286.469 250.288Z" fill="#542C2C"/>
</g>
<path d="M398.232 158.232C397.256 159.209 397.256 160.791 398.232 161.768L414.142 177.678C415.118 178.654 416.701 178.654 417.678 177.678C418.654 176.701 418.654 175.118 417.678 174.142L403.536 160L417.678 145.858C418.654 144.882 418.654 143.299 417.678 142.322C416.701 141.346 415.118 141.346 414.142 142.322L398.232 158.232ZM450 157.5H400V162.5H450V157.5Z" fill="#542C2C"/>
<path d="M451.768 326.143C452.744 325.166 452.744 323.584 451.768 322.607L435.858 306.697C434.882 305.721 433.299 305.721 432.322 306.697C431.346 307.674 431.346 309.257 432.322 310.233L446.464 324.375L432.322 338.517C431.346 339.493 431.346 341.076 432.322 342.053C433.299 343.029 434.882 343.029 435.858 342.053L451.768 326.143ZM400 326.875H450V321.875H400V326.875Z" fill="#542C2C"/>
<defs>
<filter id="filter0_d_195_61" x="11" y="100" width="368" height="292.375" filterUnits="userSpaceOnUse" color-interpolation-filters="sRGB">
<feFlood flood-opacity="0" result="BackgroundImageFix"/>
<feColorMatrix in="SourceAlpha" type="matrix" values="0 0 0 0 0 0 0 0 0 0 0 0 0 0 0 0 0 0 127 0" result="hardAlpha"/>
<feOffset dy="4"/>
<feGaussianBlur stdDeviation="2"/>
<feComposite in2="hardAlpha" operator="out"/>
<feColorMatrix type="matrix" values="0 0 0 0 0 0 0 0 0 0 0 0 0 0 0 0 0 0 0.25 0"/>
<feBlend mode="normal" in2="BackgroundImageFix" result="effect1_dropShadow_195_61"/>
<feBlend mode="normal" in="SourceGraphic" in2="effect1_dropShadow_195_61" result="shape"/>
</filter>
</defs>
</svg>
